<?xml version="1.0" encoding="UTF-8"?>
<svg xmlns="http://www.w3.org/2000/svg" xmlns:xlink="http://www.w3.org/1999/xlink" version="1.2" >
<font id="TodaySHOP-XLight">
<font-face  font-family="TodaySHOP-XLight" units-per-em="1000" ascent="709" descent="-276" font-style="normal" font-weight="400" font-stretch="normal" cap-height="663" x-height="438" underline-position="-119" underline-thickness="23" />
<missing-glyph  horiz-adv-x="182" d="" />
<glyph glyph-name="NULL" d="" />
<glyph glyph-name="CR" unicode="&#xd;" horiz-adv-x="250" d="" />
<glyph glyph-name="space" unicode="&#x20;" horiz-adv-x="182" d="" />
<glyph glyph-name="exclam" unicode="&#x21;" horiz-adv-x="153" d="M68 656 L75 131 L100 131 L106 656 L68 656 Z M89 49 C72 49 61 38 61 21 C61 4 72 -7 89 -7 C106 -7 117 4 117 21 C117 38 106 49 89 49 L89 49 Z " />
<glyph glyph-name="quotedbl" unicode="&#x22;" horiz-adv-x="299" d="M117 674 C107 601 78 528 23 439 L51 430 C108 514 142 598 149 671 L117 674 Z M240 674 C230 601 201 528 146 439 L174 430 C231 514 265 598 272 671 L240 674 Z " />
<glyph glyph-name="numbersign" unicode="&#x23;" horiz-adv-x="554" d="M475 249 L364 249 L389 409 L500 409 L504 431 L392 431 L428 656 L405 656 L370 431 L217 431 L253 656 L230 656 L195 431 L83 431 L80 409 L191 409 L166 249 L54 249 L51 227 L162 227 L126 0 L149 0 L185 227 L338 227 L302 0 L324 0 L360 227 L472 227 L475 249 Z M366 409 L341 249 L188 249 L214 409 L366 409 Z " />
<glyph glyph-name="dollar" unicode="&#x24;" horiz-adv-x="369" d="M188 7 C280 12 346 82 346 174 C346 252 316 292 226 336 L208 345 L174 361 C153 372 136 381 124 388 C91 409 74 440 74 482 C74 552 125 600 200 600 C239 600 280 582 316 551 L332 580 C292 612 250 628 206 629 L206 711 L178 711 L178 627 C102 621 42 556 42 480 C42 446 51 418 69 394 C86 371 107 357 159 334 C223 305 254 287 275 268 C301 245 316 205 314 166 C310 83 254 35 164 35 C111 35 68 54 15 103 L2 71 C55 25 101 7 160 6 L160 -86 L188 -86 L188 7 Z " />
<glyph glyph-name="percent" unicode="&#x25;" horiz-adv-x="702" d="M175 646 C87 646 25 576 20 473 C15 361 75 283 165 283 C220 283 257 301 285 343 C308 377 320 418 320 466 C320 572 260 646 175 646 L175 646 Z M171 619 C241 619 290 555 290 464 C290 366 244 309 166 309 C93 309 49 371 49 472 C49 557 100 619 171 619 L171 619 Z M467 647 L207 0 L233 0 L494 647 L467 647 Z M536 364 C448 364 386 295 381 191 C376 80 436 1 526 1 C581 1 618 19 646 61 C669 95 681 136 681 184 C681 290 621 364 536 364 L536 364 Z M532 337 C602 337 651 273 651 182 C651 84 605 27 527 27 C454 27 410 89 410 190 C410 275 461 337 532 337 L532 337 Z " />
<glyph glyph-name="ampersand" unicode="&#x26;" horiz-adv-x="859" d="M851 452 L560 452 L560 421 L692 421 C693 408 693 398 693 391 C693 172 557 20 360 20 C248 20 151 78 93 179 L491 421 L491 438 C478 469 471 482 457 500 C412 558 351 585 267 585 C220 585 163 563 121 529 C61 480 27 403 27 317 C27 127 168 -13 360 -13 C510 -13 645 80 697 221 C720 283 729 335 728 421 L851 421 L851 452 Z M82 204 C68 247 62 279 62 313 C62 382 81 438 118 483 C153 526 213 554 267 554 C357 554 422 513 458 433 L82 204 Z " />
<glyph glyph-name="quotesingle" unicode="&#x27;" horiz-adv-x="175" d="M117 674 C107 601 78 528 23 439 L51 430 C108 514 142 598 149 671 L117 674 Z " />
<glyph glyph-name="parenleft" unicode="&#x28;" horiz-adv-x="221" d="M191 719 C90 616 27 468 27 336 C27 181 80 54 195 -62 L213 -39 C107 79 58 197 58 333 C58 460 112 592 206 699 L191 719 Z " />
<glyph glyph-name="parenright" unicode="&#x29;" horiz-adv-x="221" d="M31 -62 C132 41 195 188 195 320 C195 476 142 602 27 719 L9 695 C115 577 164 460 164 323 C164 197 110 64 15 -43 L31 -62 Z " />
<glyph glyph-name="asterisk" unicode="&#x2a;" horiz-adv-x="369" d="M199 711 L168 711 L173 561 L32 615 L23 586 L168 540 L76 420 L99 402 L184 527 L272 402 L295 420 L199 540 L346 586 L335 615 L193 561 L199 711 Z " />
<glyph glyph-name="plus" unicode="&#x2b;" horiz-adv-x="517" d="M44 330 L44 305 L248 305 L248 101 L274 101 L274 305 L477 305 L477 330 L274 330 L274 534 L248 534 L248 330 L44 330 Z " />
<glyph glyph-name="comma" unicode="&#x2c;" horiz-adv-x="112" d="M51 105 C39 19 12 -51 -45 -144 L-16 -153 C43 -65 74 15 83 102 L51 105 Z " />
<glyph glyph-name="hyphen" unicode="&#x2d;" horiz-adv-x="271" d="M32 250 L27 220 L239 220 L244 250 L32 250 Z " />
<glyph glyph-name="period" unicode="&#x2e;" horiz-adv-x="107" d="M55 49 C38 49 27 38 27 21 C27 4 38 -7 55 -7 C72 -7 83 4 83 21 C83 38 72 49 55 49 L55 49 Z " />
<glyph glyph-name="slash" unicode="&#x2f;" horiz-adv-x="397" d="M351 709 L16 -53 L47 -53 L382 709 L351 709 Z " />
<glyph glyph-name="zero" unicode="0" horiz-adv-x="465" d="M230 646 C105 639 29 513 29 313 C29 237 42 161 62 114 C97 35 157 -11 225 -11 C289 -11 329 9 367 62 C410 120 435 218 435 327 C435 526 353 653 230 646 L230 646 Z M229 617 C334 617 402 503 402 327 C402 255 388 173 369 126 C337 51 295 19 228 19 C127 19 61 136 61 315 C61 500 126 617 229 617 L229 617 Z " />
<glyph glyph-name="one" unicode="1" horiz-adv-x="283" d="M224 638 L209 646 C135 584 78 542 0 491 L16 467 C73 506 83 513 107 531 C166 576 171 580 192 598 L192 0 L224 0 L224 638 Z " />
<glyph glyph-name="two" unicode="2" horiz-adv-x="433" d="M428 30 L65 30 C322 287 388 379 388 476 C388 578 316 648 210 648 C148 648 98 624 55 574 L75 551 C110 596 155 619 209 619 C291 619 355 558 355 480 C355 437 338 387 310 346 C279 303 240 255 191 202 C115 119 79 81 7 13 L12 0 L421 0 L428 30 Z " />
<glyph glyph-name="three" unicode="3" horiz-adv-x="406" d="M112 348 L112 319 L179 319 C223 319 255 312 280 296 C325 269 352 220 352 167 C352 78 285 19 183 19 C119 19 70 40 23 88 L0 66 C48 14 107 -11 181 -11 C305 -11 385 61 385 172 C385 252 340 312 258 340 C326 376 360 425 360 488 C360 582 291 646 190 646 C122 646 74 623 34 573 L55 554 C91 598 133 617 193 617 C270 617 327 562 327 488 C327 443 307 404 269 375 C241 354 228 348 214 348 L112 348 Z " />
<glyph glyph-name="four" unicode="4" horiz-adv-x="467" d="M357 640 L343 645 L7 223 L13 208 L325 208 L325 0 L357 0 L357 208 L458 208 L462 236 L357 236 L357 640 Z M325 236 L51 236 L325 579 L325 236 Z " />
<glyph glyph-name="five" unicode="5" horiz-adv-x="394" d="M136 606 L360 606 L360 635 L109 635 L64 364 C83 365 100 366 115 367 C254 374 342 308 342 197 C342 89 270 19 158 19 C109 19 57 36 19 64 L0 39 C46 6 100 -11 159 -11 C285 -11 375 75 375 196 C375 254 354 305 315 341 C270 382 224 394 117 394 L111 394 C108 394 103 393 100 393 L136 606 Z " />
<glyph glyph-name="six" unicode="6" horiz-adv-x="444" d="M343 659 C151 582 36 436 25 254 C16 101 100 -11 225 -11 C345 -11 424 73 424 199 C424 314 341 398 233 392 C161 388 110 356 60 284 C65 314 70 337 75 352 C92 409 124 464 170 512 C226 571 278 605 368 638 L343 659 Z M57 242 C58 244 67 258 81 277 C116 325 168 356 224 363 C312 374 391 297 391 201 C391 88 328 19 226 19 C139 19 63 101 57 203 C56 211 57 225 57 242 L57 242 Z " />
<glyph glyph-name="seven" unicode="7" horiz-adv-x="406" d="M7 635 L7 607 L362 607 C290 469 313 514 286 462 C219 332 171 236 129 148 C106 102 93 73 62 3 L91 -11 C137 91 159 137 204 229 C236 295 196 215 327 474 L368 554 L380 577 L391 600 L403 623 L396 635 L7 635 Z " />
<glyph glyph-name="eight" unicode="8" horiz-adv-x="433" d="M255 341 C347 372 385 418 385 499 C385 583 316 646 222 646 C120 646 48 583 48 494 C48 453 60 422 86 395 C107 373 131 360 181 341 C142 328 119 318 101 306 C53 274 23 219 23 165 C23 59 101 -11 220 -11 C334 -11 412 61 412 168 C412 216 390 263 354 292 C332 310 308 322 255 341 L255 341 Z M226 353 C224 352 213 356 189 366 C164 377 159 380 147 386 C101 414 79 448 79 493 C79 570 132 617 220 617 C301 617 354 566 354 489 C354 454 339 423 311 398 C292 381 271 370 226 353 L226 353 Z M212 331 C213 331 224 327 250 316 C281 302 286 300 302 291 C358 258 380 222 380 167 C380 75 320 19 222 19 C124 19 55 79 55 163 C55 213 76 255 114 283 C139 301 159 311 212 331 L212 331 Z " />
<glyph glyph-name="nine" unicode="9" horiz-adv-x="438" d="M108 -23 C164 2 197 21 232 50 C349 144 411 266 411 402 C411 552 333 646 209 646 C104 646 20 553 20 437 C20 328 97 247 202 247 C271 247 330 279 377 342 C359 255 337 207 285 145 C229 76 168 32 79 -5 L108 -23 Z M379 378 C379 376 365 359 343 338 C307 301 253 277 207 277 C118 277 53 345 53 439 C53 540 120 617 208 617 C312 617 379 532 379 398 L379 378 Z " />
<glyph glyph-name="colon" unicode="&#x3a;" horiz-adv-x="144" d="M85 56 C68 56 57 45 57 28 C57 11 68 0 85 0 C102 0 113 11 113 28 C113 45 102 56 85 56 L85 56 Z M85 430 C68 430 57 419 57 402 C57 385 68 374 85 374 C102 374 113 385 113 402 C113 419 102 430 85 430 L85 430 Z " />
<glyph glyph-name="semicolon" unicode="&#x3b;" horiz-adv-x="144" d="M78 105 C66 19 39 -51 -18 -144 L11 -153 C70 -65 101 15 110 102 L78 105 Z M85 430 C68 430 57 419 57 402 C57 385 68 374 85 374 C102 374 113 385 113 402 C113 419 102 430 85 430 L85 430 Z " />
<glyph glyph-name="less" unicode="&#x3c;" horiz-adv-x="362" d="M326 403 L167 219 L326 35 L335 71 L203 220 L335 372 L326 403 Z M182 403 L23 219 L182 35 L190 71 L58 220 L190 372 L182 403 Z " />
<glyph glyph-name="equal" unicode="&#x3d;" horiz-adv-x="517" d="M48 399 L48 374 L472 374 L472 399 L48 399 Z M48 260 L48 235 L472 235 L472 260 L48 260 Z " />
<glyph glyph-name="greater" unicode="&#x3e;" horiz-adv-x="362" d="M36 35 L194 219 L36 403 L27 367 L159 218 L27 66 L36 35 Z M180 35 L339 219 L180 403 L171 367 L303 218 L171 66 L180 35 Z " />
<glyph glyph-name="question" unicode="&#x3f;" horiz-adv-x="351" d="M43 604 C87 631 115 639 160 636 C237 631 290 578 290 506 C290 448 276 416 226 359 C215 345 203 332 191 318 C172 296 165 287 157 276 C131 237 121 202 124 157 C124 149 125 141 126 131 L157 131 L157 138 C156 144 156 152 156 152 L156 188 C158 203 161 218 167 232 C179 258 194 279 249 340 C305 404 324 445 324 507 C324 595 258 660 162 666 C112 669 71 658 27 630 L43 604 Z M145 49 C128 49 117 38 117 21 C117 4 128 -7 145 -7 C162 -7 173 4 173 21 C173 38 162 49 145 49 L145 49 Z " />
<glyph glyph-name="at" unicode="&#x40;" horiz-adv-x="1022" d="M940 305 C940 537 764 654 547 654 C296 654 82 452 82 199 C82 -70 222 -200 490 -200 C583 -200 663 -184 748 -147 L739 -120 C655 -157 582 -172 490 -172 C244 -172 112 -48 112 199 C112 435 313 629 547 629 C750 629 910 521 910 305 C910 182 851 91 735 49 C707 39 674 31 644 30 C633 30 623 30 612 30 L674 444 C634 453 592 459 551 459 C390 459 301 301 301 156 C301 76 329 0 421 0 C486 0 556 39 589 95 L574 0 L635 0 C672 0 716 10 750 22 C878 68 940 169 940 305 L940 305 Z M639 422 L594 141 C560 87 494 29 428 29 C352 29 334 91 334 156 C334 288 409 432 557 432 C585 432 612 428 639 422 L639 422 Z " />
<glyph glyph-name="A" unicode="A" horiz-adv-x="538" d="M512 0 L549 0 L275 676 L259 676 L-12 0 L23 0 L123 252 L411 252 L512 0 Z M400 280 L135 280 L233 529 C244 556 247 566 266 619 C285 565 288 557 299 529 L400 280 Z " />
<glyph glyph-name="B" unicode="B" horiz-adv-x="442" d="M57 5 C127 -3 151 -5 200 -5 C248 -5 295 5 326 22 C383 53 420 114 420 176 C420 230 404 271 371 304 C346 329 322 341 271 354 C339 397 369 443 369 502 C369 605 294 663 164 663 C144 663 112 661 84 659 C78 658 69 657 57 656 L57 5 Z M91 629 C118 631 152 633 162 633 C215 633 249 625 280 606 C317 582 338 537 333 490 C328 446 302 402 265 377 C250 367 236 361 227 361 L91 361 L91 629 Z M91 332 L191 332 C237 332 276 325 302 312 C356 286 385 239 385 177 C385 132 364 86 332 63 C302 40 253 26 205 26 C152 26 144 27 91 34 L91 332 Z " />
<glyph glyph-name="C" unicode="C" horiz-adv-x="554" d="M546 618 C479 655 423 669 351 669 C264 669 173 630 114 567 C59 508 27 422 27 332 C27 239 55 158 109 96 C166 30 259 -13 345 -13 C435 -13 501 5 552 43 L539 72 C483 34 416 16 348 19 C181 27 62 157 62 331 C62 508 170 628 338 638 C403 642 450 630 532 588 L546 618 Z " />
<glyph glyph-name="D" unicode="D" horiz-adv-x="609" d="M57 5 C113 -3 134 -5 196 -5 C293 -5 385 16 440 50 C531 107 580 204 580 330 C580 425 539 521 473 578 C406 635 315 661 176 661 C156 661 119 659 92 656 C84 655 72 654 57 652 L57 5 Z M91 626 C126 630 151 631 172 631 C324 631 425 592 486 511 C522 464 545 394 545 330 C545 238 519 167 465 112 C408 53 322 26 197 26 C156 26 131 28 91 34 L91 626 Z " />
<glyph glyph-name="E" unicode="E" horiz-adv-x="422" d="M382 656 L57 656 L57 0 L413 0 L419 31 L91 31 L91 332 L348 332 L348 362 L91 362 L91 626 L382 626 L382 656 Z " />
<glyph glyph-name="F" unicode="F" horiz-adv-x="367" d="M361 656 L57 656 L57 0 L91 0 L91 319 L332 319 L332 349 L91 349 L91 626 L361 626 L361 656 Z " />
<glyph glyph-name="G" unicode="G" horiz-adv-x="647" d="M595 595 C516 649 451 669 361 669 C284 669 208 643 151 597 C76 536 27 434 27 337 C27 135 171 -13 366 -13 C452 -13 517 4 595 49 L595 313 L376 313 L369 283 L561 283 L561 67 C493 30 449 19 369 19 C196 19 62 157 62 335 C62 509 189 638 359 638 C441 638 509 615 577 564 L595 595 Z " />
<glyph glyph-name="H" unicode="H" horiz-adv-x="604" d="M91 361 L91 656 L57 656 L57 0 L91 0 L91 331 L514 331 L514 0 L548 0 L548 656 L514 656 L514 361 L91 361 Z " />
<glyph glyph-name="I" unicode="I" horiz-adv-x="148" d="M91 656 L57 656 L57 0 L91 0 L91 656 Z " />
<glyph glyph-name="J" unicode="J" horiz-adv-x="299" d="M244 656 L210 656 L210 210 C210 118 207 92 191 63 C177 35 145 20 104 20 C70 20 40 29 12 46 L2 13 C31 -3 67 -11 102 -11 C149 -11 191 7 214 36 C236 64 244 99 244 175 L244 656 Z " />
<glyph glyph-name="K" unicode="K" horiz-adv-x="481" d="M57 656 L57 0 L91 0 L91 266 L162 337 L448 0 L492 0 L186 359 L479 651 L445 661 L91 307 L91 656 L57 656 Z " />
<glyph glyph-name="L" unicode="L" horiz-adv-x="394" d="M91 656 L57 656 L57 0 L386 0 L393 31 L91 31 L91 656 Z " />
<glyph glyph-name="M" unicode="M" horiz-adv-x="757" d="M664 676 L649 676 L448 203 C432 166 419 134 407 105 C404 97 412 116 381 38 L357 95 C353 103 349 112 345 124 C335 146 323 174 310 203 L98 676 L83 676 L16 0 L48 0 L89 438 C93 481 96 518 102 597 C129 528 138 505 168 438 L364 0 L394 0 L581 438 C609 505 613 514 644 597 C651 518 654 482 659 438 L708 0 L742 0 L664 676 Z " />
<glyph glyph-name="N" unicode="N" horiz-adv-x="643" d="M57 658 L57 0 L88 0 L88 445 C88 473 88 491 87 546 L86 573 L86 600 C125 548 135 535 179 481 L571 -7 L586 0 L586 656 L555 656 L555 213 C555 185 555 167 556 112 L557 85 L557 58 C517 111 506 126 465 177 L74 663 L57 658 Z " />
<glyph glyph-name="O" unicode="O" horiz-adv-x="707" d="M351 669 C168 669 27 524 27 335 C27 254 46 185 83 129 C141 40 243 -13 354 -13 C547 -13 679 127 679 332 C679 531 545 669 351 669 L351 669 Z M352 638 C423 638 499 609 550 562 C610 508 644 424 644 333 C644 140 532 19 353 19 C282 19 208 49 155 100 C94 158 62 238 62 335 C62 515 180 638 352 638 L352 638 Z " />
<glyph glyph-name="P" unicode="P" horiz-adv-x="431" d="M57 0 L91 0 L91 294 C124 293 139 293 160 293 L182 293 C237 293 292 305 324 324 C377 357 412 419 412 482 C412 535 395 578 361 611 C325 647 273 663 193 663 C166 663 129 661 95 658 C87 657 74 656 57 655 L57 0 Z M91 628 C133 632 156 633 181 633 C237 633 285 623 313 606 C353 581 378 534 378 486 C378 382 307 323 182 323 C145 323 134 323 91 326 L91 628 Z " />
<glyph glyph-name="Q" unicode="Q" horiz-adv-x="707" d="M833 -122 C748 -110 693 -93 625 -58 C581 -35 558 -18 510 24 C618 78 679 189 679 332 C679 530 544 669 351 669 C271 669 198 643 141 593 C71 533 27 432 27 335 C27 252 45 186 83 129 C141 40 243 -13 354 -13 C400 -13 439 -6 478 9 C567 -76 658 -123 787 -151 L833 -122 Z M352 638 C423 638 499 609 550 562 C610 508 644 424 644 333 C644 140 532 19 353 19 C282 19 208 49 155 100 C94 158 62 238 62 335 C62 515 180 638 352 638 L352 638 Z " />
<glyph glyph-name="R" unicode="R" horiz-adv-x="472" d="M57 0 L91 0 L91 303 L233 303 L439 0 L482 0 L265 310 C293 320 309 327 326 338 C375 370 405 426 405 485 C405 594 325 663 200 663 C141 663 126 662 57 653 L57 0 Z M91 628 C130 632 147 633 172 633 L199 633 C242 633 288 620 313 602 C348 576 371 531 371 488 C371 418 331 362 262 338 C249 334 244 333 228 333 L91 333 L91 628 Z " />
<glyph glyph-name="S" unicode="S" horiz-adv-x="403" d="M363 615 C318 651 271 669 221 669 C121 669 46 599 46 506 C46 469 56 438 76 411 C94 387 117 371 174 345 C244 314 278 294 302 273 C330 248 344 211 344 162 C344 119 321 73 289 49 C262 29 224 18 183 18 C120 18 71 40 16 93 L2 58 C62 7 112 -13 180 -13 C299 -13 379 61 379 171 C379 256 346 301 247 349 L190 376 C168 387 150 397 136 405 C99 429 81 463 81 509 C81 586 137 638 219 638 C262 638 306 619 345 583 L363 615 Z " />
<glyph glyph-name="T" unicode="T" horiz-adv-x="529" d="M282 626 L524 626 L524 656 L5 656 L5 626 L248 626 L248 0 L282 0 L282 626 Z " />
<glyph glyph-name="U" unicode="U" horiz-adv-x="609" d="M55 656 L55 266 C55 173 60 135 78 101 C115 33 203 -13 297 -13 C374 -13 431 4 478 40 C537 87 555 140 555 265 L555 656 L521 656 L521 265 C521 179 512 133 488 99 C452 46 390 19 304 19 C253 19 195 37 157 66 C103 106 89 148 89 264 L89 656 L55 656 Z " />
<glyph glyph-name="V" unicode="V" horiz-adv-x="561" d="M34 661 L2 651 L267 0 L294 0 L557 651 L527 661 L343 202 C319 141 305 104 282 40 C262 97 262 98 220 202 L34 661 Z " />
<glyph glyph-name="W" unicode="W" horiz-adv-x="884" d="M610 42 L603 61 L596 79 C581 117 586 105 580 120 C569 150 558 177 549 201 L364 661 L333 651 L428 415 L344 208 C331 177 325 161 314 132 C297 90 308 118 279 42 C262 88 266 78 236 154 L230 170 L224 185 L218 201 L34 661 L2 651 L263 0 L291 0 L405 284 C430 349 427 341 443 378 C459 341 456 348 481 284 L594 0 L621 0 L883 651 L853 661 L671 201 C658 169 644 132 624 79 L617 61 L610 42 Z " />
<glyph glyph-name="X" unicode="X" horiz-adv-x="565" d="M283 367 L58 661 L24 651 L264 341 L2 5 L32 -5 L283 316 L529 -5 L564 5 L301 341 L545 651 L514 661 L283 367 Z " />
<glyph glyph-name="Y" unicode="Y" horiz-adv-x="513" d="M34 661 L2 651 L240 303 L240 0 L274 0 L274 303 L510 651 L480 661 L313 416 C286 377 285 376 258 328 C235 366 225 382 202 416 L34 661 Z " />
<glyph glyph-name="Z" unicode="Z" horiz-adv-x="524" d="M37 656 L37 626 L441 626 L4 12 L11 0 L512 0 L518 31 L56 31 L492 643 L485 656 L37 656 Z " />
<glyph glyph-name="bracketleft" unicode="&#x5b;" horiz-adv-x="223" d="M207 -53 L214 -25 L89 -25 L89 681 L207 681 L214 709 L57 709 L57 -53 L207 -53 Z " />
<glyph glyph-name="bracketright" unicode="&#x5d;" horiz-adv-x="223" d="M16 709 L9 681 L134 681 L134 -25 L16 -25 L9 -53 L166 -53 L166 709 L16 709 Z " />
<glyph glyph-name="asciicircum" unicode="&#x5e;" horiz-adv-x="538" d="M512 0 L549 0 L275 676 L259 676 L-12 0 L23 0 L123 252 L411 252 L512 0 Z M400 280 L135 280 L233 529 C244 556 247 566 266 619 C285 565 288 557 299 529 L400 280 Z M159 680 C142 680 131 669 131 652 C131 635 142 624 159 624 C176 624 187 635 187 652 C187 669 176 680 159 680 L159 680 Z M376 680 C359 680 348 669 348 652 C348 635 359 624 376 624 C393 624 404 635 404 652 C404 669 393 680 376 680 L376 680 Z " />
<glyph glyph-name="underscore" unicode="&#x5f;" horiz-adv-x="397" d="M0 -118 L0 -141 L397 -141 L397 -118 L0 -118 Z " />
<glyph glyph-name="grave" unicode="&#x60;" d="M-82 680 L-119 671 L32 535 L53 545 L-82 680 Z " />
<glyph glyph-name="a" unicode="a" horiz-adv-x="369" d="M41 372 C86 399 115 409 153 413 C197 417 233 406 252 382 C267 362 272 341 272 291 L272 264 C204 257 189 255 171 252 C73 234 25 191 20 116 C15 46 67 -10 136 -10 C189 -10 229 5 275 43 C277 11 299 -8 334 -8 C348 -8 354 -7 365 -4 L369 21 C362 19 355 18 350 18 C328 16 312 24 308 39 C304 51 304 57 304 99 L304 290 C304 333 301 354 294 374 C276 421 225 447 160 443 C120 440 86 429 41 403 L41 372 Z M272 69 C216 30 190 20 147 20 C90 20 49 60 52 115 C55 175 93 211 169 225 C203 231 226 234 272 238 L272 69 Z " />
<glyph glyph-name="b" unicode="b" horiz-adv-x="454" d="M54 35 C118 1 158 -10 213 -10 C334 -10 427 90 427 220 C427 348 351 437 237 443 C183 446 137 431 86 393 L86 709 L54 709 L54 35 Z M86 364 C139 403 176 416 229 413 C328 408 394 329 394 214 C394 105 316 19 217 19 C171 19 135 28 86 53 L86 364 Z " />
<glyph glyph-name="c" unicode="c" horiz-adv-x="381" d="M374 400 C332 430 290 443 236 443 C120 443 27 345 27 222 C27 83 114 -10 243 -10 C295 -10 336 3 378 33 L364 58 C320 30 288 20 243 20 C138 20 60 106 60 222 C60 333 134 413 237 413 C278 413 318 400 357 374 L374 400 Z " />
<glyph glyph-name="d" unicode="d" horiz-adv-x="463" d="M366 709 L366 411 C318 435 285 443 238 443 C122 443 33 350 27 223 C20 92 105 -10 220 -10 C282 -10 318 3 369 43 C370 11 393 -8 428 -8 C442 -8 448 -7 459 -4 L463 21 C455 19 449 18 444 18 C422 16 406 24 401 39 C398 51 398 57 398 99 L398 709 L366 709 Z M366 69 C313 30 276 17 225 20 C124 25 55 112 60 224 C65 334 138 414 234 414 C290 414 318 406 366 375 L366 69 Z " />
<glyph glyph-name="e" unicode="e" horiz-adv-x="422" d="M386 248 L400 263 C397 373 328 443 223 443 C177 443 130 425 96 393 C55 354 27 287 27 228 C27 85 110 -10 234 -10 C305 -10 354 9 400 53 L383 75 C335 34 299 20 241 20 C194 20 146 40 114 73 C77 112 60 159 60 228 C60 230 61 240 61 248 L386 248 Z M64 274 C71 301 75 314 82 329 C109 383 161 415 222 415 C304 415 360 362 368 274 L64 274 Z " />
<glyph glyph-name="f" unicode="f" horiz-adv-x="258" d="M253 433 L130 433 L130 512 C130 586 139 620 167 647 C189 668 225 681 259 681 L284 681 C286 681 290 681 295 680 L300 709 C286 711 280 711 269 711 L259 711 C217 711 173 694 145 667 C111 633 98 592 98 515 L98 433 L2 433 L2 407 L98 407 L98 0 L130 0 L130 407 L253 407 L253 433 Z " />
<glyph glyph-name="g" unicode="g" horiz-adv-x="406" d="M404 433 L243 433 C220 441 209 443 186 443 C99 443 27 371 27 284 C27 208 56 159 119 130 C69 108 54 94 52 65 C50 35 64 20 111 5 C90 -6 79 -12 67 -21 C26 -49 3 -86 0 -127 C-5 -213 79 -282 188 -282 C305 -282 389 -221 394 -133 C397 -84 376 -47 333 -24 C305 -9 276 -1 198 15 C102 34 79 44 82 68 C84 86 99 98 146 122 C161 119 174 118 184 117 C273 110 349 183 349 274 C349 331 326 376 279 409 L404 405 L404 433 Z M186 415 C261 415 317 355 317 274 C317 243 304 208 284 185 C259 157 231 146 183 146 C111 146 59 204 59 283 C59 360 112 415 186 415 L186 415 Z M229 -21 C270 -30 299 -40 315 -49 C345 -66 362 -96 362 -128 C362 -206 295 -254 189 -254 C103 -254 33 -199 33 -131 C33 -83 58 -51 135 -1 L229 -21 Z " />
<glyph glyph-name="h" unicode="h" horiz-adv-x="440" d="M356 0 L388 0 L388 287 C388 383 329 443 234 443 C178 443 133 421 87 370 L87 709 L55 709 L55 0 L87 0 L87 340 C136 393 176 414 229 414 C266 414 298 403 321 382 C346 358 356 326 356 272 L356 0 Z " />
<glyph glyph-name="i" unicode="i" horiz-adv-x="144" d="M87 433 L55 433 L55 0 L87 0 L87 433 Z M73 634 C56 634 45 623 45 606 C45 589 56 578 73 578 C90 578 101 589 101 606 C101 623 90 634 73 634 L73 634 Z " />
<glyph glyph-name="j" unicode="j" horiz-adv-x="141" d="M85 433 L53 433 L53 -40 C53 -121 48 -154 30 -185 C12 -217 -29 -237 -77 -237 C-89 -237 -93 -237 -104 -235 L-109 -265 C-94 -267 -97 -267 -78 -267 C-18 -267 32 -242 57 -200 C79 -164 85 -129 85 -39 L85 433 Z M71 634 C54 634 43 623 43 606 C43 589 54 578 71 578 C88 578 99 589 99 606 C99 623 88 634 71 634 L71 634 Z " />
<glyph glyph-name="k" unicode="k" horiz-adv-x="376" d="M54 709 L54 0 L86 0 L86 162 L157 232 L346 0 L387 0 L181 251 L365 429 L333 438 L86 200 L86 709 L54 709 Z " />
<glyph glyph-name="l" unicode="l" horiz-adv-x="141" d="M55 709 L55 0 L87 0 L87 709 L55 709 Z " />
<glyph glyph-name="m" unicode="m" horiz-adv-x="711" d="M627 0 L659 0 L659 275 C659 323 655 346 643 370 C619 418 565 446 505 443 C449 440 406 416 364 365 C337 419 297 443 233 443 C180 443 139 421 88 367 C84 402 75 425 57 443 L30 427 C53 397 59 369 59 292 L59 0 L91 0 L91 339 C133 390 177 414 226 414 C265 414 295 402 317 379 C337 357 343 336 343 283 L343 0 L375 0 L375 300 C375 318 375 324 373 339 C413 392 455 414 511 414 C555 414 599 388 616 352 C624 335 627 309 627 263 L627 0 Z " />
<glyph glyph-name="n" unicode="n" horiz-adv-x="444" d="M360 0 L392 0 L392 287 C392 383 333 443 238 443 C181 443 137 421 88 367 C86 398 75 425 57 443 L30 427 C53 397 59 369 59 292 L59 0 L91 0 L91 340 C140 393 180 414 233 414 C270 414 302 403 325 382 C350 358 360 326 360 272 L360 0 Z " />
<glyph glyph-name="o" unicode="o" horiz-adv-x="479" d="M238 442 C116 442 27 346 27 215 C27 82 115 -10 242 -10 C364 -10 450 84 450 216 C450 351 364 442 238 442 L238 442 Z M233 413 C343 413 417 335 417 217 C417 93 349 19 235 19 C139 19 60 107 60 213 C60 333 130 413 233 413 L233 413 Z " />
<glyph glyph-name="p" unicode="p" horiz-adv-x="456" d="M25 427 C52 406 57 391 57 329 L57 285 L57 -276 L89 -276 L89 19 C138 -3 166 -10 214 -10 C335 -10 429 87 429 214 C429 354 350 443 225 443 C175 443 128 425 85 391 C78 418 69 432 50 443 L25 427 Z M89 365 C141 402 173 414 221 414 C325 414 396 333 396 215 C396 103 319 20 215 20 C169 20 141 28 89 54 L89 365 Z " />
<glyph glyph-name="q" unicode="q" horiz-adv-x="456" d="M400 398 C336 432 296 443 241 443 C120 443 27 343 27 213 C27 85 103 -4 217 -10 C271 -13 317 2 368 40 L368 -276 L400 -276 L400 398 Z M368 69 C315 30 279 17 225 20 C126 25 60 104 60 219 C60 328 138 414 237 414 C283 414 319 405 368 380 L368 69 Z " />
<glyph glyph-name="r" unicode="r" horiz-adv-x="280" d="M29 427 C52 397 58 369 58 292 L58 0 L90 0 L90 323 C141 387 169 409 202 413 C224 415 242 411 274 396 L281 425 C247 439 233 443 210 443 C171 443 139 420 88 354 C85 399 76 423 56 443 L29 427 Z " />
<glyph glyph-name="s" unicode="s" horiz-adv-x="290" d="M255 405 C225 430 190 443 151 443 C87 443 34 397 31 337 C30 309 40 280 60 259 C75 243 91 233 128 217 C170 199 185 191 201 180 C225 163 237 140 237 112 C237 51 198 18 128 18 C90 18 44 39 16 70 L0 45 C33 11 81 -10 126 -10 C212 -10 269 40 269 115 C269 164 240 202 184 227 L169 233 L154 240 L138 247 C122 254 111 259 103 264 C75 283 62 304 62 336 C62 380 100 415 148 415 C180 415 202 406 243 378 L255 405 Z " />
<glyph glyph-name="t" unicode="t" horiz-adv-x="276" d="M251 433 L128 433 L134 561 L113 561 L108 509 C100 424 105 432 52 430 L0 428 L0 407 L96 407 L96 124 C96 63 99 45 113 25 C127 3 158 -10 193 -10 C225 -10 249 -5 286 9 L281 36 C251 24 228 19 195 19 C171 19 146 32 137 49 C130 63 128 81 128 126 L128 407 L251 407 L251 433 Z " />
<glyph glyph-name="u" unicode="u" horiz-adv-x="440" d="M375 433 L343 433 L343 81 C288 33 256 19 205 19 C170 19 136 31 115 51 C93 72 84 99 84 145 L84 433 L52 433 L52 148 C52 91 61 61 87 34 C115 6 156 -10 200 -10 C254 -10 290 6 345 53 C346 13 366 -8 405 -8 C419 -8 425 -7 436 -4 L440 21 C433 19 426 18 421 18 C399 16 383 24 379 39 C375 51 375 57 375 99 L375 433 Z " />
<glyph glyph-name="v" unicode="v" horiz-adv-x="374" d="M33 438 L2 428 L174 0 L200 0 L372 428 L343 438 L226 147 C222 136 213 112 208 98 C203 86 202 84 187 43 C173 84 172 85 167 98 C162 112 154 133 149 147 L33 438 Z " />
<glyph glyph-name="w" unicode="w" horiz-adv-x="611" d="M269 438 L239 428 L288 306 L225 142 C213 114 209 101 186 39 C162 106 157 119 148 143 L32 438 L2 428 L172 0 L197 0 L301 272 L408 0 L433 0 L608 428 L579 438 L460 145 C446 112 436 85 420 40 C401 95 396 111 382 145 L269 438 Z " />
<glyph glyph-name="x" unicode="x" horiz-adv-x="372" d="M189 243 L42 438 L10 428 L169 221 L2 5 L31 -5 L185 199 L338 -5 L370 5 L204 221 L366 428 L338 438 L189 243 Z " />
<glyph glyph-name="y" unicode="y" horiz-adv-x="369" d="M33 438 L3 428 L167 0 L134 -82 C91 -188 56 -232 9 -236 C-10 -238 -32 -236 -57 -229 L-62 -257 C-29 -265 -11 -267 14 -263 C76 -254 113 -212 159 -96 L367 428 L340 438 L222 141 C208 105 200 83 183 34 C170 75 159 105 146 141 L33 438 Z " />
<glyph glyph-name="z" unicode="z" horiz-adv-x="360" d="M30 433 L30 407 L293 407 L4 17 L11 0 L348 0 L355 28 L51 28 L338 418 L332 433 L30 433 Z " />
<glyph glyph-name="braceleft" unicode="&#x7b;" horiz-adv-x="707" d="M351 669 C168 669 27 524 27 335 C27 254 46 185 83 129 C141 40 243 -13 354 -13 C547 -13 679 127 679 332 C679 531 545 669 351 669 L351 669 Z M352 638 C423 638 499 609 550 562 C610 508 644 424 644 333 C644 140 532 19 353 19 C282 19 208 49 155 100 C94 158 62 238 62 335 C62 515 180 638 352 638 L352 638 Z M118 680 C101 680 90 669 90 652 C90 635 101 624 118 624 C135 624 146 635 146 652 C146 669 135 680 118 680 L118 680 Z M591 680 C574 680 563 669 563 652 C563 635 574 624 591 624 C608 624 619 635 619 652 C619 669 608 680 591 680 L591 680 Z " />
<glyph glyph-name="braceright" unicode="&#x7d;" horiz-adv-x="615" d="M57 656 L57 266 C57 173 62 135 80 101 C117 33 205 -13 299 -13 C376 -13 433 4 480 40 C539 87 557 140 557 265 L557 656 L523 656 L523 265 C523 179 514 133 490 99 C454 46 392 19 306 19 C255 19 197 37 159 66 C105 106 91 148 91 264 L91 656 L57 656 Z M207 680 C190 680 179 669 179 652 C179 635 190 624 207 624 C224 624 235 635 235 652 C235 669 224 680 207 680 L207 680 Z M410 680 C393 680 382 669 382 652 C382 635 393 624 410 624 C427 624 438 635 438 652 C438 669 427 680 410 680 L410 680 Z " />
<glyph glyph-name="asciitilde" unicode="&#x7e;" horiz-adv-x="538" d="M-12 0 L23 0 L123 252 L411 252 L512 0 L549 0 L323 558 C342 573 353 597 353 623 C353 673 318 709 270 709 C221 709 184 673 184 626 C184 600 193 578 213 560 L-12 0 Z M400 280 L135 280 L233 530 C238 542 236 538 239 545 C250 541 258 540 267 540 C277 540 284 541 294 544 C295 540 294 543 299 530 L400 280 Z M268 687 C301 687 329 658 329 624 C329 584 304 559 266 562 C233 564 208 591 208 624 C208 662 231 687 268 687 L268 687 Z " />
<glyph glyph-name="exclamdown" unicode="&#xa1;" horiz-adv-x="153" d="M84 0 L78 525 L53 525 L46 0 L84 0 Z M67 660 C50 660 39 649 39 632 C39 615 50 604 67 604 C84 604 95 615 95 632 C95 649 84 660 67 660 L67 660 Z " />
<glyph glyph-name="cent" unicode="&#xa2;" horiz-adv-x="381" d="M249 624 L221 624 L221 545 C110 537 27 442 27 324 C27 194 105 101 221 93 L221 10 L249 10 L249 92 C300 93 338 106 378 135 L364 160 C321 132 288 122 243 122 C138 122 60 208 60 324 C60 436 134 516 237 516 C278 516 316 504 357 477 L374 503 C336 530 296 543 249 545 L249 624 Z " />
<glyph glyph-name="sterling" unicode="&#xa3;" horiz-adv-x="454" d="M438 642 C416 645 409 645 389 645 C339 645 292 625 262 591 C226 552 206 505 186 417 L159 301 L43 301 L43 275 L153 275 L127 157 C118 117 101 79 82 57 C62 33 47 26 9 23 L9 0 L438 0 L443 28 L90 28 C124 56 146 98 161 167 L185 275 L366 275 L366 301 L191 301 L209 378 C224 444 242 505 256 531 C281 582 323 611 379 616 C401 618 418 617 444 610 L438 642 Z " />
<glyph glyph-name="currency" unicode="&#xa4;" horiz-adv-x="517" d="M44 131 L62 114 L125 177 C132 184 136 188 144 200 C179 170 217 156 259 156 C301 156 338 170 373 200 C382 188 386 184 393 177 L456 114 L474 131 L410 195 C403 202 399 206 388 214 C416 248 431 286 431 328 C431 371 416 409 388 443 C399 451 403 455 410 462 L474 525 L456 543 L393 480 C386 473 382 468 373 457 C338 486 301 500 259 500 C216 500 180 486 144 457 C136 468 132 473 125 480 L62 543 L44 525 L107 462 C115 455 119 451 130 443 C101 409 87 371 87 328 C87 286 101 248 130 214 C119 206 115 202 107 195 L44 131 Z M259 476 C341 476 407 410 407 328 C407 246 341 180 259 180 C177 180 111 246 111 328 C111 410 177 476 259 476 L259 476 Z " />
<glyph glyph-name="section" unicode="&#xa7;" horiz-adv-x="385" d="M338 685 C305 704 278 711 234 711 C153 711 85 645 85 567 C85 522 94 499 129 461 C108 448 98 440 85 429 C49 394 27 343 27 297 C27 222 45 194 173 65 C259 -22 278 -54 278 -109 C278 -133 267 -161 249 -181 C227 -206 200 -216 156 -216 C120 -216 85 -205 59 -185 L45 -213 C71 -232 115 -245 155 -245 C248 -245 314 -181 309 -94 C307 -53 294 -25 259 18 C320 58 355 116 358 181 C359 210 354 240 344 260 C326 298 300 329 202 426 C132 496 115 523 115 564 C115 635 163 683 233 683 C269 683 290 677 324 657 L338 685 Z M255 329 C307 274 326 236 326 183 C326 128 295 71 244 33 L125 157 C78 206 59 247 59 299 C59 328 72 366 93 396 C107 415 117 425 143 445 L255 329 Z " />
<glyph glyph-name="dieresis" unicode="&#xa8;" d="M-80 633 C-96 633 -107 622 -107 606 C-107 590 -96 579 -80 579 C-64 579 -53 590 -53 606 C-53 622 -64 633 -80 633 L-80 633 Z M84 633 C68 633 57 622 57 606 C57 590 68 579 84 579 C100 579 111 590 111 606 C111 622 100 633 84 633 L84 633 Z " />
<glyph glyph-name="guillemotleft" unicode="&#xab;" horiz-adv-x="362" d="M326 403 L167 219 L326 35 L335 71 L203 220 L335 372 L326 403 Z M182 403 L23 219 L182 35 L190 71 L58 220 L190 372 L182 403 Z " />
<glyph glyph-name="macron" unicode="&#xaf;" d="M-116 620 L-116 595 L117 595 L117 620 L-116 620 Z " />
<glyph glyph-name="acute" unicode="&#xb4;" d="M85 680 L-50 545 L-30 535 L121 671 L85 680 Z " />
<glyph glyph-name="paragraph" unicode="&#xb6;" horiz-adv-x="524" d="M243 -197 L266 -197 L266 632 L362 632 L362 -197 L385 -197 L385 632 L506 632 L506 656 L248 656 C190 656 160 651 128 636 C74 610 41 557 41 498 C41 443 71 393 120 365 C152 348 181 342 243 343 L243 -197 Z " />
<glyph glyph-name="cedilla" unicode="&#xb8;" d="M42 -44 C14 -94 -31 -164 -68 -213 L-42 -220 C12 -148 42 -103 72 -47 L42 -44 Z " />
<glyph glyph-name="guillemotright" unicode="&#xbb;" horiz-adv-x="362" d="M36 35 L194 219 L36 403 L27 367 L159 218 L27 66 L36 35 Z M180 35 L339 219 L180 403 L171 367 L303 218 L171 66 L180 35 Z " />
<glyph glyph-name="questiondown" unicode="&#xbf;" horiz-adv-x="351" d="M307 56 C263 29 235 21 190 24 C113 29 60 82 60 154 C60 212 74 244 124 301 C135 315 147 328 159 342 C178 364 185 373 193 384 C219 423 229 458 226 503 C226 511 225 519 224 529 L193 529 L193 522 C194 516 194 508 194 508 L194 472 C192 457 189 442 183 428 C171 402 156 381 101 320 C45 256 26 215 26 153 C26 65 92 0 188 -6 C238 -9 279 2 323 30 L307 56 Z M205 611 C222 611 233 622 233 639 C233 656 222 667 205 667 C188 667 177 656 177 639 C177 622 188 611 205 611 L205 611 Z " />
<glyph glyph-name="Agrave" unicode="&#xc0;" horiz-adv-x="538" d="M512 0 L549 0 L275 676 L259 676 L-12 0 L23 0 L123 252 L411 252 L512 0 Z M400 280 L135 280 L233 529 C244 556 247 566 266 619 C285 565 288 557 299 529 L400 280 Z M185 821 L148 813 L299 676 L320 686 L185 821 Z " />
<glyph glyph-name="Aacute" unicode="&#xc1;" horiz-adv-x="538" d="M512 0 L549 0 L275 676 L259 676 L-12 0 L23 0 L123 252 L411 252 L512 0 Z M400 280 L135 280 L233 529 C244 556 247 566 266 619 C285 565 288 557 299 529 L400 280 Z M351 821 L216 686 L237 676 L387 813 L351 821 Z " />
<glyph glyph-name="Acircumflex" unicode="&#xc2;" horiz-adv-x="538" d="M512 0 L549 0 L275 676 L259 676 L-12 0 L23 0 L123 252 L411 252 L512 0 Z M400 280 L135 280 L233 529 C244 556 247 566 266 619 C285 565 288 557 299 529 L400 280 Z M168 676 L265 799 L361 676 L388 688 L280 821 L251 821 L146 688 L168 676 Z " />
<glyph glyph-name="Atilde" unicode="&#xc3;" horiz-adv-x="538" d="M512 0 L549 0 L275 676 L259 676 L-12 0 L23 0 L123 252 L411 252 L512 0 Z M400 280 L135 280 L233 529 C244 556 247 566 266 619 C285 565 288 557 299 529 L400 280 Z M384 794 C379 755 359 728 332 727 C316 726 300 735 273 761 C245 787 227 796 204 795 C167 793 144 767 130 710 L150 703 C161 747 179 769 204 769 C221 769 235 761 259 738 C288 709 303 702 329 702 C369 702 397 735 406 791 L384 794 Z " />
<glyph glyph-name="Adieresis" unicode="&#xc4;" horiz-adv-x="538" d="M512 0 L549 0 L275 676 L259 676 L-12 0 L23 0 L123 252 L411 252 L512 0 Z M400 280 L135 280 L233 529 C244 556 247 566 266 619 C285 565 288 557 299 529 L400 280 Z M186 774 C170 774 159 763 159 747 C159 731 170 720 186 720 C202 720 213 731 213 747 C213 763 202 774 186 774 L186 774 Z M350 774 C334 774 323 763 323 747 C323 731 334 720 350 720 C366 720 377 731 377 747 C377 763 366 774 350 774 L350 774 Z " />
<glyph glyph-name="Aring" unicode="&#xc5;" horiz-adv-x="538" d="M-12 0 L23 0 L123 252 L411 252 L512 0 L549 0 L278 670 C322 677 347 705 347 748 C347 795 314 829 268 829 C222 829 187 795 187 750 C187 705 212 676 257 669 L-12 0 Z M400 280 L135 280 L233 530 C244 557 248 568 266 619 C285 567 288 557 299 530 L400 280 Z M267 808 C298 808 324 781 324 748 C324 711 300 688 265 690 C234 692 210 717 210 748 C210 785 232 808 267 808 L267 808 Z " />
<glyph glyph-name="AE" unicode="&#xc6;" horiz-adv-x="818" d="M454 269 L454 0 L809 0 L815 30 L488 30 L488 331 L745 331 L745 361 L488 361 L488 625 L779 625 L779 656 L434 656 L-12 0 L27 0 L209 269 L454 269 Z M454 299 L228 299 L454 632 L454 299 Z " />
<glyph glyph-name="Ccedilla" unicode="&#xc7;" horiz-adv-x="554" d="M546 618 C479 655 423 669 351 669 C264 669 173 630 114 567 C59 508 27 422 27 332 C27 239 55 158 109 96 C166 30 259 -13 345 -13 C435 -13 501 5 552 43 L539 72 C483 34 416 16 348 19 C181 27 62 157 62 331 C62 508 170 628 338 638 C403 642 450 630 532 588 L546 618 Z M319 -44 C291 -94 245 -164 209 -213 L235 -220 C289 -148 318 -103 349 -47 L319 -44 Z " />
<glyph glyph-name="Egrave" unicode="&#xc8;" horiz-adv-x="422" d="M382 656 L57 656 L57 0 L413 0 L419 31 L91 31 L91 332 L348 332 L348 362 L91 362 L91 626 L382 626 L382 656 Z M130 821 L93 813 L243 676 L264 686 L130 821 Z " />
<glyph glyph-name="Eacute" unicode="&#xc9;" horiz-adv-x="422" d="M382 656 L57 656 L57 0 L413 0 L419 31 L91 31 L91 332 L348 332 L348 362 L91 362 L91 626 L382 626 L382 656 Z M296 821 L161 686 L181 676 L332 813 L296 821 Z " />
<glyph glyph-name="Ecircumflex" unicode="&#xca;" horiz-adv-x="422" d="M382 656 L57 656 L57 0 L413 0 L419 31 L91 31 L91 332 L348 332 L348 362 L91 362 L91 626 L382 626 L382 656 Z M112 676 L210 799 L306 676 L332 688 L225 821 L196 821 L90 688 L112 676 Z " />
<glyph glyph-name="Edieresis" unicode="&#xcb;" horiz-adv-x="422" d="M382 656 L57 656 L57 0 L413 0 L419 31 L91 31 L91 332 L348 332 L348 362 L91 362 L91 626 L382 626 L382 656 Z M131 774 C115 774 104 763 104 747 C104 731 115 720 131 720 C147 720 158 731 158 747 C158 763 147 774 131 774 L131 774 Z M295 774 C279 774 268 763 268 747 C268 731 279 720 295 720 C311 720 322 731 322 747 C322 763 311 774 295 774 L295 774 Z " />
<glyph glyph-name="Igrave" unicode="&#xcc;" horiz-adv-x="148" d="M91 656 L57 656 L57 0 L91 0 L91 656 Z M-8 821 L-45 813 L106 676 L127 686 L-8 821 Z " />
<glyph glyph-name="Iacute" unicode="&#xcd;" horiz-adv-x="148" d="M91 656 L57 656 L57 0 L91 0 L91 656 Z M159 821 L24 686 L44 676 L195 813 L159 821 Z " />
<glyph glyph-name="Icircumflex" unicode="&#xce;" horiz-adv-x="148" d="M91 656 L57 656 L57 0 L91 0 L91 656 Z M-25 676 L72 799 L169 676 L195 688 L87 821 L59 821 L-47 688 L-25 676 Z " />
<glyph glyph-name="Idieresis" unicode="&#xcf;" horiz-adv-x="148" d="M91 656 L57 656 L57 0 L91 0 L91 656 Z M-6 774 C-22 774 -33 763 -33 747 C-33 731 -22 720 -6 720 C10 720 21 731 21 747 C21 763 10 774 -6 774 L-6 774 Z M158 774 C142 774 131 763 131 747 C131 731 142 720 158 720 C174 720 185 731 185 747 C185 763 174 774 158 774 L158 774 Z " />
<glyph glyph-name="Ntilde" unicode="&#xd1;" horiz-adv-x="643" d="M57 658 L57 0 L88 0 L88 445 C88 473 88 491 87 546 L86 573 L86 600 C125 548 135 535 179 481 L571 -7 L586 0 L586 656 L555 656 L555 213 C555 185 555 167 556 112 L557 85 L557 58 C517 111 506 126 465 177 L74 663 L57 658 Z M439 794 C434 755 414 728 387 727 C371 726 355 735 328 761 C300 787 282 796 259 795 C222 793 199 767 185 710 L205 703 C216 747 235 769 259 769 C276 769 290 761 314 738 C344 709 358 702 384 702 C424 702 452 735 461 791 L439 794 Z " />
<glyph glyph-name="Ograve" unicode="&#xd2;" horiz-adv-x="707" d="M351 669 C168 669 27 524 27 335 C27 254 46 185 83 129 C141 40 243 -13 354 -13 C547 -13 679 127 679 332 C679 531 545 669 351 669 L351 669 Z M352 638 C423 638 499 609 550 562 C610 508 644 424 644 333 C644 140 532 19 353 19 C282 19 208 49 155 100 C94 158 62 238 62 335 C62 515 180 638 352 638 L352 638 Z M271 821 L234 813 L385 676 L406 686 L271 821 Z " />
<glyph glyph-name="Oacute" unicode="&#xd3;" horiz-adv-x="707" d="M351 669 C168 669 27 524 27 335 C27 254 46 185 83 129 C141 40 243 -13 354 -13 C547 -13 679 127 679 332 C679 531 545 669 351 669 L351 669 Z M352 638 C423 638 499 609 550 562 C610 508 644 424 644 333 C644 140 532 19 353 19 C282 19 208 49 155 100 C94 158 62 238 62 335 C62 515 180 638 352 638 L352 638 Z M438 821 L303 686 L323 676 L474 813 L438 821 Z " />
<glyph glyph-name="Ocircumflex" unicode="&#xd4;" horiz-adv-x="707" d="M351 669 C168 669 27 524 27 335 C27 254 46 185 83 129 C141 40 243 -13 354 -13 C547 -13 679 127 679 332 C679 531 545 669 351 669 L351 669 Z M352 638 C423 638 499 609 550 562 C610 508 644 424 644 333 C644 140 532 19 353 19 C282 19 208 49 155 100 C94 158 62 238 62 335 C62 515 180 638 352 638 L352 638 Z M254 676 L351 799 L448 676 L474 688 L367 821 L338 821 L232 688 L254 676 Z " />
<glyph glyph-name="Otilde" unicode="&#xd5;" horiz-adv-x="707" d="M351 669 C168 669 27 524 27 335 C27 254 46 185 83 129 C141 40 243 -13 354 -13 C547 -13 679 127 679 332 C679 531 545 669 351 669 L351 669 Z M352 638 C423 638 499 609 550 562 C610 508 644 424 644 333 C644 140 532 19 353 19 C282 19 208 49 155 100 C94 158 62 238 62 335 C62 515 180 638 352 638 L352 638 Z M471 794 C466 755 445 728 419 727 C402 726 386 735 360 761 C332 787 313 796 290 795 C253 793 231 767 216 710 L237 703 C248 747 266 769 291 769 C307 769 322 761 346 738 C375 709 390 702 415 702 C455 702 484 735 493 791 L471 794 Z " />
<glyph glyph-name="Odieresis" unicode="&#xd6;" horiz-adv-x="707" d="M351 669 C168 669 27 524 27 335 C27 254 46 185 83 129 C141 40 243 -13 354 -13 C547 -13 679 127 679 332 C679 531 545 669 351 669 L351 669 Z M352 638 C423 638 499 609 550 562 C610 508 644 424 644 333 C644 140 532 19 353 19 C282 19 208 49 155 100 C94 158 62 238 62 335 C62 515 180 638 352 638 L352 638 Z M273 774 C257 774 246 763 246 747 C246 731 257 720 273 720 C289 720 300 731 300 747 C300 763 289 774 273 774 L273 774 Z M437 774 C421 774 410 763 410 747 C410 731 421 720 437 720 C453 720 464 731 464 747 C464 763 453 774 437 774 L437 774 Z " />
<glyph glyph-name="multiply" unicode="&#xd7;" horiz-adv-x="517" d="M92 504 L74 486 L243 318 L74 149 L92 131 L261 300 L429 131 L447 149 L278 318 L447 486 L429 504 L261 335 L92 504 Z " />
<glyph glyph-name="Oslash" unicode="&#xd8;" horiz-adv-x="707" d="M548 609 C487 650 426 669 351 669 C167 669 27 524 27 335 C27 218 64 130 140 65 L82 -13 L108 -20 L160 50 C217 9 285 -13 354 -13 C547 -13 679 126 679 332 C679 438 638 534 568 594 L624 669 L598 676 L548 609 Z M162 93 C96 153 62 234 62 335 C62 515 180 638 352 638 C409 638 477 616 527 581 L162 93 Z M546 566 C608 511 644 426 644 333 C644 140 532 19 353 19 C295 19 230 41 181 78 L546 566 Z " />
<glyph glyph-name="Ugrave" unicode="&#xd9;" horiz-adv-x="609" d="M55 656 L55 266 C55 173 60 135 78 101 C115 33 203 -13 297 -13 C374 -13 431 4 478 40 C537 87 555 140 555 265 L555 656 L521 656 L521 265 C521 179 512 133 488 99 C452 46 390 19 304 19 C253 19 195 37 157 66 C103 106 89 148 89 264 L89 656 L55 656 Z M223 821 L186 813 L337 676 L358 686 L223 821 Z " />
<glyph glyph-name="Uacute" unicode="&#xda;" horiz-adv-x="609" d="M55 656 L55 266 C55 173 60 135 78 101 C115 33 203 -13 297 -13 C374 -13 431 4 478 40 C537 87 555 140 555 265 L555 656 L521 656 L521 265 C521 179 512 133 488 99 C452 46 390 19 304 19 C253 19 195 37 157 66 C103 106 89 148 89 264 L89 656 L55 656 Z M390 821 L255 686 L275 676 L426 813 L390 821 Z " />
<glyph glyph-name="Ucircumflex" unicode="&#xdb;" horiz-adv-x="609" d="M55 656 L55 266 C55 173 60 135 78 101 C115 33 203 -13 297 -13 C374 -13 431 4 478 40 C537 87 555 140 555 265 L555 656 L521 656 L521 265 C521 179 512 133 488 99 C452 46 390 19 304 19 C253 19 195 37 157 66 C103 106 89 148 89 264 L89 656 L55 656 Z M206 676 L303 799 L400 676 L426 688 L318 821 L290 821 L184 688 L206 676 Z " />
<glyph glyph-name="Udieresis" unicode="&#xdc;" horiz-adv-x="609" d="M55 656 L55 266 C55 173 60 135 78 101 C115 33 203 -13 297 -13 C374 -13 431 4 478 40 C537 87 555 140 555 265 L555 656 L521 656 L521 265 C521 179 512 133 488 99 C452 46 390 19 304 19 C253 19 195 37 157 66 C103 106 89 148 89 264 L89 656 L55 656 Z M225 774 C209 774 198 763 198 747 C198 731 209 720 225 720 C241 720 252 731 252 747 C252 763 241 774 225 774 L225 774 Z M389 774 C373 774 362 763 362 747 C362 731 373 720 389 720 C405 720 416 731 416 747 C416 763 405 774 389 774 L389 774 Z " />
<glyph glyph-name="Yacute" unicode="&#xdd;" horiz-adv-x="513" d="M34 661 L2 651 L240 303 L240 0 L274 0 L274 303 L510 651 L480 661 L313 416 C286 377 285 376 258 328 C235 366 225 382 202 416 L34 661 Z M341 821 L206 686 L227 676 L377 813 L341 821 Z " />
<glyph glyph-name="germandbls" unicode="&#xdf;" horiz-adv-x="419" d="M55 0 L87 0 L87 445 C87 528 92 558 113 590 C135 625 176 647 218 647 C284 647 328 609 331 549 C334 498 312 465 246 417 C193 379 178 358 178 323 C178 283 195 264 261 229 C294 211 312 201 322 194 C352 172 365 151 367 120 C371 60 325 17 260 21 C221 23 181 44 151 76 L134 51 C170 13 214 -7 262 -7 C345 -7 404 48 400 121 C398 157 385 183 358 206 C341 219 330 227 274 256 C223 284 208 299 207 323 C206 347 219 365 263 397 C337 450 362 488 362 546 C362 624 306 675 220 675 C178 675 133 655 103 624 C66 585 55 544 55 449 L55 0 Z " />
<glyph glyph-name="agrave" unicode="&#xe0;" horiz-adv-x="369" d="M41 372 C86 399 115 409 153 413 C197 417 233 406 252 382 C267 362 272 341 272 291 L272 264 C204 257 189 255 171 252 C73 234 25 191 20 116 C15 46 67 -10 136 -10 C189 -10 229 5 275 43 C277 11 299 -8 334 -8 C348 -8 354 -7 365 -4 L369 21 C362 19 355 18 350 18 C328 16 312 24 308 39 C304 51 304 57 304 99 L304 290 C304 333 301 354 294 374 C276 421 225 447 160 443 C120 440 86 429 41 403 L41 372 Z M272 69 C216 30 190 20 147 20 C90 20 49 60 52 115 C55 175 93 211 169 225 C203 231 226 234 272 238 L272 69 Z M98 680 L61 671 L212 535 L233 545 L98 680 Z " />
<glyph glyph-name="aacute" unicode="&#xe1;" horiz-adv-x="369" d="M41 372 C86 399 115 409 153 413 C197 417 233 406 252 382 C267 362 272 341 272 291 L272 264 C204 257 189 255 171 252 C73 234 25 191 20 116 C15 46 67 -10 136 -10 C189 -10 229 5 275 43 C277 11 299 -8 334 -8 C348 -8 354 -7 365 -4 L369 21 C362 19 355 18 350 18 C328 16 312 24 308 39 C304 51 304 57 304 99 L304 290 C304 333 301 354 294 374 C276 421 225 447 160 443 C120 440 86 429 41 403 L41 372 Z M272 69 C216 30 190 20 147 20 C90 20 49 60 52 115 C55 175 93 211 169 225 C203 231 226 234 272 238 L272 69 Z M264 680 L129 545 L149 535 L300 671 L264 680 Z " />
<glyph glyph-name="acircumflex" unicode="&#xe2;" horiz-adv-x="369" d="M41 372 C86 399 115 409 153 413 C197 417 233 406 252 382 C267 362 272 341 272 291 L272 264 C204 257 189 255 171 252 C73 234 25 191 20 116 C15 46 67 -10 136 -10 C189 -10 229 5 275 43 C277 11 299 -8 334 -8 C348 -8 354 -7 365 -4 L369 21 C362 19 355 18 350 18 C328 16 312 24 308 39 C304 51 304 57 304 99 L304 290 C304 333 301 354 294 374 C276 421 225 447 160 443 C120 440 86 429 41 403 L41 372 Z M272 69 C216 30 190 20 147 20 C90 20 49 60 52 115 C55 175 93 211 169 225 C203 231 226 234 272 238 L272 69 Z M81 535 L178 658 L275 535 L301 547 L193 680 L165 680 L59 547 L81 535 Z " />
<glyph glyph-name="atilde" unicode="&#xe3;" horiz-adv-x="369" d="M41 372 C86 399 115 409 153 413 C197 417 233 406 252 382 C267 362 272 341 272 291 L272 264 C204 257 189 255 171 252 C73 234 25 191 20 116 C15 46 67 -10 136 -10 C189 -10 229 5 275 43 C277 11 299 -8 334 -8 C348 -8 354 -7 365 -4 L369 21 C362 19 355 18 350 18 C328 16 312 24 308 39 C304 51 304 57 304 99 L304 290 C304 333 301 354 294 374 C276 421 225 447 160 443 C120 440 86 429 41 403 L41 372 Z M272 69 C216 30 190 20 147 20 C90 20 49 60 52 115 C55 175 93 211 169 225 C203 231 226 234 272 238 L272 69 Z M298 653 C292 613 272 587 246 586 C229 585 213 594 186 620 C158 646 140 655 117 654 C80 652 57 626 43 568 L64 562 C74 605 93 628 117 628 C134 628 148 620 172 597 C202 568 216 561 242 561 C282 561 310 593 320 649 L298 653 Z " />
<glyph glyph-name="adieresis" unicode="&#xe4;" horiz-adv-x="369" d="M41 372 C86 399 115 409 153 413 C197 417 233 406 252 382 C267 362 272 341 272 291 L272 264 C204 257 189 255 171 252 C73 234 25 191 20 116 C15 46 67 -10 136 -10 C189 -10 229 5 275 43 C277 11 299 -8 334 -8 C348 -8 354 -7 365 -4 L369 21 C362 19 355 18 350 18 C328 16 312 24 308 39 C304 51 304 57 304 99 L304 290 C304 333 301 354 294 374 C276 421 225 447 160 443 C120 440 86 429 41 403 L41 372 Z M272 69 C216 30 190 20 147 20 C90 20 49 60 52 115 C55 175 93 211 169 225 C203 231 226 234 272 238 L272 69 Z M99 633 C83 633 72 622 72 606 C72 590 83 579 99 579 C115 579 126 590 126 606 C126 622 115 633 99 633 L99 633 Z M263 633 C247 633 236 622 236 606 C236 590 247 579 263 579 C279 579 290 590 290 606 C290 622 279 633 263 633 L263 633 Z " />
<glyph glyph-name="aring" unicode="&#xe5;" horiz-adv-x="369" d="M41 372 C86 399 115 409 153 413 C197 417 233 406 252 382 C267 362 272 341 272 291 L272 264 C204 257 189 255 171 252 C73 234 25 191 20 116 C15 46 67 -10 136 -10 C189 -10 229 5 275 43 C277 11 299 -8 334 -8 C348 -8 354 -7 365 -4 L369 21 C362 19 355 18 350 18 C328 16 312 24 308 39 C304 51 304 57 304 99 L304 290 C304 333 301 354 294 374 C276 421 225 447 160 443 C120 440 86 429 41 403 L41 372 Z M272 69 C216 30 190 20 147 20 C90 20 49 60 52 115 C55 175 93 211 169 225 C203 231 226 234 272 238 L272 69 Z M182 687 C136 687 100 653 100 608 C100 561 133 527 179 527 C227 527 261 560 261 606 C261 653 228 687 182 687 L182 687 Z M180 666 C212 666 238 639 238 606 C238 569 214 546 179 548 C147 550 123 575 123 606 C123 643 145 666 180 666 L180 666 Z " />
<glyph glyph-name="ae" unicode="&#xe6;" horiz-adv-x="675" d="M50 379 C88 401 122 411 162 414 C245 420 291 374 285 291 C285 284 284 278 282 265 C195 256 193 256 174 253 C75 235 24 190 20 116 C16 42 66 -10 143 -10 C218 -10 264 10 325 69 C364 18 421 -10 487 -10 C557 -10 606 9 652 53 L635 75 C587 34 551 20 493 20 C446 20 398 40 366 73 C328 112 312 159 312 228 C312 229 313 240 313 248 L638 248 L652 263 C649 373 580 443 475 443 C405 443 329 396 310 341 C306 406 249 447 169 443 C126 441 89 431 50 409 L50 379 Z M312 90 C253 38 212 20 151 20 C90 20 49 60 52 115 C56 180 95 212 189 228 C220 233 246 236 280 239 C279 234 279 231 279 228 C277 182 289 129 312 90 L312 90 Z M316 274 C323 301 327 314 334 329 C361 383 413 415 474 415 C556 415 612 362 620 274 L316 274 Z " />
<glyph glyph-name="ccedilla" unicode="&#xe7;" horiz-adv-x="381" d="M374 400 C332 430 290 443 236 443 C120 443 27 345 27 222 C27 83 114 -10 243 -10 C295 -10 336 3 378 33 L364 58 C320 30 288 20 243 20 C138 20 60 106 60 222 C60 333 134 413 237 413 C278 413 318 400 357 374 L374 400 Z M232 -44 C204 -94 158 -164 122 -213 L148 -220 C202 -148 231 -103 262 -47 L232 -44 Z " />
<glyph glyph-name="egrave" unicode="&#xe8;" horiz-adv-x="422" d="M386 248 L400 263 C397 373 328 443 223 443 C177 443 130 425 96 393 C55 354 27 287 27 228 C27 85 110 -10 234 -10 C305 -10 354 9 400 53 L383 75 C335 34 299 20 241 20 C194 20 146 40 114 73 C77 112 60 159 60 228 C60 230 61 240 61 248 L386 248 Z M64 274 C71 301 75 314 82 329 C109 383 161 415 222 415 C304 415 360 362 368 274 L64 274 Z M129 680 L92 671 L243 535 L264 545 L129 680 Z " />
<glyph glyph-name="eacute" unicode="&#xe9;" horiz-adv-x="422" d="M386 248 L400 263 C397 373 328 443 223 443 C177 443 130 425 96 393 C55 354 27 287 27 228 C27 85 110 -10 234 -10 C305 -10 354 9 400 53 L383 75 C335 34 299 20 241 20 C194 20 146 40 114 73 C77 112 60 159 60 228 C60 230 61 240 61 248 L386 248 Z M64 274 C71 301 75 314 82 329 C109 383 161 415 222 415 C304 415 360 362 368 274 L64 274 Z M296 680 L161 545 L181 535 L332 671 L296 680 Z " />
<glyph glyph-name="ecircumflex" unicode="&#xea;" horiz-adv-x="422" d="M386 248 L400 263 C397 373 328 443 223 443 C177 443 130 425 96 393 C55 354 27 287 27 228 C27 85 110 -10 234 -10 C305 -10 354 9 400 53 L383 75 C335 34 299 20 241 20 C194 20 146 40 114 73 C77 112 60 159 60 228 C60 230 61 240 61 248 L386 248 Z M64 274 C71 301 75 314 82 329 C109 383 161 415 222 415 C304 415 360 362 368 274 L64 274 Z M112 535 L209 658 L306 535 L332 547 L224 680 L196 680 L90 547 L112 535 Z " />
<glyph glyph-name="edieresis" unicode="&#xeb;" horiz-adv-x="422" d="M386 248 L400 263 C397 373 328 443 223 443 C177 443 130 425 96 393 C55 354 27 287 27 228 C27 85 110 -10 234 -10 C305 -10 354 9 400 53 L383 75 C335 34 299 20 241 20 C194 20 146 40 114 73 C77 112 60 159 60 228 C60 230 61 240 61 248 L386 248 Z M64 274 C71 301 75 314 82 329 C109 383 161 415 222 415 C304 415 360 362 368 274 L64 274 Z M131 633 C115 633 104 622 104 606 C104 590 115 579 131 579 C147 579 158 590 158 606 C158 622 147 633 131 633 L131 633 Z M295 633 C279 633 268 622 268 606 C268 590 279 579 295 579 C311 579 322 590 322 606 C322 622 311 633 295 633 L295 633 Z " />
<glyph glyph-name="igrave" unicode="&#xec;" horiz-adv-x="141" d="M87 433 L55 433 L55 0 L87 0 L87 433 Z M-11 680 L-48 671 L103 535 L124 545 L-11 680 Z " />
<glyph glyph-name="iacute" unicode="&#xed;" horiz-adv-x="141" d="M87 433 L55 433 L55 0 L87 0 L87 433 Z M156 680 L21 545 L41 535 L192 671 L156 680 Z " />
<glyph glyph-name="icircumflex" unicode="&#xee;" horiz-adv-x="141" d="M87 433 L55 433 L55 0 L87 0 L87 433 Z M-28 535 L69 658 L166 535 L192 547 L84 680 L56 680 L-50 547 L-28 535 Z " />
<glyph glyph-name="idieresis" unicode="&#xef;" horiz-adv-x="141" d="M87 433 L55 433 L55 0 L87 0 L87 433 Z M-9 633 C-25 633 -36 622 -36 606 C-36 590 -25 579 -9 579 C7 579 18 590 18 606 C18 622 7 633 -9 633 L-9 633 Z M155 633 C139 633 128 622 128 606 C128 590 139 579 155 579 C171 579 182 590 182 606 C182 622 171 633 155 633 L155 633 Z " />
<glyph glyph-name="ntilde" unicode="&#xf1;" horiz-adv-x="444" d="M360 0 L392 0 L392 287 C392 383 333 443 238 443 C181 443 137 421 88 367 C86 398 75 425 57 443 L30 427 C53 397 59 369 59 292 L59 0 L91 0 L91 340 C140 393 180 414 233 414 C270 414 302 403 325 382 C350 358 360 326 360 272 L360 0 Z M341 653 C335 613 315 587 289 586 C272 585 256 594 229 620 C201 646 183 655 160 654 C123 652 100 626 86 568 L107 562 C117 605 136 628 160 628 C177 628 191 620 215 597 C245 568 259 561 285 561 C325 561 353 593 363 649 L341 653 Z " />
<glyph glyph-name="ograve" unicode="&#xf2;" horiz-adv-x="479" d="M238 442 C116 442 27 346 27 215 C27 82 115 -10 242 -10 C364 -10 450 84 450 216 C450 351 364 442 238 442 L238 442 Z M233 413 C343 413 417 335 417 217 C417 93 349 19 235 19 C139 19 60 107 60 213 C60 333 130 413 233 413 L233 413 Z M158 680 L121 671 L272 535 L293 545 L158 680 Z " />
<glyph glyph-name="oacute" unicode="&#xf3;" horiz-adv-x="479" d="M238 442 C116 442 27 346 27 215 C27 82 115 -10 242 -10 C364 -10 450 84 450 216 C450 351 364 442 238 442 L238 442 Z M233 413 C343 413 417 335 417 217 C417 93 349 19 235 19 C139 19 60 107 60 213 C60 333 130 413 233 413 L233 413 Z M324 680 L189 545 L209 535 L360 671 L324 680 Z " />
<glyph glyph-name="ocircumflex" unicode="&#xf4;" horiz-adv-x="479" d="M238 442 C116 442 27 346 27 215 C27 82 115 -10 242 -10 C364 -10 450 84 450 216 C450 351 364 442 238 442 L238 442 Z M233 413 C343 413 417 335 417 217 C417 93 349 19 235 19 C139 19 60 107 60 213 C60 333 130 413 233 413 L233 413 Z M140 535 L237 658 L334 535 L360 547 L252 680 L224 680 L118 547 L140 535 Z " />
<glyph glyph-name="otilde" unicode="&#xf5;" horiz-adv-x="479" d="M238 442 C116 442 27 346 27 215 C27 82 115 -10 242 -10 C364 -10 450 84 450 216 C450 351 364 442 238 442 L238 442 Z M233 413 C343 413 417 335 417 217 C417 93 349 19 235 19 C139 19 60 107 60 213 C60 333 130 413 233 413 L233 413 Z M357 653 C351 613 331 587 305 586 C288 585 272 594 245 620 C217 646 199 655 176 654 C139 652 116 626 102 568 L123 562 C133 605 152 628 176 628 C193 628 207 620 231 597 C261 568 275 561 301 561 C341 561 369 593 379 649 L357 653 Z " />
<glyph glyph-name="odieresis" unicode="&#xf6;" horiz-adv-x="479" d="M238 442 C116 442 27 346 27 215 C27 82 115 -10 242 -10 C364 -10 450 84 450 216 C450 351 364 442 238 442 L238 442 Z M233 413 C343 413 417 335 417 217 C417 93 349 19 235 19 C139 19 60 107 60 213 C60 333 130 413 233 413 L233 413 Z M159 633 C143 633 132 622 132 606 C132 590 143 579 159 579 C175 579 186 590 186 606 C186 622 175 633 159 633 L159 633 Z M323 633 C307 633 296 622 296 606 C296 590 307 579 323 579 C339 579 350 590 350 606 C350 622 339 633 323 633 L323 633 Z " />
<glyph glyph-name="divide" unicode="&#xf7;" horiz-adv-x="517" d="M259 480 C247 480 236 469 236 457 C236 444 247 433 259 433 C273 433 283 443 283 457 C283 470 273 480 259 480 L259 480 Z M259 201 C247 201 236 190 236 178 C236 165 247 154 259 154 C272 154 283 165 283 178 C283 191 273 201 259 201 L259 201 Z M47 330 L47 305 L471 305 L471 330 L47 330 Z " />
<glyph glyph-name="oslash" unicode="&#xf8;" horiz-adv-x="476" d="M364 404 C326 431 287 443 238 443 C117 443 27 346 27 215 C27 146 51 87 96 44 L55 -11 L78 -20 L114 29 C154 1 191 -10 242 -10 C364 -10 450 84 450 216 C450 287 426 349 382 390 L422 444 L401 453 L364 404 Z M116 71 C81 106 60 160 60 213 C60 333 130 414 233 414 C278 414 316 402 346 379 L116 71 Z M363 364 C399 328 417 278 417 218 C417 95 343 14 235 19 C195 21 165 32 133 55 L363 364 Z " />
<glyph glyph-name="ugrave" unicode="&#xf9;" horiz-adv-x="440" d="M375 433 L343 433 L343 81 C288 33 256 19 205 19 C170 19 136 31 115 51 C93 72 84 99 84 145 L84 433 L52 433 L52 148 C52 91 61 61 87 34 C115 6 156 -10 200 -10 C254 -10 290 6 345 53 C346 13 366 -8 405 -8 C419 -8 425 -7 436 -4 L440 21 C433 19 426 18 421 18 C399 16 383 24 379 39 C375 51 375 57 375 99 L375 433 Z M138 680 L101 671 L252 535 L273 545 L138 680 Z " />
<glyph glyph-name="uacute" unicode="&#xfa;" horiz-adv-x="440" d="M375 433 L343 433 L343 81 C288 33 256 19 205 19 C170 19 136 31 115 51 C93 72 84 99 84 145 L84 433 L52 433 L52 148 C52 91 61 61 87 34 C115 6 156 -10 200 -10 C254 -10 290 6 345 53 C346 13 366 -8 405 -8 C419 -8 425 -7 436 -4 L440 21 C433 19 426 18 421 18 C399 16 383 24 379 39 C375 51 375 57 375 99 L375 433 Z M305 680 L170 545 L190 535 L341 671 L305 680 Z " />
<glyph glyph-name="ucircumflex" unicode="&#xfb;" horiz-adv-x="440" d="M375 433 L343 433 L343 81 C288 33 256 19 205 19 C170 19 136 31 115 51 C93 72 84 99 84 145 L84 433 L52 433 L52 148 C52 91 61 61 87 34 C115 6 156 -10 200 -10 C254 -10 290 6 345 53 C346 13 366 -8 405 -8 C419 -8 425 -7 436 -4 L440 21 C433 19 426 18 421 18 C399 16 383 24 379 39 C375 51 375 57 375 99 L375 433 Z M121 535 L218 658 L315 535 L341 547 L233 680 L205 680 L99 547 L121 535 Z " />
<glyph glyph-name="udieresis" unicode="&#xfc;" horiz-adv-x="440" d="M375 433 L343 433 L343 81 C288 33 256 19 205 19 C170 19 136 31 115 51 C93 72 84 99 84 145 L84 433 L52 433 L52 148 C52 91 61 61 87 34 C115 6 156 -10 200 -10 C254 -10 290 6 345 53 C346 13 366 -8 405 -8 C419 -8 425 -7 436 -4 L440 21 C433 19 426 18 421 18 C399 16 383 24 379 39 C375 51 375 57 375 99 L375 433 Z M140 633 C124 633 113 622 113 606 C113 590 124 579 140 579 C156 579 167 590 167 606 C167 622 156 633 140 633 L140 633 Z M304 633 C288 633 277 622 277 606 C277 590 288 579 304 579 C320 579 331 590 331 606 C331 622 320 633 304 633 L304 633 Z " />
<glyph glyph-name="yacute" unicode="&#xfd;" horiz-adv-x="369" d="M33 438 L3 428 L167 0 L134 -82 C91 -188 56 -232 9 -236 C-10 -238 -32 -236 -57 -229 L-62 -257 C-29 -265 -11 -267 14 -263 C76 -254 113 -212 159 -96 L367 428 L340 438 L222 141 C208 105 200 83 183 34 C170 75 159 105 146 141 L33 438 Z M269 680 L134 545 L155 535 L305 671 L269 680 Z " />
<glyph glyph-name="ydieresis" unicode="&#xff;" horiz-adv-x="369" d="M33 438 L3 428 L167 0 L134 -82 C91 -188 56 -232 9 -236 C-10 -238 -32 -236 -57 -229 L-62 -257 C-29 -265 -11 -267 14 -263 C76 -254 113 -212 159 -96 L367 428 L340 438 L222 141 C208 105 200 83 183 34 C170 75 159 105 146 141 L33 438 Z M104 633 C88 633 77 622 77 606 C77 590 88 579 104 579 C120 579 131 590 131 606 C131 622 120 633 104 633 L104 633 Z M268 633 C252 633 241 622 241 606 C241 590 252 579 268 579 C284 579 295 590 295 606 C295 622 284 633 268 633 L268 633 Z " />
<glyph glyph-name="dotlessi" unicode="&#x131;" horiz-adv-x="141" d="M87 433 L55 433 L55 0 L87 0 L87 433 Z " />
<glyph glyph-name="OE" unicode="&#x152;" horiz-adv-x="857" d="M492 641 C455 657 396 669 351 669 C269 669 199 644 141 593 C71 533 27 434 27 336 C27 253 45 186 83 129 C141 40 243 -13 353 -13 C405 -13 449 -4 492 15 L492 0 L848 0 L854 31 L526 31 L526 332 L783 332 L783 362 L526 362 L526 626 L817 626 L817 656 L492 656 L492 641 Z M492 50 C452 29 408 19 353 19 C283 19 207 50 155 100 C94 158 62 239 62 336 C62 515 180 638 352 638 C396 638 452 624 492 603 L492 50 Z " />
<glyph glyph-name="oe" unicode="&#x153;" horiz-adv-x="741" d="M702 75 C654 34 619 20 561 20 C514 20 466 40 434 73 C397 111 380 160 380 228 C380 230 380 240 381 248 L706 248 L720 263 C716 373 647 443 542 443 C486 443 434 418 398 373 C359 418 303 443 238 443 C117 443 27 346 27 216 C27 82 115 -10 242 -10 C304 -10 358 15 398 62 C435 17 493 -10 554 -10 C625 -10 673 9 720 53 L702 75 Z M379 345 C359 309 347 264 347 228 C347 168 355 133 381 88 C345 39 303 19 235 19 C139 19 60 107 60 214 C60 334 130 414 233 414 C295 414 343 391 379 345 L379 345 Z M384 274 C390 301 395 314 402 329 C429 383 481 415 541 415 C624 415 679 362 687 274 L384 274 Z " />
<glyph glyph-name="Scaron" unicode="&#x160;" horiz-adv-x="403" d="M363 615 C318 651 271 669 221 669 C121 669 46 599 46 506 C46 469 56 438 76 411 C94 387 117 371 174 345 C244 314 278 294 302 273 C330 248 344 211 344 162 C344 119 321 73 289 49 C262 29 224 18 183 18 C120 18 71 40 16 93 L2 58 C62 7 112 -13 180 -13 C299 -13 379 61 379 171 C379 256 346 301 247 349 L190 376 C168 387 150 397 136 405 C99 429 81 463 81 509 C81 586 137 638 219 638 C262 638 306 619 345 583 L363 615 Z M301 821 L203 698 L107 821 L81 809 L188 676 L217 676 L323 809 L301 821 Z " />
<glyph glyph-name="scaron" unicode="&#x161;" horiz-adv-x="290" d="M255 405 C225 430 190 443 151 443 C87 443 34 397 31 337 C30 309 40 280 60 259 C75 243 91 233 128 217 C170 199 185 191 201 180 C225 163 237 140 237 112 C237 51 198 18 128 18 C90 18 44 39 16 70 L0 45 C33 11 81 -10 126 -10 C212 -10 269 40 269 115 C269 164 240 202 184 227 L169 233 L154 240 L138 247 C122 254 111 259 103 264 C75 283 62 304 62 336 C62 380 100 415 148 415 C180 415 202 406 243 378 L255 405 Z M244 680 L147 557 L50 680 L24 668 L132 535 L160 535 L266 668 L244 680 Z " />
<glyph glyph-name="Ydieresis" unicode="&#x178;" horiz-adv-x="513" d="M34 661 L2 651 L240 303 L240 0 L274 0 L274 303 L510 651 L480 661 L313 416 C286 377 285 376 258 328 C235 366 225 382 202 416 L34 661 Z M176 774 C160 774 149 763 149 747 C149 731 160 720 176 720 C192 720 203 731 203 747 C203 763 192 774 176 774 L176 774 Z M340 774 C324 774 313 763 313 747 C313 731 324 720 340 720 C356 720 367 731 367 747 C367 763 356 774 340 774 L340 774 Z " />
<glyph glyph-name="Zcaron" unicode="&#x17d;" horiz-adv-x="524" d="M37 656 L37 626 L441 626 L4 12 L11 0 L512 0 L518 31 L56 31 L492 643 L485 656 L37 656 Z M361 821 L264 698 L167 821 L141 809 L249 676 L277 676 L383 809 L361 821 Z " />
<glyph glyph-name="zcaron" unicode="&#x17e;" horiz-adv-x="360" d="M30 433 L30 407 L293 407 L4 17 L11 0 L348 0 L355 28 L51 28 L338 418 L332 433 L30 433 Z M279 680 L182 557 L85 680 L59 668 L167 535 L195 535 L301 668 L279 680 Z " />
<glyph glyph-name="circumflex" unicode="&#x2c6;" d="M-99 535 L-2 658 L95 535 L121 547 L13 680 L-15 680 L-121 547 L-99 535 Z " />
<glyph glyph-name="caron" unicode="&#x2c7;" d="M99 680 L2 557 L-95 680 L-121 668 L-13 535 L15 535 L121 668 L99 680 Z " />
<glyph glyph-name="breve" unicode="&#x2d8;" d="M96 662 C82 606 53 580 4 580 C-46 580 -78 608 -89 662 L-114 659 C-104 590 -64 552 1 552 C66 552 106 589 118 659 L96 662 Z " />
<glyph glyph-name="ring" unicode="&#x2da;" d="M2 687 C-44 687 -80 653 -80 608 C-80 561 -47 527 -1 527 C47 527 81 560 81 606 C81 653 48 687 2 687 L2 687 Z M0 666 C32 666 58 639 58 606 C58 569 34 546 -1 548 C-33 550 -57 575 -57 606 C-57 643 -35 666 0 666 L0 666 Z " />
<glyph glyph-name="tilde" unicode="&#x2dc;" d="M118 653 C112 613 92 587 66 586 C49 585 33 594 6 620 C-22 646 -40 655 -63 654 C-100 652 -123 626 -137 568 L-116 562 C-106 605 -87 628 -63 628 C-46 628 -32 620 -8 597 C22 568 36 561 62 561 C102 561 130 593 140 649 L118 653 Z " />
<glyph glyph-name="endash" unicode="&#x2013;" horiz-adv-x="481" d="M31 248 L27 222 L449 222 L453 248 L31 248 Z " />
<glyph glyph-name="emdash" unicode="&#x2014;" horiz-adv-x="481" d="M31 248 L27 222 L449 222 L453 248 L31 248 Z " />
<glyph glyph-name="quoteleft" unicode="&#x2018;" horiz-adv-x="175" d="M59 430 C69 503 98 577 153 666 L124 674 C68 591 34 507 27 433 L59 430 Z " />
<glyph glyph-name="quoteright" unicode="&#x2019;" horiz-adv-x="175" d="M117 674 C107 601 78 528 23 439 L51 430 C108 514 142 598 149 671 L117 674 Z " />
<glyph glyph-name="quotedblleft" unicode="&#x201c;" horiz-adv-x="299" d="M182 430 C191 503 221 577 276 666 L247 674 C191 591 157 507 150 433 L182 430 Z M59 430 C69 503 98 577 153 666 L124 674 C68 591 34 507 27 433 L59 430 Z " />
<glyph glyph-name="quotedblright" unicode="&#x201d;" horiz-adv-x="299" d="M117 674 C107 601 78 528 23 439 L51 430 C108 514 142 598 149 671 L117 674 Z M240 674 C230 601 201 528 146 439 L174 430 C231 514 265 598 272 671 L240 674 Z " />
<glyph glyph-name="quotedblbase" unicode="&#x201e;" horiz-adv-x="237" d="M53 105 C43 32 14 -42 -41 -131 L-13 -139 C44 -56 78 28 85 102 L53 105 Z M176 105 C166 32 137 -42 82 -131 L110 -139 C167 -56 201 28 208 102 L176 105 Z " />
<glyph glyph-name="dagger" unicode="&#x2020;" horiz-adv-x="454" d="M243 656 L211 656 L211 453 L27 453 L27 425 L211 425 L211 -53 L243 -53 L243 425 L426 425 L426 453 L243 453 L243 656 Z " />
<glyph glyph-name="perthousand" unicode="&#x2030;" horiz-adv-x="1042" d="M175 646 C87 646 25 576 20 473 C15 361 75 283 165 283 C220 283 257 301 285 343 C308 377 320 418 320 466 C320 572 260 646 175 646 L175 646 Z M171 619 C241 619 290 555 290 464 C290 366 244 309 166 309 C93 309 49 371 49 472 C49 557 100 619 171 619 L171 619 Z M467 647 L207 0 L233 0 L494 647 L467 647 Z M536 364 C448 364 386 295 381 191 C376 80 436 1 526 1 C581 1 618 19 646 61 C669 95 681 136 681 184 C681 290 621 364 536 364 L536 364 Z M532 337 C602 337 651 273 651 182 C651 84 605 27 527 27 C454 27 410 89 410 190 C410 275 461 337 532 337 L532 337 Z M877 364 C789 364 727 295 722 191 C717 80 777 1 867 1 C922 1 959 19 987 61 C1010 95 1022 136 1022 184 C1022 290 962 364 877 364 L877 364 Z M873 337 C943 337 992 273 992 182 C992 84 946 27 868 27 C796 27 751 89 751 190 C751 275 802 337 873 337 L873 337 Z " />
<glyph glyph-name="guilsinglleft" unicode="&#x2039;" horiz-adv-x="217" d="M182 403 L23 219 L182 35 L190 71 L58 220 L190 372 L182 403 Z " />
<glyph glyph-name="guilsinglright" unicode="&#x203a;" horiz-adv-x="217" d="M36 35 L194 219 L36 403 L27 367 L159 218 L27 66 L36 35 Z " />
<glyph glyph-name="Euro" unicode="&#x20ac;" horiz-adv-x="465" d="M484 43 L472 69 C434 37 387 18 337 18 C203 18 131 143 117 262 L331 262 L342 288 L114 288 C113 298 113 308 113 318 C113 333 114 347 115 362 L374 362 L385 388 L118 388 C135 506 203 612 333 612 C387 612 422 595 466 566 L479 591 C435 621 388 642 334 642 C191 642 106 517 86 388 L10 388 L-1 362 L83 362 C81 348 81 333 81 319 C81 308 81 298 81 288 L11 288 L0 262 L84 262 C99 126 182 -12 334 -12 C387 -12 445 7 484 43 L484 43 Z " />
<glyph glyph-name="minus" unicode="&#x2212;" horiz-adv-x="517" d="M48 330 L48 305 L472 305 L472 330 L48 330 Z " />
<glyph glyph-name="Adieresis.alt" unicode="&#xe000;" horiz-adv-x="538" d="M512 0 L549 0 L275 676 L259 676 L-12 0 L23 0 L123 252 L411 252 L512 0 Z M400 280 L135 280 L233 529 C244 556 247 566 266 619 C285 565 288 557 299 529 L400 280 Z M159 680 C142 680 131 669 131 652 C131 635 142 624 159 624 C176 624 187 635 187 652 C187 669 176 680 159 680 L159 680 Z M376 680 C359 680 348 669 348 652 C348 635 359 624 376 624 C393 624 404 635 404 652 C404 669 393 680 376 680 L376 680 Z " />
<glyph glyph-name="Aring.alt" unicode="&#xe001;" horiz-adv-x="538" d="M-12 0 L23 0 L123 252 L411 252 L512 0 L549 0 L323 558 C342 573 353 597 353 623 C353 673 318 709 270 709 C221 709 184 673 184 626 C184 600 193 578 213 560 L-12 0 Z M400 280 L135 280 L233 530 C238 542 236 538 239 545 C250 541 258 540 267 540 C277 540 284 541 294 544 C295 540 294 543 299 530 L400 280 Z M268 687 C301 687 329 658 329 624 C329 584 304 559 266 562 C233 564 208 591 208 624 C208 662 231 687 268 687 L268 687 Z " />
<glyph glyph-name="Odieresis.alt" unicode="&#xe002;" horiz-adv-x="707" d="M351 669 C168 669 27 524 27 335 C27 254 46 185 83 129 C141 40 243 -13 354 -13 C547 -13 679 127 679 332 C679 531 545 669 351 669 L351 669 Z M352 638 C423 638 499 609 550 562 C610 508 644 424 644 333 C644 140 532 19 353 19 C282 19 208 49 155 100 C94 158 62 238 62 335 C62 515 180 638 352 638 L352 638 Z M118 680 C101 680 90 669 90 652 C90 635 101 624 118 624 C135 624 146 635 146 652 C146 669 135 680 118 680 L118 680 Z M591 680 C574 680 563 669 563 652 C563 635 574 624 591 624 C608 624 619 635 619 652 C619 669 608 680 591 680 L591 680 Z " />
<glyph glyph-name="Udieresis.alt" unicode="&#xe003;" horiz-adv-x="615" d="M57 656 L57 266 C57 173 62 135 80 101 C117 33 205 -13 299 -13 C376 -13 433 4 480 40 C539 87 557 140 557 265 L557 656 L523 656 L523 265 C523 179 514 133 490 99 C454 46 392 19 306 19 C255 19 197 37 159 66 C105 106 91 148 91 264 L91 656 L57 656 Z M207 680 C190 680 179 669 179 652 C179 635 190 624 207 624 C224 624 235 635 235 652 C235 669 224 680 207 680 L207 680 Z M410 680 C393 680 382 669 382 652 C382 635 393 624 410 624 C427 624 438 635 438 652 C438 669 427 680 410 680 L410 680 Z " />
</font>
</svg>
