<?xml version="1.0" encoding="UTF-8"?>
<svg xmlns="http://www.w3.org/2000/svg" xmlns:xlink="http://www.w3.org/1999/xlink" version="1.2" >
<font id="TodaySHOP-Light">
<font-face  font-family="TodaySHOP-Light" units-per-em="1000" ascent="706" descent="-269" font-style="normal" font-weight="400" font-stretch="normal" cap-height="665" x-height="446" underline-position="-119" underline-thickness="23" />
<missing-glyph  horiz-adv-x="176" d="" />
<glyph glyph-name="NULL" d="" />
<glyph glyph-name="CR" unicode="&#xd;" horiz-adv-x="250" d="" />
<glyph glyph-name="space" unicode="&#x20;" horiz-adv-x="176" d="" />
<glyph glyph-name="exclam" unicode="&#x21;" horiz-adv-x="182" d="M69 656 L84 144 L124 144 L136 656 L69 656 Z M104 79 C82 79 66 61 66 36 C66 11 82 -7 105 -7 C128 -7 144 10 144 35 C144 62 128 79 104 79 L104 79 Z " />
<glyph glyph-name="quotedbl" unicode="&#x22;" horiz-adv-x="324" d="M112 675 C103 597 77 529 20 431 L66 421 C122 504 156 591 165 669 L112 675 Z M247 675 C237 598 211 529 154 431 L200 421 C255 503 290 591 299 669 L247 675 Z " />
<glyph glyph-name="numbersign" unicode="&#x23;" horiz-adv-x="558" d="M484 256 L378 256 L402 403 L507 403 L513 440 L407 440 L442 656 L402 656 L367 440 L227 440 L261 656 L221 656 L187 440 L81 440 L75 403 L181 403 L158 256 L52 256 L46 219 L152 219 L117 0 L157 0 L192 219 L332 219 L298 0 L338 0 L373 219 L479 219 L484 256 Z M362 403 L338 256 L198 256 L221 403 L362 403 Z " />
<glyph glyph-name="dollar" unicode="&#x24;" horiz-adv-x="385" d="M208 715 L164 715 L164 627 C83 613 26 551 26 477 C26 403 60 356 141 321 L167 309 L193 298 L219 286 C242 276 261 264 276 249 C295 230 304 204 304 171 C304 105 253 58 181 58 C122 58 87 74 19 131 L5 72 C55 29 87 16 164 7 L164 -87 L208 -87 L208 10 C240 15 258 21 278 32 C328 59 363 118 363 175 C363 208 360 226 349 249 C332 285 294 319 248 338 L222 349 L197 361 L171 372 C152 380 136 388 123 398 C97 416 83 445 83 479 C83 536 132 581 191 578 C233 576 273 559 312 526 L338 577 C296 610 265 623 208 630 L208 715 Z " />
<glyph glyph-name="percent" unicode="&#x25;" horiz-adv-x="736" d="M174 646 C81 641 18 566 18 462 C18 350 81 273 171 273 C270 273 334 349 334 465 C334 574 266 651 174 646 L174 646 Z M172 602 C202 602 232 587 249 563 C266 539 279 495 279 461 C279 368 243 318 176 318 C114 318 71 378 71 463 C71 551 108 602 172 602 L172 602 Z M477 645 L213 0 L259 0 L523 645 L477 645 Z M557 372 C464 367 401 293 401 188 C401 76 464 -1 554 -1 C653 -1 717 75 717 191 C717 299 649 377 557 372 L557 372 Z M555 328 C585 328 615 313 632 289 C649 265 662 221 662 187 C662 94 626 44 559 44 C497 44 454 104 454 189 C454 277 491 328 555 328 L555 328 Z " />
<glyph glyph-name="ampersand" unicode="&#x26;" horiz-adv-x="857" d="M851 458 L552 458 L552 407 L675 407 C675 335 667 289 645 234 C596 111 499 46 365 46 C269 46 181 97 128 183 L490 407 L490 451 C446 547 376 591 269 591 C215 591 153 565 110 525 C56 475 25 401 25 323 C25 240 53 164 106 103 C172 27 258 -10 370 -10 C509 -10 640 74 695 199 C722 261 734 315 738 407 L851 407 L851 458 Z M106 229 C90 269 85 301 87 340 C93 452 162 530 262 536 C337 541 402 502 437 431 L106 229 Z " />
<glyph glyph-name="quotesingle" unicode="&#x27;" horiz-adv-x="191" d="M112 675 C103 597 77 529 20 431 L66 421 C122 504 156 591 165 669 L112 675 Z " />
<glyph glyph-name="parenleft" unicode="&#x28;" horiz-adv-x="235" d="M192 719 C86 605 25 465 25 332 C25 177 73 63 191 -62 L227 -29 C124 89 78 201 78 331 C78 455 128 578 223 688 L192 719 Z " />
<glyph glyph-name="parenright" unicode="&#x29;" horiz-adv-x="235" d="M41 -62 C148 51 209 191 209 324 C209 480 161 594 43 719 L7 686 C109 568 156 456 156 326 C156 201 106 78 10 -31 L41 -62 Z " />
<glyph glyph-name="asterisk" unicode="&#x2a;" horiz-adv-x="381" d="M214 709 L166 709 L173 564 L38 617 L23 572 L159 530 L73 416 L111 390 L190 510 L271 390 L309 416 L221 530 L358 572 L343 617 L207 564 L214 709 Z " />
<glyph glyph-name="plus" unicode="&#x2b;" horiz-adv-x="513" d="M44 341 L44 294 L234 294 L234 103 L284 103 L284 294 L473 294 L473 341 L284 341 L284 533 L234 533 L234 341 L44 341 Z " />
<glyph glyph-name="comma" unicode="&#x2c;" horiz-adv-x="130" d="M50 108 C38 17 15 -42 -51 -152 L-4 -163 C58 -82 96 13 104 102 L50 108 Z " />
<glyph glyph-name="hyphen" unicode="&#x2d;" horiz-adv-x="278" d="M34 264 L25 213 L244 213 L253 264 L34 264 Z " />
<glyph glyph-name="period" unicode="&#x2e;" horiz-adv-x="128" d="M63 79 C41 79 25 61 25 36 C25 11 41 -7 64 -7 C87 -7 103 10 103 35 C103 62 87 79 63 79 L63 79 Z " />
<glyph glyph-name="slash" unicode="&#x2f;" horiz-adv-x="408" d="M343 706 L13 -49 L64 -49 L394 706 L343 706 Z " />
<glyph glyph-name="zero" unicode="0" horiz-adv-x="474" d="M237 648 C108 641 25 515 25 324 C25 111 103 -12 237 -12 C368 -12 448 116 448 325 C448 525 363 655 237 648 L237 648 Z M233 598 C276 598 319 570 342 527 C369 479 386 399 386 326 C386 136 330 31 232 39 C139 47 87 153 87 333 C87 412 104 489 132 537 C154 575 193 598 233 598 L233 598 Z " />
<glyph glyph-name="one" unicode="1" horiz-adv-x="317" d="M262 636 L239 648 C194 612 163 589 114 555 C67 521 35 501 0 481 L28 446 C72 470 140 517 204 566 L204 0 L262 0 L262 636 Z " />
<glyph glyph-name="two" unicode="2" horiz-adv-x="451" d="M445 53 L97 53 C187 139 230 183 290 252 C366 339 399 403 399 466 C399 578 325 649 207 649 C175 649 136 637 105 619 C85 607 72 595 45 568 L78 532 C123 576 163 596 208 596 C282 596 341 538 337 467 C335 426 320 384 294 347 C265 306 228 261 184 213 C114 136 76 97 7 32 L16 0 L433 0 L445 53 Z " />
<glyph glyph-name="three" unicode="3" horiz-adv-x="422" d="M112 354 L112 307 L176 307 C220 307 252 301 274 287 C314 263 340 218 340 172 C340 91 282 39 191 39 C133 39 80 62 36 108 L0 68 C49 15 113 -12 191 -12 C315 -12 403 66 403 177 C403 255 359 313 278 341 C347 383 376 428 376 489 C376 583 301 648 192 648 C128 648 72 622 26 572 L63 536 C98 576 141 596 191 596 C263 596 316 548 316 483 C316 442 301 409 267 378 C249 361 235 354 220 354 L112 354 Z " />
<glyph glyph-name="four" unicode="4" horiz-adv-x="488" d="M376 636 L347 647 L7 230 L19 193 L319 193 L319 0 L376 0 L376 193 L475 193 L481 239 L376 239 L376 636 Z M319 239 L65 239 C99 273 105 279 134 315 L257 466 C286 502 292 510 319 549 L319 239 Z " />
<glyph glyph-name="five" unicode="5" horiz-adv-x="408" d="M161 584 L373 584 L373 636 L115 636 L68 357 C85 357 107 358 114 358 C251 358 330 299 330 196 C330 100 265 38 163 38 C119 38 68 56 28 85 L0 40 C45 8 106 -12 163 -12 C298 -12 391 75 391 202 C391 257 369 310 331 346 C291 386 227 407 148 407 L130 407 L161 584 Z " />
<glyph glyph-name="six" unicode="6" horiz-adv-x="460" d="M348 663 C235 617 155 555 96 468 C51 402 23 317 23 246 C23 179 33 133 57 91 C93 26 158 -12 232 -12 C358 -12 444 76 444 206 C444 320 354 408 244 400 C179 395 137 371 87 308 C115 403 142 450 199 509 C253 564 304 597 392 632 L348 663 Z M83 247 C83 248 90 259 101 274 C132 316 179 343 230 348 C312 355 383 286 383 200 C383 100 326 38 236 38 C154 38 83 117 83 207 L83 247 Z " />
<glyph glyph-name="seven" unicode="7" horiz-adv-x="429" d="M7 636 L7 585 L351 585 C313 518 297 489 274 445 C231 364 170 244 124 149 C102 104 89 75 58 8 L116 -11 C165 98 189 147 229 230 C275 324 318 410 391 551 L406 580 L421 610 L411 636 L7 636 Z " />
<glyph glyph-name="eight" unicode="8" horiz-adv-x="451" d="M282 343 C313 355 332 364 346 374 C385 403 404 443 404 496 C404 586 330 648 223 648 C124 648 47 578 47 488 C47 453 60 419 84 393 C104 371 124 358 169 340 C134 328 114 319 97 307 C49 275 20 222 20 168 C20 63 106 -12 226 -12 C348 -12 431 62 431 171 C431 219 409 266 373 296 C351 314 329 325 282 343 L282 343 Z M238 363 C237 362 228 366 208 376 C186 386 182 388 172 394 C129 421 108 451 106 492 C103 557 152 601 227 601 C297 601 347 555 347 491 C347 434 317 398 238 363 L238 363 Z M214 319 C215 320 225 315 248 305 C275 294 279 291 292 283 C344 253 368 218 370 169 C374 88 317 35 226 35 C144 35 80 93 80 166 C80 238 117 279 214 319 L214 319 Z " />
<glyph glyph-name="nine" unicode="9" horiz-adv-x="456" d="M119 -27 C177 -2 218 22 259 56 C369 148 432 271 432 394 C432 552 353 648 222 648 C112 648 18 552 18 440 C18 382 31 340 62 304 C98 261 149 238 206 238 C269 238 320 265 368 323 C343 238 318 192 265 135 C210 76 156 38 66 0 L119 -27 Z M371 378 C371 376 359 363 342 345 C310 313 267 293 222 291 C142 287 78 354 78 442 C78 528 138 596 215 596 C265 596 300 580 328 542 C357 505 372 456 372 400 C372 397 372 387 371 378 L371 378 Z " />
<glyph glyph-name="colon" unicode="&#x3a;" horiz-adv-x="164" d="M92 86 C70 86 54 68 54 44 C54 18 70 0 93 0 C116 0 132 17 132 42 C132 69 116 86 92 86 L92 86 Z M93 437 C71 437 55 419 55 395 C55 369 71 351 94 351 C117 351 133 368 133 393 C133 420 117 437 93 437 L93 437 Z " />
<glyph glyph-name="semicolon" unicode="&#x3b;" horiz-adv-x="164" d="M78 108 C66 17 43 -42 -23 -152 L24 -163 C86 -82 124 13 132 102 L78 108 Z M96 437 C74 437 58 419 58 395 C58 369 74 351 97 351 C120 351 136 368 136 393 C136 420 120 437 96 437 L96 437 Z " />
<glyph glyph-name="less" unicode="&#x3c;" horiz-adv-x="374" d="M183 416 L20 223 L183 29 L202 76 L76 225 L202 376 L183 416 Z M329 416 L167 223 L329 29 L349 76 L222 225 L349 376 L329 416 Z " />
<glyph glyph-name="equal" unicode="&#x3d;" horiz-adv-x="513" d="M49 416 L49 369 L467 369 L467 416 L49 416 Z M49 267 L49 220 L467 220 L467 267 L49 267 Z " />
<glyph glyph-name="greater" unicode="&#x3e;" horiz-adv-x="374" d="M191 29 L354 223 L191 416 L172 370 L298 220 L172 70 L191 29 Z M45 29 L207 223 L45 416 L25 370 L152 220 L25 70 L45 29 Z " />
<glyph glyph-name="question" unicode="&#x3f;" horiz-adv-x="360" d="M51 581 C90 608 110 615 152 615 C218 615 272 565 272 504 C272 472 267 452 252 423 C240 399 238 396 173 317 C128 261 115 228 115 171 C115 168 116 155 117 145 L169 145 C168 154 168 166 168 170 C168 217 178 245 206 279 C210 283 231 308 266 348 C316 406 335 450 335 506 C335 595 259 666 163 666 C109 666 71 653 25 619 L51 581 Z M143 78 C122 78 105 60 105 36 C105 11 121 -7 144 -7 C167 -7 183 10 183 35 C183 61 167 78 143 78 L143 78 Z " />
<glyph glyph-name="at" unicode="&#x40;" horiz-adv-x="1056" d="M972 306 C972 537 789 659 573 659 C389 659 219 566 134 400 C102 337 84 267 84 197 C84 -70 231 -203 495 -203 C581 -203 669 -192 749 -157 L737 -111 C662 -144 583 -155 501 -155 C265 -155 139 -35 139 201 C139 432 343 614 569 614 C765 614 917 509 917 301 C917 197 869 116 775 72 C746 58 711 49 678 48 C667 48 656 48 645 48 L702 441 C659 451 615 459 570 459 C409 459 318 305 318 159 C318 78 345 0 439 0 C501 0 568 36 599 91 L585 0 L665 0 C702 0 743 9 778 21 C909 67 972 169 972 306 L972 306 Z M643 406 L603 152 C574 103 516 47 456 47 C388 47 373 102 373 160 C373 276 440 414 572 414 C596 414 620 411 643 406 L643 406 Z " />
<glyph glyph-name="A" unicode="A" horiz-adv-x="565" d="M510 0 L576 0 L300 673 L263 673 L-12 0 L49 0 L141 230 L418 230 L510 0 Z M398 278 L160 278 L250 501 C263 535 271 558 279 585 C288 556 296 535 309 501 L398 278 Z " />
<glyph glyph-name="B" unicode="B" horiz-adv-x="470" d="M52 4 C132 -4 156 -6 216 -6 C263 -6 313 4 345 19 C408 50 447 111 447 179 C447 230 428 275 392 309 C366 334 345 344 298 354 C366 395 397 440 397 500 C397 600 318 662 188 662 C147 662 119 660 52 654 L52 4 Z M114 610 C140 612 168 613 184 613 C280 613 340 562 333 486 C327 428 275 366 232 366 L114 366 L114 610 Z M114 319 L204 319 C247 319 280 313 303 303 C353 279 382 232 382 177 C382 95 319 44 219 44 C174 44 162 45 114 52 L114 319 Z " />
<glyph glyph-name="C" unicode="C" horiz-adv-x="561" d="M554 617 C492 653 428 670 357 670 C270 670 185 637 125 578 C63 519 25 425 25 334 C25 229 55 147 115 85 C174 24 263 -14 350 -14 C435 -14 500 5 560 47 L536 96 C480 59 431 45 353 45 C286 45 210 79 164 131 C117 184 91 255 91 332 C91 497 198 613 351 613 C413 613 460 600 526 564 L554 617 Z " />
<glyph glyph-name="D" unicode="D" horiz-adv-x="620" d="M52 4 C105 -2 131 -4 176 -4 L221 -4 C252 -4 308 2 343 9 C391 19 428 33 459 53 C545 108 595 207 595 322 C595 419 560 506 497 566 C432 628 334 660 207 660 C150 660 120 659 52 653 L52 4 Z M114 605 C150 608 172 609 206 607 C291 603 362 584 408 555 C480 508 529 417 529 328 C529 144 424 49 222 49 C174 49 156 50 114 56 L114 605 Z " />
<glyph glyph-name="E" unicode="E" horiz-adv-x="435" d="M391 656 L52 656 L52 0 L423 0 L433 54 L114 54 L114 320 L363 320 L363 372 L114 372 L114 604 L391 604 L391 656 Z " />
<glyph glyph-name="F" unicode="F" horiz-adv-x="383" d="M377 656 L53 656 L53 0 L115 0 L115 308 L349 308 L349 360 L115 360 L115 604 L377 604 L377 656 Z " />
<glyph glyph-name="G" unicode="G" horiz-adv-x="650" d="M600 590 C531 645 455 670 359 670 C172 670 25 522 25 332 C25 127 165 -14 369 -14 C460 -14 528 5 602 52 L602 323 L377 323 L369 271 L540 271 L540 80 C484 48 451 41 372 41 C308 41 234 68 189 108 C130 159 92 246 92 330 C92 498 201 614 361 614 C435 614 507 588 565 540 L600 590 Z " />
<glyph glyph-name="H" unicode="H" horiz-adv-x="611" d="M114 370 L114 656 L52 656 L52 0 L114 0 L114 318 L496 318 L496 0 L558 0 L558 656 L496 656 L496 370 L114 370 Z " />
<glyph glyph-name="I" unicode="I" horiz-adv-x="166" d="M114 656 L52 656 L52 0 L114 0 L114 656 Z " />
<glyph glyph-name="J" unicode="J" horiz-adv-x="324" d="M272 656 L210 656 L210 196 C210 80 186 45 105 45 C75 45 51 51 17 68 L2 15 C43 -4 70 -10 116 -10 C167 -10 215 11 240 44 C264 75 272 110 272 178 L272 656 Z " />
<glyph glyph-name="K" unicode="K" horiz-adv-x="511" d="M52 656 L52 0 L114 0 L114 251 L181 320 L444 0 L522 0 L225 358 L510 647 L451 665 L114 322 L114 656 L52 656 Z " />
<glyph glyph-name="L" unicode="L" horiz-adv-x="413" d="M114 656 L52 656 L52 0 L401 0 L411 54 L114 54 L114 656 Z " />
<glyph glyph-name="M" unicode="M" horiz-adv-x="777" d="M686 660 L644 660 L454 229 C432 178 420 149 396 91 L391 79 C358 158 355 164 326 229 L131 660 L89 660 L16 0 L71 0 L113 398 C114 404 114 410 115 421 C116 430 115 415 120 471 C122 497 121 484 123 508 L125 526 L126 543 C153 474 156 466 187 398 L366 0 L408 0 L585 400 C614 465 615 468 645 547 L646 529 L648 511 C651 476 650 486 651 474 C654 441 657 415 658 400 L701 0 L762 0 L686 660 Z " />
<glyph glyph-name="N" unicode="N" horiz-adv-x="654" d="M52 654 L52 0 L107 0 L107 411 C107 430 107 451 106 488 C106 510 106 493 105 538 L105 554 C139 512 158 488 176 466 C192 446 212 422 223 409 L571 -8 L601 3 L601 656 L546 656 L546 249 C546 229 546 207 547 173 C547 152 547 173 548 106 C486 186 511 155 431 251 L86 665 L52 654 Z " />
<glyph glyph-name="O" unicode="O" horiz-adv-x="711" d="M350 670 C282 670 204 643 150 601 C71 539 25 441 25 334 C25 131 163 -14 355 -14 C552 -14 687 125 687 327 C687 460 629 569 526 628 C473 659 425 670 350 670 L350 670 Z M349 615 C504 615 621 490 621 325 C621 255 604 194 573 148 C525 77 454 43 355 43 C293 43 224 72 178 118 C124 171 92 252 92 334 C92 501 196 615 349 615 L349 615 Z " />
<glyph glyph-name="P" unicode="P" horiz-adv-x="454" d="M52 0 L114 0 L114 278 C143 277 178 276 193 276 C254 276 304 286 338 304 C398 335 438 402 438 468 C438 529 420 575 381 610 C340 646 284 662 194 662 C173 662 126 660 90 657 C81 656 69 655 52 654 L52 0 Z M114 606 C152 609 173 610 192 610 C312 610 374 562 374 471 C374 380 308 327 194 327 C167 327 144 327 114 329 L114 606 Z " />
<glyph glyph-name="Q" unicode="Q" horiz-adv-x="711" d="M839 -107 C749 -90 702 -75 640 -44 C595 -21 561 4 532 32 C631 93 687 198 687 327 C687 533 553 670 350 670 C168 670 25 522 25 334 C25 131 163 -14 354 -14 C399 -14 434 -8 476 6 C571 -86 658 -132 776 -154 L839 -107 Z M349 615 C504 615 621 491 621 325 C621 255 605 194 573 148 C525 77 454 43 355 43 C294 43 224 72 178 118 C124 170 92 252 92 334 C92 501 196 615 349 615 L349 615 Z " />
<glyph glyph-name="R" unicode="R" horiz-adv-x="497" d="M52 0 L114 0 L114 285 L237 285 L432 0 L508 0 L297 300 C379 327 431 395 431 477 C431 527 415 568 383 602 C346 641 285 662 205 662 C138 662 119 661 52 653 L52 0 Z M114 608 C145 610 159 611 180 611 L203 611 C306 611 369 558 369 473 C369 399 312 334 245 334 L114 334 L114 608 Z " />
<glyph glyph-name="S" unicode="S" horiz-adv-x="415" d="M373 612 C329 650 274 670 215 670 C114 670 34 594 34 497 C34 416 69 370 166 325 L226 298 C249 287 269 276 285 263 C314 241 330 207 330 167 C330 88 276 40 188 40 C130 40 75 66 18 119 L2 55 C65 5 118 -14 189 -14 C308 -14 393 64 393 172 C393 211 386 240 369 269 C350 302 321 324 257 354 L237 364 L216 373 L196 383 C175 393 157 403 143 412 C110 433 92 467 94 507 C97 572 145 615 213 615 C258 615 298 598 346 558 L373 612 Z " />
<glyph glyph-name="T" unicode="T" horiz-adv-x="540" d="M302 604 L536 604 L536 656 L5 656 L5 604 L240 604 L240 0 L302 0 L302 604 Z " />
<glyph glyph-name="U" unicode="U" horiz-adv-x="620" d="M50 656 L50 264 C50 195 54 160 64 128 C94 39 183 -14 305 -14 C377 -14 444 6 489 40 C548 86 570 146 570 263 L570 656 L508 656 L508 261 C508 186 499 144 478 113 C445 66 388 41 312 41 C218 41 148 82 124 151 C115 178 112 208 112 274 L112 656 L50 656 Z " />
<glyph glyph-name="V" unicode="V" horiz-adv-x="584" d="M61 665 L2 649 L268 0 L318 0 L581 649 L525 665 L352 230 C350 224 339 197 319 142 C306 107 306 107 294 72 C278 124 267 153 236 230 L61 665 Z " />
<glyph glyph-name="W" unicode="W" horiz-adv-x="905" d="M393 665 L335 649 L428 416 L360 249 C331 177 326 163 292 72 C263 155 260 164 234 228 L61 665 L2 649 L262 0 L310 0 L451 363 L595 0 L643 0 L903 649 L848 665 L678 233 C642 130 652 159 646 144 C633 109 633 107 622 74 C596 152 587 178 565 233 L393 665 Z " />
<glyph glyph-name="X" unicode="X" horiz-adv-x="588" d="M296 385 L84 667 L24 648 L259 343 L2 8 L58 -11 L293 297 L524 -11 L587 8 L329 343 L566 648 L510 667 L296 385 Z " />
<glyph glyph-name="Y" unicode="Y" horiz-adv-x="536" d="M272 355 L63 667 L2 649 L238 300 L238 0 L300 0 L300 300 L533 649 L478 667 L272 355 Z " />
<glyph glyph-name="Z" unicode="Z" horiz-adv-x="538" d="M41 656 L41 604 L421 604 L4 24 L15 0 L523 0 L533 54 L97 54 L512 632 L501 656 L41 656 Z " />
<glyph glyph-name="bracketleft" unicode="&#x5b;" horiz-adv-x="230" d="M216 -49 L224 -5 L104 -5 L104 662 L216 662 L224 706 L52 706 L52 -49 L216 -49 Z " />
<glyph glyph-name="bracketright" unicode="&#x5d;" horiz-adv-x="230" d="M15 706 L7 662 L127 662 L127 -5 L15 -5 L7 -49 L179 -49 L179 706 L15 706 Z " />
<glyph glyph-name="asciicircum" unicode="&#x5e;" horiz-adv-x="565" d="M510 0 L576 0 L300 673 L263 673 L-12 0 L49 0 L141 230 L418 230 L510 0 Z M398 278 L160 278 L250 501 C263 535 271 558 279 585 C288 556 296 535 309 501 L398 278 Z M153 680 C130 680 113 663 113 640 C113 617 130 600 153 600 C176 600 193 617 193 640 C193 663 176 680 153 680 L153 680 Z M414 680 C391 680 374 663 374 640 C374 617 391 600 414 600 C437 600 454 617 454 640 C454 663 437 680 414 680 L414 680 Z " />
<glyph glyph-name="underscore" unicode="&#x5f;" horiz-adv-x="397" d="M0 -118 L0 -141 L397 -141 L397 -118 L0 -118 Z " />
<glyph glyph-name="grave" unicode="&#x60;" d="M-78 680 L-137 665 L21 535 L58 550 L-78 680 Z " />
<glyph glyph-name="a" unicode="a" horiz-adv-x="388" d="M40 356 C84 381 126 395 171 398 C201 400 228 392 245 375 C263 358 269 339 268 294 L268 271 C209 265 187 262 164 257 C71 236 22 190 18 118 C14 45 66 -11 139 -11 C188 -11 233 6 274 40 C283 6 307 -10 347 -10 C360 -10 365 -9 381 -6 L388 34 C381 34 371 33 368 33 C348 33 336 39 331 53 C326 64 325 76 325 120 L325 289 C325 345 319 376 302 397 C278 430 237 447 183 447 C138 447 91 433 40 405 L40 356 Z M268 77 C226 46 197 35 159 35 C107 35 72 70 75 119 C80 187 127 216 268 233 L268 77 Z " />
<glyph glyph-name="b" unicode="b" horiz-adv-x="463" d="M50 706 L50 36 C111 1 155 -11 218 -11 C342 -11 438 88 438 216 C438 356 358 445 231 445 C190 445 158 433 107 400 L107 706 L50 706 Z M107 355 C152 386 179 396 217 396 C262 396 299 382 328 353 C358 322 378 270 378 223 C378 107 315 34 217 34 C178 34 150 42 107 64 L107 355 Z " />
<glyph glyph-name="c" unicode="c" horiz-adv-x="388" d="M380 404 C338 435 295 449 240 449 C122 449 25 348 25 225 C25 83 111 -11 241 -11 C297 -11 341 3 385 36 L363 76 C316 48 281 38 241 41 C148 47 85 122 85 226 C85 327 151 399 241 399 C279 399 309 389 351 361 L380 404 Z " />
<glyph glyph-name="d" unicode="d" horiz-adv-x="476" d="M357 706 L357 414 C307 439 284 445 235 445 C120 445 25 342 25 218 C25 157 37 111 65 71 C99 21 158 -11 217 -11 C278 -11 314 2 362 41 C371 7 396 -10 436 -10 C449 -10 455 -9 469 -6 L477 34 C470 34 460 33 457 33 C437 33 425 39 420 53 C415 64 414 76 414 120 L414 706 L357 706 Z M357 83 C310 47 286 38 233 38 C148 38 85 114 85 218 C85 318 149 394 236 398 C280 400 313 389 357 356 L357 83 Z " />
<glyph glyph-name="e" unicode="e" horiz-adv-x="426" d="M384 239 L407 267 C406 306 401 330 385 359 C353 420 301 449 227 449 C117 449 25 348 25 228 C25 163 37 117 66 76 C105 22 168 -11 235 -11 C307 -11 360 11 407 59 L377 92 C339 56 298 40 244 40 C152 40 84 117 84 220 L84 239 L384 239 Z M87 280 C92 304 96 316 103 329 C127 373 175 402 225 402 C297 402 346 355 353 280 L87 280 Z " />
<glyph glyph-name="f" unicode="f" horiz-adv-x="283" d="M278 437 L156 437 L156 508 C156 568 164 599 186 624 C205 645 235 658 273 660 C289 661 299 661 317 658 L324 705 C304 709 292 710 273 709 C221 706 178 688 147 656 C113 621 99 578 99 509 L99 437 L5 437 L5 393 L99 393 L99 0 L156 0 L156 393 L278 393 L278 437 Z " />
<glyph glyph-name="g" unicode="g" horiz-adv-x="419" d="M420 437 L265 437 C232 448 220 450 188 450 C99 450 26 377 26 289 C26 216 55 169 120 136 C75 115 59 99 55 71 C51 40 67 20 110 7 C40 -24 0 -71 0 -123 C0 -211 81 -273 196 -273 C315 -273 403 -208 407 -117 C410 -52 366 -2 290 15 L157 45 C118 54 102 64 104 79 C106 96 119 108 151 125 C173 121 187 119 197 119 C296 119 366 187 366 282 C366 329 350 365 314 399 L420 396 L420 437 Z M195 409 C261 409 310 353 310 275 C310 209 262 162 195 162 C130 162 83 218 83 295 C83 360 131 409 195 409 L195 409 Z M231 -23 C266 -31 291 -39 305 -46 C336 -62 352 -87 352 -118 C352 -183 292 -227 204 -227 C118 -227 55 -180 55 -116 C55 -76 83 -42 146 -5 L231 -23 Z " />
<glyph glyph-name="h" unicode="h" horiz-adv-x="454" d="M50 706 L50 0 L107 0 L107 328 C151 378 191 400 238 400 C274 400 301 389 322 367 C342 345 349 319 349 262 L349 0 L406 0 L406 290 C406 389 347 449 248 449 C198 449 157 428 107 376 L107 706 L50 706 Z " />
<glyph glyph-name="i" unicode="i" horiz-adv-x="160" d="M108 437 L51 437 L51 0 L108 0 L108 437 Z M81 644 C58 644 41 627 41 604 C41 581 58 564 81 564 C104 564 121 581 121 604 C121 627 104 644 81 644 L81 644 Z " />
<glyph glyph-name="j" unicode="j" horiz-adv-x="160" d="M106 437 L49 437 L49 -16 C49 -101 45 -132 30 -161 C14 -193 -22 -211 -67 -211 C-71 -211 -82 -210 -91 -210 L-99 -258 C-84 -260 -76 -261 -61 -260 C3 -257 52 -232 78 -188 C99 -154 106 -117 106 -37 L106 437 Z M79 644 C56 644 39 627 39 604 C39 581 56 564 79 564 C102 564 119 581 119 604 C119 627 102 644 79 644 L79 644 Z " />
<glyph glyph-name="k" unicode="k" horiz-adv-x="401" d="M50 706 L50 0 L107 0 L107 166 L162 220 L342 0 L413 0 L204 253 L388 430 L332 442 L107 226 L107 706 L50 706 Z " />
<glyph glyph-name="l" unicode="l" horiz-adv-x="157" d="M50 706 L50 0 L107 0 L107 706 L50 706 Z " />
<glyph glyph-name="m" unicode="m" horiz-adv-x="727" d="M679 0 L679 288 C679 334 672 364 657 388 C632 427 586 449 526 449 C495 449 458 436 429 416 C412 404 401 393 380 368 C358 422 314 449 249 449 C190 449 143 423 107 371 C102 410 93 429 70 449 L23 426 C48 403 54 373 54 282 L54 0 L111 0 L111 326 C150 377 190 401 236 401 C272 401 297 391 316 369 C333 349 338 328 338 276 L338 0 L395 0 L395 287 C395 298 395 307 394 326 C431 377 471 401 520 401 C558 401 592 383 609 354 C620 336 622 320 622 267 L622 0 L679 0 Z " />
<glyph glyph-name="n" unicode="n" horiz-adv-x="458" d="M23 426 C48 403 54 373 54 282 L54 0 L111 0 L111 328 C155 378 195 400 242 400 C278 400 305 389 326 367 C346 345 353 319 353 262 L353 0 L410 0 L410 290 C410 390 351 449 252 449 C221 449 183 436 155 416 C139 405 127 394 107 371 C102 410 93 429 70 449 L23 426 Z " />
<glyph glyph-name="o" unicode="o" horiz-adv-x="488" d="M243 448 C119 448 25 349 25 218 C25 164 42 109 72 70 C112 15 171 -11 250 -11 C375 -11 462 86 462 225 C462 353 369 448 243 448 L243 448 Z M236 399 C335 399 403 322 403 211 C403 106 341 36 247 36 C155 36 84 118 84 225 C84 328 146 399 236 399 L236 399 Z " />
<glyph glyph-name="p" unicode="p" horiz-adv-x="467" d="M111 16 C155 -3 180 -8 225 -8 C351 -8 443 88 443 220 C443 359 353 456 233 448 C185 445 139 428 102 399 C97 419 87 434 70 449 L23 426 C48 402 54 373 54 282 L54 -269 L111 -269 L111 16 Z M111 361 C154 390 183 400 224 400 C319 400 382 327 382 218 C382 114 320 42 225 38 C184 36 156 44 111 69 L111 361 Z " />
<glyph glyph-name="q" unicode="q" horiz-adv-x="465" d="M414 410 C338 441 305 449 248 449 C121 449 26 350 26 218 C26 158 38 112 64 75 C99 25 159 -6 220 -6 C275 -6 306 4 357 40 L357 -269 L414 -269 L414 410 Z M357 85 C312 51 280 40 233 42 C142 47 86 118 86 227 C86 324 156 403 243 403 C286 403 316 396 357 375 L357 85 Z " />
<glyph glyph-name="r" unicode="r" horiz-adv-x="301" d="M299 431 C266 445 251 449 229 449 C188 449 159 426 107 349 C105 401 96 426 69 449 L22 426 C47 403 53 373 53 282 L53 0 L110 0 L110 302 C155 369 188 397 222 397 C246 397 257 395 286 382 L299 431 Z " />
<glyph glyph-name="s" unicode="s" horiz-adv-x="308" d="M276 408 C239 436 204 448 158 448 C80 448 21 385 29 311 C34 263 58 237 125 208 L173 187 C185 182 195 176 204 170 C226 157 237 137 237 112 C237 65 202 36 147 36 C105 36 61 56 31 90 L2 50 C39 10 86 -10 142 -10 C176 -10 205 -3 229 11 C265 32 291 75 291 114 C291 179 265 210 184 245 C138 264 123 272 108 283 C90 295 81 313 81 334 C81 374 118 403 167 400 C195 398 211 392 255 363 L276 408 Z " />
<glyph glyph-name="t" unicode="t" horiz-adv-x="296" d="M274 437 L151 437 L157 563 L121 563 L117 532 C111 477 106 459 96 449 C84 438 61 432 25 431 L0 430 L0 393 L94 393 L94 142 C94 83 96 68 104 47 C117 14 155 -8 197 -8 C243 -8 270 -2 308 15 L299 57 C273 46 259 43 236 41 C207 39 185 43 172 54 C155 67 151 87 151 149 L151 393 L274 393 L274 437 Z " />
<glyph glyph-name="u" unicode="u" horiz-adv-x="458" d="M397 437 L340 437 L340 96 C291 52 261 38 214 38 C182 38 155 47 136 63 C114 83 105 114 105 171 L105 437 L48 437 L48 170 C48 103 55 72 76 44 C102 10 148 -11 196 -11 C254 -11 296 7 345 53 C349 10 373 -10 419 -10 C432 -10 438 -9 452 -6 L460 34 C453 34 443 33 440 33 C420 33 408 39 403 53 C398 64 397 76 397 120 L397 437 Z " />
<glyph glyph-name="v" unicode="v" horiz-adv-x="399" d="M197 76 L195 84 C189 100 191 95 188 101 C180 126 172 146 164 167 L57 446 L2 431 L173 0 L224 0 L397 431 L347 446 L237 167 C229 149 223 132 216 113 C212 103 214 108 200 68 L197 76 Z " />
<glyph glyph-name="w" unicode="w" horiz-adv-x="641" d="M300 446 L246 431 L295 306 L242 163 C229 129 218 98 205 57 C191 100 181 126 168 160 L56 446 L2 431 L173 0 L223 0 L317 255 L415 0 L466 0 L637 431 L588 446 L479 166 C456 100 463 119 459 109 C451 86 450 85 443 63 C438 81 435 90 432 100 C425 118 413 151 407 166 L300 446 Z " />
<glyph glyph-name="x" unicode="x" horiz-adv-x="397" d="M199 266 L66 446 L10 430 L167 225 L2 7 L54 -9 L196 186 L338 -7 L394 9 L228 226 L382 430 L331 446 L199 266 Z " />
<glyph glyph-name="y" unicode="y" horiz-adv-x="394" d="M57 446 L3 431 L167 4 L133 -79 C90 -182 62 -211 6 -211 C-12 -211 -21 -210 -42 -205 L-51 -251 C-25 -256 -12 -258 9 -258 C86 -258 134 -212 182 -93 L393 431 L342 446 L234 167 C226 149 220 132 213 113 C209 103 211 108 197 68 C179 122 174 136 162 167 L57 446 Z " />
<glyph glyph-name="z" unicode="z" horiz-adv-x="372" d="M341 437 L25 437 L25 393 L273 393 L4 27 L12 0 L356 0 L366 44 L80 44 L349 411 L341 437 Z " />
<glyph glyph-name="braceleft" unicode="&#x7b;" horiz-adv-x="711" d="M350 670 C282 670 204 643 150 601 C71 539 25 441 25 334 C25 131 163 -14 355 -14 C552 -14 687 125 687 327 C687 460 629 569 526 628 C473 659 425 670 350 670 L350 670 Z M349 615 C504 615 621 490 621 325 C621 255 604 194 573 148 C525 77 454 43 355 43 C293 43 224 72 178 118 C124 171 92 252 92 334 C92 501 196 615 349 615 L349 615 Z M119 680 C96 680 79 663 79 640 C79 617 96 600 119 600 C142 600 159 617 159 640 C159 663 142 680 119 680 L119 680 Z M603 680 C580 680 563 663 563 640 C563 617 580 600 603 600 C626 600 643 617 643 640 C643 663 626 680 603 680 L603 680 Z " />
<glyph glyph-name="braceright" unicode="&#x7d;" horiz-adv-x="620" d="M50 656 L50 264 C50 195 54 160 64 128 C94 39 183 -14 305 -14 C377 -14 444 6 489 40 C548 86 570 146 570 263 L570 656 L508 656 L508 261 C508 186 499 144 478 113 C445 66 388 41 312 41 C218 41 148 82 124 151 C115 178 112 208 112 274 L112 656 L50 656 Z M209 680 C186 680 169 663 169 640 C169 617 186 600 209 600 C232 600 249 617 249 640 C249 663 232 680 209 680 L209 680 Z M414 680 C391 680 374 663 374 640 C374 617 391 600 414 600 C437 600 454 617 454 640 C454 663 437 680 414 680 L414 680 Z " />
<glyph glyph-name="asciitilde" unicode="&#x7e;" horiz-adv-x="565" d="M-12 0 L49 0 L141 230 L418 230 L510 0 L576 0 L347 560 C362 576 371 599 371 620 C371 672 334 709 283 709 C232 709 193 671 193 621 C193 594 200 576 216 558 L-12 0 Z M262 534 C270 532 275 532 281 532 C288 532 290 532 297 533 L398 278 L160 278 L262 534 Z M282 677 C312 677 336 652 336 620 C336 586 314 564 281 564 C252 564 228 589 228 620 C228 654 250 677 282 677 L282 677 Z " />
<glyph glyph-name="exclamdown" unicode="&#xa1;" horiz-adv-x="182" d="M113 0 L99 513 L58 513 L47 0 L113 0 Z M78 662 C55 662 39 645 39 620 C39 593 55 576 79 576 C101 576 117 594 117 618 C117 644 101 662 78 662 L78 662 Z " />
<glyph glyph-name="cent" unicode="&#xa2;" horiz-adv-x="388" d="M260 630 L216 630 L216 546 C107 533 25 438 25 325 C25 192 99 102 216 89 L216 1 L260 1 L260 89 C311 93 345 106 385 135 L363 175 C320 150 289 140 247 140 C209 140 167 158 138 186 C103 219 85 267 85 325 C85 425 151 498 241 498 C278 498 311 487 351 461 L380 504 C343 531 305 544 260 547 L260 630 Z " />
<glyph glyph-name="sterling" unicode="&#xa3;" horiz-adv-x="460" d="M440 638 C426 640 409 641 404 641 C347 641 301 623 265 586 C226 546 207 504 183 407 L159 310 L30 310 L30 265 L147 265 L124 165 C115 128 100 94 85 75 C65 51 48 43 8 38 L8 0 L443 0 L453 52 L123 52 C154 82 167 108 182 169 L204 265 L378 265 L378 310 L216 310 L233 379 C250 450 264 493 276 515 C300 559 338 583 391 589 C411 591 426 590 450 585 L440 638 Z " />
<glyph glyph-name="currency" unicode="&#xa4;" horiz-adv-x="513" d="M41 148 L75 114 L133 171 C140 178 143 182 150 193 C183 168 218 156 256 156 C294 156 330 168 363 193 C370 182 373 178 380 171 L437 114 L472 148 L414 205 C409 210 404 214 392 222 C417 254 429 290 429 329 C429 367 417 403 392 436 C404 443 409 447 414 452 L472 510 L437 544 L380 486 C373 480 370 475 363 465 C329 490 295 502 256 502 C218 502 183 490 150 465 C143 475 140 480 133 486 L75 544 L41 510 L99 452 C104 447 108 443 120 436 C95 403 83 368 83 329 C83 290 95 255 120 222 C108 214 104 210 99 205 L41 148 Z M256 457 C327 457 384 400 384 329 C384 259 326 201 256 201 C185 201 128 259 128 329 C128 400 185 457 256 457 L256 457 Z " />
<glyph glyph-name="section" unicode="&#xa7;" horiz-adv-x="399" d="M346 685 C308 703 276 710 239 708 C150 703 84 637 84 555 C84 516 93 492 123 452 C100 436 89 426 77 413 C45 379 25 328 25 284 C25 206 48 169 174 44 C251 -31 268 -58 268 -103 C268 -161 225 -201 160 -201 C132 -201 102 -192 68 -174 L52 -221 C89 -241 126 -250 169 -247 C265 -241 331 -172 324 -82 C321 -43 310 -18 277 23 C345 75 375 129 375 198 C375 228 366 260 350 286 C327 324 306 347 220 430 C158 490 139 520 139 558 C139 616 182 660 239 660 C272 660 291 655 329 637 L346 685 Z M244 329 C298 275 320 235 320 192 C320 134 297 86 251 47 L147 152 C102 197 79 244 79 290 C79 342 100 384 147 425 L244 329 Z " />
<glyph glyph-name="dieresis" unicode="&#xa8;" d="M-82 641 C-103 641 -119 625 -119 604 C-119 583 -103 567 -82 567 C-61 567 -45 583 -45 604 C-45 625 -61 641 -82 641 L-82 641 Z M87 641 C66 641 50 625 50 604 C50 583 66 567 87 567 C108 567 124 583 124 604 C124 625 108 641 87 641 L87 641 Z " />
<glyph glyph-name="guillemotleft" unicode="&#xab;" horiz-adv-x="374" d="M183 416 L20 223 L183 29 L202 76 L76 225 L202 376 L183 416 Z M329 416 L167 223 L329 29 L349 76 L222 225 L349 376 L329 416 Z " />
<glyph glyph-name="macron" unicode="&#xaf;" d="M-119 630 L-119 585 L117 585 L117 630 L-119 630 Z " />
<glyph glyph-name="acute" unicode="&#xb4;" d="M79 680 L-57 550 L-20 535 L138 665 L79 680 Z " />
<glyph glyph-name="paragraph" unicode="&#xb6;" horiz-adv-x="524" d="M243 -197 L266 -197 L266 632 L362 632 L362 -197 L385 -197 L385 632 L506 632 L506 656 L248 656 C190 656 160 651 128 636 C74 610 41 557 41 498 C41 443 71 393 120 365 C152 348 181 342 243 343 L243 -197 Z " />
<glyph glyph-name="cedilla" unicode="&#xb8;" d="M6 -45 C-19 -96 -48 -145 -91 -204 L-48 -213 C-30 -191 -17 -173 1 -146 C28 -105 42 -81 55 -49 L6 -45 Z " />
<glyph glyph-name="guillemotright" unicode="&#xbb;" horiz-adv-x="374" d="M191 29 L354 223 L191 416 L172 370 L298 220 L172 70 L191 29 Z M45 29 L207 223 L45 416 L25 370 L152 220 L25 70 L45 29 Z " />
<glyph glyph-name="questiondown" unicode="&#xbf;" horiz-adv-x="360" d="M309 79 C270 52 250 45 208 45 C142 45 88 95 88 156 C88 188 93 208 108 237 C120 261 122 264 187 343 C232 399 245 432 245 489 C245 492 244 505 243 515 L191 515 C192 506 192 494 192 490 C192 443 182 415 154 381 C150 377 129 352 94 312 C44 254 25 210 25 154 C25 65 101 -6 197 -6 C251 -6 289 7 335 41 L309 79 Z M217 582 C238 582 255 600 255 624 C255 649 239 667 216 667 C193 667 177 650 177 625 C177 599 193 582 217 582 L217 582 Z " />
<glyph glyph-name="Agrave" unicode="&#xc0;" horiz-adv-x="565" d="M510 0 L576 0 L300 673 L263 673 L-12 0 L49 0 L141 230 L418 230 L510 0 Z M398 278 L160 278 L250 501 C263 535 271 558 279 585 C288 556 296 535 309 501 L398 278 Z M205 826 L146 810 L304 681 L341 696 L205 826 Z " />
<glyph glyph-name="Aacute" unicode="&#xc1;" horiz-adv-x="565" d="M510 0 L576 0 L300 673 L263 673 L-12 0 L49 0 L141 230 L418 230 L510 0 Z M398 278 L160 278 L250 501 C263 535 271 558 279 585 C288 556 296 535 309 501 L398 278 Z M361 826 L225 696 L262 681 L420 810 L361 826 Z " />
<glyph glyph-name="Acircumflex" unicode="&#xc2;" horiz-adv-x="565" d="M510 0 L576 0 L300 673 L263 673 L-12 0 L49 0 L141 230 L418 230 L510 0 Z M398 278 L160 278 L250 501 C263 535 271 558 279 585 C288 556 296 535 309 501 L398 278 Z M192 679 L281 790 L369 679 L417 690 L306 827 L261 827 L150 690 L192 679 Z " />
<glyph glyph-name="Atilde" unicode="&#xc3;" horiz-adv-x="565" d="M510 0 L576 0 L300 673 L263 673 L-12 0 L49 0 L141 230 L418 230 L510 0 Z M398 278 L160 278 L250 501 C263 535 271 558 279 585 C288 556 296 535 309 501 L398 278 Z M402 800 C387 763 370 746 347 746 C332 746 319 752 290 773 C261 795 243 802 220 801 C179 799 155 776 132 713 L161 706 C178 743 194 759 216 759 C233 759 248 752 273 734 C306 710 321 704 344 705 C385 708 414 736 433 794 L402 800 Z " />
<glyph glyph-name="Adieresis" unicode="&#xc4;" horiz-adv-x="565" d="M510 0 L576 0 L300 673 L263 673 L-12 0 L49 0 L141 230 L418 230 L510 0 Z M398 278 L160 278 L250 501 C263 535 271 558 279 585 C288 556 296 535 309 501 L398 278 Z M201 787 C180 787 164 771 164 750 C164 729 180 713 201 713 C222 713 238 729 238 750 C238 771 222 787 201 787 L201 787 Z M370 787 C349 787 333 771 333 750 C333 729 349 713 370 713 C391 713 407 729 407 750 C407 771 391 787 370 787 L370 787 Z " />
<glyph glyph-name="Aring" unicode="&#xc5;" horiz-adv-x="565" d="M-12 0 L49 0 L141 230 L418 230 L510 0 L576 0 L303 665 C345 676 371 709 371 751 C371 803 334 840 283 840 C232 840 193 802 193 752 C193 706 215 677 260 665 L-12 0 Z M398 278 L160 278 L250 501 C263 535 271 558 279 585 C288 557 296 535 309 501 L398 278 Z M282 810 C313 810 338 784 338 751 C338 716 315 693 281 693 C251 693 226 719 226 751 C226 786 249 810 282 810 L282 810 Z " />
<glyph glyph-name="AE" unicode="&#xc6;" horiz-adv-x="839" d="M455 243 L455 0 L826 0 L835 54 L517 54 L517 320 L766 320 L766 372 L517 372 L517 604 L794 604 L794 656 L421 656 L-12 0 L54 0 L214 243 L455 243 Z M455 294 L245 294 L455 612 L455 294 Z " />
<glyph glyph-name="Ccedilla" unicode="&#xc7;" horiz-adv-x="561" d="M554 617 C492 653 428 670 357 670 C270 670 185 637 125 578 C63 519 25 425 25 334 C25 229 55 147 115 85 C174 24 263 -14 350 -14 C435 -14 500 5 560 47 L536 96 C480 59 431 45 353 45 C286 45 210 79 164 131 C117 184 91 255 91 332 C91 497 198 613 351 613 C413 613 460 600 526 564 L554 617 Z M286 -45 C262 -96 232 -145 189 -204 L232 -213 C250 -191 263 -173 281 -146 C309 -105 322 -81 335 -49 L286 -45 Z " />
<glyph glyph-name="Egrave" unicode="&#xc8;" horiz-adv-x="435" d="M391 656 L52 656 L52 0 L423 0 L433 54 L114 54 L114 320 L363 320 L363 372 L114 372 L114 604 L391 604 L391 656 Z M140 826 L81 810 L239 681 L276 696 L140 826 Z " />
<glyph glyph-name="Eacute" unicode="&#xc9;" horiz-adv-x="435" d="M391 656 L52 656 L52 0 L423 0 L433 54 L114 54 L114 320 L363 320 L363 372 L114 372 L114 604 L391 604 L391 656 Z M297 826 L160 696 L197 681 L356 810 L297 826 Z " />
<glyph glyph-name="Ecircumflex" unicode="&#xca;" horiz-adv-x="435" d="M391 656 L52 656 L52 0 L423 0 L433 54 L114 54 L114 320 L363 320 L363 372 L114 372 L114 604 L391 604 L391 656 Z M127 679 L217 790 L304 679 L352 690 L241 827 L196 827 L85 690 L127 679 Z " />
<glyph glyph-name="Edieresis" unicode="&#xcb;" horiz-adv-x="435" d="M391 656 L52 656 L52 0 L423 0 L433 54 L114 54 L114 320 L363 320 L363 372 L114 372 L114 604 L391 604 L391 656 Z M136 787 C115 787 99 771 99 750 C99 729 115 713 136 713 C157 713 173 729 173 750 C173 771 157 787 136 787 L136 787 Z M305 787 C284 787 268 771 268 750 C268 729 284 713 305 713 C326 713 342 729 342 750 C342 771 326 787 305 787 L305 787 Z " />
<glyph glyph-name="Igrave" unicode="&#xcc;" horiz-adv-x="166" d="M114 656 L52 656 L52 0 L114 0 L114 656 Z M5 826 L-54 810 L104 681 L141 696 L5 826 Z " />
<glyph glyph-name="Iacute" unicode="&#xcd;" horiz-adv-x="166" d="M114 656 L52 656 L52 0 L114 0 L114 656 Z M162 826 L26 696 L63 681 L221 810 L162 826 Z " />
<glyph glyph-name="Icircumflex" unicode="&#xce;" horiz-adv-x="166" d="M114 656 L52 656 L52 0 L114 0 L114 656 Z M-7 679 L82 790 L170 679 L218 690 L107 827 L62 827 L-49 690 L-7 679 Z " />
<glyph glyph-name="Idieresis" unicode="&#xcf;" horiz-adv-x="166" d="M115 656 L53 656 L53 0 L115 0 L115 656 Z M2 787 C-19 787 -35 771 -35 750 C-35 729 -19 713 2 713 C23 713 39 729 39 750 C39 771 23 787 2 787 L2 787 Z M171 787 C150 787 134 771 134 750 C134 729 150 713 171 713 C192 713 208 729 208 750 C208 771 192 787 171 787 L171 787 Z " />
<glyph glyph-name="Ntilde" unicode="&#xd1;" horiz-adv-x="654" d="M52 654 L52 0 L107 0 L107 411 C107 430 107 451 106 488 C106 510 106 493 105 538 L105 554 C139 512 158 488 176 466 C192 446 212 422 223 409 L571 -8 L601 3 L601 656 L546 656 L546 249 C546 229 546 207 547 173 C547 152 547 173 548 106 C486 186 511 155 431 251 L86 665 L52 654 Z M447 800 C431 763 415 746 392 746 C376 746 363 752 335 773 C305 795 287 802 264 801 C223 799 200 776 176 713 L206 706 C222 743 238 759 261 759 C277 759 292 752 317 734 C351 710 365 704 388 705 C430 708 458 736 477 794 L447 800 Z " />
<glyph glyph-name="Ograve" unicode="&#xd2;" horiz-adv-x="711" d="M350 670 C282 670 204 643 150 601 C71 539 25 441 25 334 C25 131 163 -14 355 -14 C552 -14 687 125 687 327 C687 460 629 569 526 628 C473 659 425 670 350 670 L350 670 Z M349 615 C504 615 621 490 621 325 C621 255 604 194 573 148 C525 77 454 43 355 43 C293 43 224 72 178 118 C124 171 92 252 92 334 C92 501 196 615 349 615 L349 615 Z M278 826 L219 810 L378 681 L414 696 L278 826 Z " />
<glyph glyph-name="Oacute" unicode="&#xd3;" horiz-adv-x="711" d="M350 670 C282 670 204 643 150 601 C71 539 25 441 25 334 C25 131 163 -14 355 -14 C552 -14 687 125 687 327 C687 460 629 569 526 628 C473 659 425 670 350 670 L350 670 Z M349 615 C504 615 621 490 621 325 C621 255 604 194 573 148 C525 77 454 43 355 43 C293 43 224 72 178 118 C124 171 92 252 92 334 C92 501 196 615 349 615 L349 615 Z M435 826 L299 696 L335 681 L494 810 L435 826 Z " />
<glyph glyph-name="Ocircumflex" unicode="&#xd4;" horiz-adv-x="711" d="M350 670 C282 670 204 643 150 601 C71 539 25 441 25 334 C25 131 163 -14 355 -14 C552 -14 687 125 687 327 C687 460 629 569 526 628 C473 659 425 670 350 670 L350 670 Z M349 615 C504 615 621 490 621 325 C621 255 604 194 573 148 C525 77 454 43 355 43 C293 43 224 72 178 118 C124 171 92 252 92 334 C92 501 196 615 349 615 L349 615 Z M266 679 L355 790 L442 679 L491 690 L379 827 L334 827 L224 690 L266 679 Z " />
<glyph glyph-name="Otilde" unicode="&#xd5;" horiz-adv-x="711" d="M350 670 C282 670 204 643 150 601 C71 539 25 441 25 334 C25 131 163 -14 355 -14 C552 -14 687 125 687 327 C687 460 629 569 526 628 C473 659 425 670 350 670 L350 670 Z M349 615 C504 615 621 490 621 325 C621 255 604 194 573 148 C525 77 454 43 355 43 C293 43 224 72 178 118 C124 171 92 252 92 334 C92 501 196 615 349 615 L349 615 Z M476 800 C460 763 444 746 421 746 C405 746 392 752 364 773 C334 795 316 802 293 801 C253 799 229 776 205 713 L235 706 C251 743 267 759 290 759 C306 759 322 752 347 734 C380 710 395 704 418 705 C459 708 487 736 506 794 L476 800 Z " />
<glyph glyph-name="Odieresis" unicode="&#xd6;" horiz-adv-x="711" d="M350 670 C282 670 204 643 150 601 C71 539 25 441 25 334 C25 131 163 -14 355 -14 C552 -14 687 125 687 327 C687 460 629 569 526 628 C473 659 425 670 350 670 L350 670 Z M349 615 C504 615 621 490 621 325 C621 255 604 194 573 148 C525 77 454 43 355 43 C293 43 224 72 178 118 C124 171 92 252 92 334 C92 501 196 615 349 615 L349 615 Z M274 787 C253 787 237 771 237 750 C237 729 253 713 274 713 C295 713 311 729 311 750 C311 771 295 787 274 787 L274 787 Z M444 787 C423 787 407 771 407 750 C407 729 423 713 444 713 C465 713 481 729 481 750 C481 771 465 787 444 787 L444 787 Z " />
<glyph glyph-name="multiply" unicode="&#xd7;" horiz-adv-x="513" d="M101 508 L67 474 L223 318 L67 162 L101 128 L257 284 L413 128 L447 162 L291 318 L447 474 L413 508 L257 352 L101 508 Z " />
<glyph glyph-name="Oslash" unicode="&#xd8;" horiz-adv-x="711" d="M546 614 C491 652 426 670 350 670 C168 670 25 522 25 334 C25 222 62 133 137 66 L77 -15 L118 -22 L167 43 C221 6 288 -14 355 -14 C552 -14 687 125 687 327 C687 433 648 527 576 592 L635 671 L594 678 L546 614 Z M177 119 C122 175 92 252 92 334 C92 501 196 615 348 615 C407 615 458 598 508 563 L177 119 Z M536 539 C591 484 621 407 621 325 C621 253 605 195 573 148 C524 76 454 43 355 43 C306 43 248 63 205 94 L536 539 Z " />
<glyph glyph-name="Ugrave" unicode="&#xd9;" horiz-adv-x="620" d="M50 656 L50 264 C50 195 54 160 64 128 C94 39 183 -14 305 -14 C377 -14 444 6 489 40 C548 86 570 146 570 263 L570 656 L508 656 L508 261 C508 186 499 144 478 113 C445 66 388 41 312 41 C218 41 148 82 124 151 C115 178 112 208 112 274 L112 656 L50 656 Z M232 826 L173 810 L332 681 L368 696 L232 826 Z " />
<glyph glyph-name="Uacute" unicode="&#xda;" horiz-adv-x="620" d="M50 656 L50 264 C50 195 54 160 64 128 C94 39 183 -14 305 -14 C377 -14 444 6 489 40 C548 86 570 146 570 263 L570 656 L508 656 L508 261 C508 186 499 144 478 113 C445 66 388 41 312 41 C218 41 148 82 124 151 C115 178 112 208 112 274 L112 656 L50 656 Z M389 826 L253 696 L289 681 L448 810 L389 826 Z " />
<glyph glyph-name="Ucircumflex" unicode="&#xdb;" horiz-adv-x="620" d="M50 656 L50 264 C50 195 54 160 64 128 C94 39 183 -14 305 -14 C377 -14 444 6 489 40 C548 86 570 146 570 263 L570 656 L508 656 L508 261 C508 186 499 144 478 113 C445 66 388 41 312 41 C218 41 148 82 124 151 C115 178 112 208 112 274 L112 656 L50 656 Z M220 679 L309 790 L396 679 L445 690 L333 827 L288 827 L178 690 L220 679 Z " />
<glyph glyph-name="Udieresis" unicode="&#xdc;" horiz-adv-x="620" d="M50 656 L50 264 C50 195 54 160 64 128 C94 39 183 -14 305 -14 C377 -14 444 6 489 40 C548 86 570 146 570 263 L570 656 L508 656 L508 261 C508 186 499 144 478 113 C445 66 388 41 312 41 C218 41 148 82 124 151 C115 178 112 208 112 274 L112 656 L50 656 Z M228 787 C207 787 191 771 191 750 C191 729 207 713 228 713 C249 713 265 729 265 750 C265 771 249 787 228 787 L228 787 Z M398 787 C377 787 361 771 361 750 C361 729 377 713 398 713 C419 713 435 729 435 750 C435 771 419 787 398 787 L398 787 Z " />
<glyph glyph-name="Yacute" unicode="&#xdd;" horiz-adv-x="536" d="M272 355 L63 667 L2 649 L238 300 L238 0 L300 0 L300 300 L533 649 L478 667 L272 355 Z M347 826 L211 696 L247 681 L406 810 L347 826 Z " />
<glyph glyph-name="germandbls" unicode="&#xdf;" horiz-adv-x="440" d="M50 0 L107 0 L107 441 C107 503 111 531 125 561 C141 594 172 617 208 623 C266 633 315 599 321 545 C326 504 308 465 271 431 L258 420 L246 409 L233 397 C229 394 226 391 223 387 C208 368 199 346 199 326 C199 305 207 285 219 271 C232 258 248 245 296 215 C357 175 367 162 367 122 C367 74 329 40 275 40 C234 40 200 52 166 81 L147 37 C185 8 228 -6 274 -6 C361 -6 422 50 422 129 C422 155 414 179 400 199 C388 216 375 226 336 253 L320 263 L290 283 C287 285 283 288 280 290 C259 305 252 313 249 327 C245 344 252 358 281 384 C325 423 342 440 356 464 C372 490 378 526 373 558 C360 632 290 678 207 667 C148 659 98 623 72 571 C56 539 50 504 50 444 L50 0 Z " />
<glyph glyph-name="agrave" unicode="&#xe0;" horiz-adv-x="388" d="M40 356 C84 381 126 395 171 398 C201 400 228 392 245 375 C263 358 269 339 268 294 L268 271 C209 265 187 262 164 257 C71 236 22 190 18 118 C14 45 66 -11 139 -11 C188 -11 233 6 274 40 C283 6 307 -10 347 -10 C360 -10 365 -9 381 -6 L388 34 C381 34 371 33 368 33 C348 33 336 39 331 53 C326 64 325 76 325 120 L325 289 C325 345 319 376 302 397 C278 430 237 447 183 447 C138 447 91 433 40 405 L40 356 Z M268 77 C226 46 197 35 159 35 C107 35 72 70 75 119 C80 187 127 216 268 233 L268 77 Z M112 680 L53 665 L211 535 L248 550 L112 680 Z " />
<glyph glyph-name="aacute" unicode="&#xe1;" horiz-adv-x="388" d="M40 356 C84 381 126 395 171 398 C201 400 228 392 245 375 C263 358 269 339 268 294 L268 271 C209 265 187 262 164 257 C71 236 22 190 18 118 C14 45 66 -11 139 -11 C188 -11 233 6 274 40 C283 6 307 -10 347 -10 C360 -10 365 -9 381 -6 L388 34 C381 34 371 33 368 33 C348 33 336 39 331 53 C326 64 325 76 325 120 L325 289 C325 345 319 376 302 397 C278 430 237 447 183 447 C138 447 91 433 40 405 L40 356 Z M268 77 C226 46 197 35 159 35 C107 35 72 70 75 119 C80 187 127 216 268 233 L268 77 Z M269 680 L133 550 L170 535 L328 665 L269 680 Z " />
<glyph glyph-name="acircumflex" unicode="&#xe2;" horiz-adv-x="388" d="M40 356 C84 381 126 395 171 398 C201 400 228 392 245 375 C263 358 269 339 268 294 L268 271 C209 265 187 262 164 257 C71 236 22 190 18 118 C14 45 66 -11 139 -11 C188 -11 233 6 274 40 C283 6 307 -10 347 -10 C360 -10 365 -9 381 -6 L388 34 C381 34 371 33 368 33 C348 33 336 39 331 53 C326 64 325 76 325 120 L325 289 C325 345 319 376 302 397 C278 430 237 447 183 447 C138 447 91 433 40 405 L40 356 Z M268 77 C226 46 197 35 159 35 C107 35 72 70 75 119 C80 187 127 216 268 233 L268 77 Z M100 534 L189 645 L277 534 L325 545 L214 682 L169 682 L58 545 L100 534 Z " />
<glyph glyph-name="atilde" unicode="&#xe3;" horiz-adv-x="388" d="M40 356 C84 381 126 395 171 398 C201 400 228 392 245 375 C263 358 269 339 268 294 L268 271 C209 265 187 262 164 257 C71 236 22 190 18 118 C14 45 66 -11 139 -11 C188 -11 233 6 274 40 C283 6 307 -10 347 -10 C360 -10 365 -9 381 -6 L388 34 C381 34 371 33 368 33 C348 33 336 39 331 53 C326 64 325 76 325 120 L325 289 C325 345 319 376 302 397 C278 430 237 447 183 447 C138 447 91 433 40 405 L40 356 Z M268 77 C226 46 197 35 159 35 C107 35 72 70 75 119 C80 187 127 216 268 233 L268 77 Z M309 654 C294 616 277 600 254 600 C239 600 226 606 197 627 C168 649 150 656 127 655 C86 653 63 629 39 567 L68 559 C85 597 101 613 124 613 C140 613 155 606 180 588 C213 564 228 558 251 559 C293 562 321 590 340 647 L309 654 Z " />
<glyph glyph-name="adieresis" unicode="&#xe4;" horiz-adv-x="388" d="M40 356 C84 381 126 395 171 398 C201 400 228 392 245 375 C263 358 269 339 268 294 L268 271 C209 265 187 262 164 257 C71 236 22 190 18 118 C14 45 66 -11 139 -11 C188 -11 233 6 274 40 C283 6 307 -10 347 -10 C360 -10 365 -9 381 -6 L388 34 C381 34 371 33 368 33 C348 33 336 39 331 53 C326 64 325 76 325 120 L325 289 C325 345 319 376 302 397 C278 430 237 447 183 447 C138 447 91 433 40 405 L40 356 Z M268 77 C226 46 197 35 159 35 C107 35 72 70 75 119 C80 187 127 216 268 233 L268 77 Z M108 641 C87 641 71 625 71 604 C71 583 87 567 108 567 C129 567 145 583 145 604 C145 625 129 641 108 641 L108 641 Z M277 641 C256 641 240 625 240 604 C240 583 256 567 277 567 C298 567 314 583 314 604 C314 625 298 641 277 641 L277 641 Z " />
<glyph glyph-name="aring" unicode="&#xe5;" horiz-adv-x="388" d="M40 356 C84 381 126 395 171 398 C201 400 228 392 245 375 C263 358 269 339 268 294 L268 271 C209 265 187 262 164 257 C71 236 22 190 18 118 C14 45 66 -11 139 -11 C188 -11 233 6 274 40 C283 6 307 -10 347 -10 C360 -10 365 -9 381 -6 L388 34 C381 34 371 33 368 33 C348 33 336 39 331 53 C326 64 325 76 325 120 L325 289 C325 345 319 376 302 397 C278 430 237 447 183 447 C138 447 91 433 40 405 L40 356 Z M268 77 C226 46 197 35 159 35 C107 35 72 70 75 119 C80 187 127 216 268 233 L268 77 Z M191 693 C140 693 101 655 101 605 C101 553 137 517 189 517 C239 517 279 556 279 604 C279 656 242 693 191 693 L191 693 Z M190 663 C221 663 246 637 246 605 C246 570 223 547 189 547 C159 547 134 573 134 605 C134 640 156 663 190 663 L190 663 Z " />
<glyph glyph-name="ae" unicode="&#xe6;" horiz-adv-x="684" d="M665 263 C664 306 658 331 645 358 C616 415 557 449 485 449 C420 449 374 424 331 365 C315 422 265 453 194 449 C145 446 94 431 49 406 L49 356 C94 384 136 398 182 401 C247 406 286 377 290 321 C291 308 290 293 289 276 C234 270 209 267 184 262 C72 241 22 199 18 121 C14 46 70 -11 147 -11 C217 -11 265 11 329 72 C372 17 428 -11 494 -11 C563 -11 619 12 665 61 L636 94 C600 58 555 40 501 40 C440 40 383 78 357 136 C344 166 339 191 340 235 L643 235 L665 263 Z M344 276 C357 352 411 402 480 402 C556 402 605 355 612 276 L344 276 Z M286 237 C285 225 285 216 285 206 C285 171 290 148 309 105 C296 94 285 84 274 76 C242 51 201 36 165 36 C110 36 75 69 75 121 C75 166 109 201 169 216 C202 225 223 229 286 237 L286 237 Z " />
<glyph glyph-name="ccedilla" unicode="&#xe7;" horiz-adv-x="388" d="M380 404 C338 435 295 449 240 449 C122 449 25 348 25 225 C25 83 111 -11 241 -11 C297 -11 341 3 385 36 L363 76 C316 48 281 38 241 41 C148 47 85 122 85 226 C85 327 151 399 241 399 C279 399 309 389 351 361 L380 404 Z M200 -45 C175 -96 146 -145 103 -204 L145 -213 C164 -191 177 -173 194 -146 C222 -105 235 -81 249 -49 L200 -45 Z " />
<glyph glyph-name="egrave" unicode="&#xe8;" horiz-adv-x="426" d="M384 239 L407 267 C406 306 401 330 385 359 C353 420 301 449 227 449 C117 449 25 348 25 228 C25 163 37 117 66 76 C105 22 168 -11 235 -11 C307 -11 360 11 407 59 L377 92 C339 56 298 40 244 40 C152 40 84 117 84 220 L84 239 L384 239 Z M87 280 C92 304 96 316 103 329 C127 373 175 402 225 402 C297 402 346 355 353 280 L87 280 Z M135 680 L76 665 L234 535 L271 550 L135 680 Z " />
<glyph glyph-name="eacute" unicode="&#xe9;" horiz-adv-x="426" d="M384 239 L407 267 C406 306 401 330 385 359 C353 420 301 449 227 449 C117 449 25 348 25 228 C25 163 37 117 66 76 C105 22 168 -11 235 -11 C307 -11 360 11 407 59 L377 92 C339 56 298 40 244 40 C152 40 84 117 84 220 L84 239 L384 239 Z M87 280 C92 304 96 316 103 329 C127 373 175 402 225 402 C297 402 346 355 353 280 L87 280 Z M292 680 L156 550 L193 535 L351 665 L292 680 Z " />
<glyph glyph-name="ecircumflex" unicode="&#xea;" horiz-adv-x="426" d="M384 239 L407 267 C406 306 401 330 385 359 C353 420 301 449 227 449 C117 449 25 348 25 228 C25 163 37 117 66 76 C105 22 168 -11 235 -11 C307 -11 360 11 407 59 L377 92 C339 56 298 40 244 40 C152 40 84 117 84 220 L84 239 L384 239 Z M87 280 C92 304 96 316 103 329 C127 373 175 402 225 402 C297 402 346 355 353 280 L87 280 Z M123 534 L212 645 L300 534 L348 545 L237 682 L192 682 L81 545 L123 534 Z " />
<glyph glyph-name="edieresis" unicode="&#xeb;" horiz-adv-x="426" d="M384 239 L407 267 C406 306 401 330 385 359 C353 420 301 449 227 449 C117 449 25 348 25 228 C25 163 37 117 66 76 C105 22 168 -11 235 -11 C307 -11 360 11 407 59 L377 92 C339 56 298 40 244 40 C152 40 84 117 84 220 L84 239 L384 239 Z M87 280 C92 304 96 316 103 329 C127 373 175 402 225 402 C297 402 346 355 353 280 L87 280 Z M132 641 C111 641 95 625 95 604 C95 583 111 567 132 567 C153 567 169 583 169 604 C169 625 153 641 132 641 L132 641 Z M301 641 C280 641 264 625 264 604 C264 583 280 567 301 567 C322 567 338 583 338 604 C338 625 322 641 301 641 L301 641 Z " />
<glyph glyph-name="igrave" unicode="&#xec;" horiz-adv-x="157" d="M107 437 L50 437 L50 0 L107 0 L107 437 Z M1 680 L-58 665 L100 535 L137 550 L1 680 Z " />
<glyph glyph-name="iacute" unicode="&#xed;" horiz-adv-x="157" d="M108 437 L51 437 L51 0 L108 0 L108 437 Z M158 680 L22 550 L59 535 L217 665 L158 680 Z " />
<glyph glyph-name="icircumflex" unicode="&#xee;" horiz-adv-x="157" d="M107 437 L50 437 L50 0 L107 0 L107 437 Z M-12 534 L77 645 L165 534 L213 545 L102 682 L57 682 L-54 545 L-12 534 Z " />
<glyph glyph-name="idieresis" unicode="&#xef;" horiz-adv-x="157" d="M107 437 L50 437 L50 0 L107 0 L107 437 Z M-3 641 C-24 641 -40 625 -40 604 C-40 583 -24 567 -3 567 C18 567 34 583 34 604 C34 625 18 641 -3 641 L-3 641 Z M166 641 C145 641 129 625 129 604 C129 583 145 567 166 567 C187 567 203 583 203 604 C203 625 187 641 166 641 L166 641 Z " />
<glyph glyph-name="ntilde" unicode="&#xf1;" horiz-adv-x="458" d="M23 426 C48 403 54 373 54 282 L54 0 L111 0 L111 328 C155 378 195 400 242 400 C278 400 305 389 326 367 C346 345 353 319 353 262 L353 0 L410 0 L410 290 C410 390 351 449 252 449 C221 449 183 436 155 416 C139 405 127 394 107 371 C102 410 93 429 70 449 L23 426 Z M349 654 C334 616 317 600 294 600 C279 600 266 606 237 627 C208 649 190 656 167 655 C126 653 103 629 79 567 L108 559 C125 597 141 613 164 613 C180 613 195 606 220 588 C253 564 268 558 291 559 C333 562 361 590 380 647 L349 654 Z " />
<glyph glyph-name="ograve" unicode="&#xf2;" horiz-adv-x="488" d="M243 448 C119 448 25 349 25 218 C25 164 42 109 72 70 C112 15 171 -11 250 -11 C375 -11 462 86 462 225 C462 353 369 448 243 448 L243 448 Z M236 399 C335 399 403 322 403 211 C403 106 341 36 247 36 C155 36 84 118 84 225 C84 328 146 399 236 399 L236 399 Z M166 680 L107 665 L265 535 L302 550 L166 680 Z " />
<glyph glyph-name="oacute" unicode="&#xf3;" horiz-adv-x="488" d="M243 448 C119 448 25 349 25 218 C25 164 42 109 72 70 C112 15 171 -11 250 -11 C375 -11 462 86 462 225 C462 353 369 448 243 448 L243 448 Z M236 399 C335 399 403 322 403 211 C403 106 341 36 247 36 C155 36 84 118 84 225 C84 328 146 399 236 399 L236 399 Z M323 680 L187 550 L224 535 L382 665 L323 680 Z " />
<glyph glyph-name="ocircumflex" unicode="&#xf4;" horiz-adv-x="488" d="M243 448 C119 448 25 349 25 218 C25 164 42 109 72 70 C112 15 171 -11 250 -11 C375 -11 462 86 462 225 C462 353 369 448 243 448 L243 448 Z M236 399 C335 399 403 322 403 211 C403 106 341 36 247 36 C155 36 84 118 84 225 C84 328 146 399 236 399 L236 399 Z M154 534 L243 645 L331 534 L379 545 L268 682 L223 682 L112 545 L154 534 Z " />
<glyph glyph-name="otilde" unicode="&#xf5;" horiz-adv-x="488" d="M243 448 C119 448 25 349 25 218 C25 164 42 109 72 70 C112 15 171 -11 250 -11 C375 -11 462 86 462 225 C462 353 369 448 243 448 L243 448 Z M236 399 C335 399 403 322 403 211 C403 106 341 36 247 36 C155 36 84 118 84 225 C84 328 146 399 236 399 L236 399 Z M363 654 C348 616 331 600 308 600 C293 600 280 606 251 627 C222 649 204 656 181 655 C140 653 117 629 93 567 L122 559 C139 597 155 613 178 613 C194 613 209 606 234 588 C267 564 282 558 305 559 C347 562 375 590 394 647 L363 654 Z " />
<glyph glyph-name="odieresis" unicode="&#xf6;" horiz-adv-x="488" d="M243 448 C119 448 25 349 25 218 C25 164 42 109 72 70 C112 15 171 -11 250 -11 C375 -11 462 86 462 225 C462 353 369 448 243 448 L243 448 Z M236 399 C335 399 403 322 403 211 C403 106 341 36 247 36 C155 36 84 118 84 225 C84 328 146 399 236 399 L236 399 Z M162 641 C141 641 125 625 125 604 C125 583 141 567 162 567 C183 567 199 583 199 604 C199 625 183 641 162 641 L162 641 Z M331 641 C310 641 294 625 294 604 C294 583 310 567 331 567 C352 567 368 583 368 604 C368 625 352 641 331 641 L331 641 Z " />
<glyph glyph-name="divide" unicode="&#xf7;" horiz-adv-x="513" d="M256 503 C237 503 221 487 221 468 C221 449 237 433 256 433 C275 433 291 449 291 468 C291 487 275 503 256 503 L256 503 Z M256 202 C237 202 221 186 221 167 C221 148 237 132 256 132 C275 132 291 148 291 167 C291 186 275 202 256 202 L256 202 Z M47 341 L47 294 L465 294 L465 341 L47 341 Z " />
<glyph glyph-name="oslash" unicode="&#xf8;" horiz-adv-x="488" d="M367 412 C331 436 290 448 243 448 C119 448 25 349 25 217 C25 148 49 89 94 45 L49 -16 L85 -23 L120 24 C160 -2 195 -11 250 -11 C375 -11 462 86 462 225 C462 288 436 351 393 392 L438 453 L403 460 L367 412 Z M129 92 C99 130 84 174 84 225 C84 328 146 399 236 399 C274 399 305 389 334 368 L129 92 Z M359 345 C387 312 403 262 403 211 C403 105 341 36 247 36 C214 36 181 47 153 69 L359 345 Z " />
<glyph glyph-name="ugrave" unicode="&#xf9;" horiz-adv-x="458" d="M397 437 L340 437 L340 96 C291 52 261 38 214 38 C182 38 155 47 136 63 C114 83 105 114 105 171 L105 437 L48 437 L48 170 C48 103 55 72 76 44 C102 10 148 -11 196 -11 C254 -11 296 7 345 53 C349 10 373 -10 419 -10 C432 -10 438 -9 452 -6 L460 34 C453 34 443 33 440 33 C420 33 408 39 403 53 C398 64 397 76 397 120 L397 437 Z M152 680 L93 665 L251 535 L288 550 L152 680 Z " />
<glyph glyph-name="uacute" unicode="&#xfa;" horiz-adv-x="458" d="M397 437 L340 437 L340 96 C291 52 261 38 214 38 C182 38 155 47 136 63 C114 83 105 114 105 171 L105 437 L48 437 L48 170 C48 103 55 72 76 44 C102 10 148 -11 196 -11 C254 -11 296 7 345 53 C349 10 373 -10 419 -10 C432 -10 438 -9 452 -6 L460 34 C453 34 443 33 440 33 C420 33 408 39 403 53 C398 64 397 76 397 120 L397 437 Z M309 680 L173 550 L210 535 L368 665 L309 680 Z " />
<glyph glyph-name="ucircumflex" unicode="&#xfb;" horiz-adv-x="458" d="M397 437 L340 437 L340 96 C291 52 261 38 214 38 C182 38 155 47 136 63 C114 83 105 114 105 171 L105 437 L48 437 L48 170 C48 103 55 72 76 44 C102 10 148 -11 196 -11 C254 -11 296 7 345 53 C349 10 373 -10 419 -10 C432 -10 438 -9 452 -6 L460 34 C453 34 443 33 440 33 C420 33 408 39 403 53 C398 64 397 76 397 120 L397 437 Z M139 534 L228 645 L316 534 L364 545 L253 682 L208 682 L97 545 L139 534 Z " />
<glyph glyph-name="udieresis" unicode="&#xfc;" horiz-adv-x="458" d="M397 437 L340 437 L340 96 C291 52 261 38 214 38 C182 38 155 47 136 63 C114 83 105 114 105 171 L105 437 L48 437 L48 170 C48 103 55 72 76 44 C102 10 148 -11 196 -11 C254 -11 296 7 345 53 C349 10 373 -10 419 -10 C432 -10 438 -9 452 -6 L460 34 C453 34 443 33 440 33 C420 33 408 39 403 53 C398 64 397 76 397 120 L397 437 Z M148 641 C127 641 111 625 111 604 C111 583 127 567 148 567 C169 567 185 583 185 604 C185 625 169 641 148 641 L148 641 Z M317 641 C296 641 280 625 280 604 C280 583 296 567 317 567 C338 567 354 583 354 604 C354 625 338 641 317 641 L317 641 Z " />
<glyph glyph-name="yacute" unicode="&#xfd;" horiz-adv-x="394" d="M57 446 L3 431 L167 4 L133 -79 C90 -182 62 -211 6 -211 C-12 -211 -21 -210 -42 -205 L-51 -251 C-25 -256 -12 -258 9 -258 C86 -258 134 -212 182 -93 L393 431 L342 446 L234 167 C226 149 220 132 213 113 C209 103 211 108 197 68 C179 122 174 136 162 167 L57 446 Z M276 680 L140 550 L176 535 L335 665 L276 680 Z " />
<glyph glyph-name="ydieresis" unicode="&#xff;" horiz-adv-x="394" d="M57 446 L3 431 L167 4 L133 -79 C90 -182 62 -211 6 -211 C-12 -211 -21 -210 -42 -205 L-51 -251 C-25 -256 -12 -258 9 -258 C86 -258 134 -212 182 -93 L393 431 L342 446 L234 167 C226 149 220 132 213 113 C209 103 211 108 197 68 C179 122 174 136 162 167 L57 446 Z M115 641 C94 641 78 625 78 604 C78 583 94 567 115 567 C136 567 152 583 152 604 C152 625 136 641 115 641 L115 641 Z M284 641 C263 641 247 625 247 604 C247 583 263 567 284 567 C305 567 321 583 321 604 C321 625 305 641 284 641 L284 641 Z " />
<glyph glyph-name="dotlessi" unicode="&#x131;" horiz-adv-x="157" d="M107 437 L50 437 L50 0 L107 0 L107 437 Z " />
<glyph glyph-name="OE" unicode="&#x152;" horiz-adv-x="907" d="M524 628 C473 656 415 670 349 670 C167 670 24 522 24 334 C24 131 162 -14 354 -14 C420 -14 469 -2 524 27 L524 0 L895 0 L905 54 L586 54 L586 320 L835 320 L835 372 L586 372 L586 604 L863 604 L863 656 L524 656 L524 628 Z M524 89 C463 54 423 43 354 43 C292 43 223 72 177 118 C123 171 91 253 91 335 C91 501 195 615 348 615 C410 615 457 600 524 560 L524 89 Z " />
<glyph glyph-name="oe" unicode="&#x153;" horiz-adv-x="745" d="M697 92 C660 56 618 40 564 40 C472 40 404 117 404 220 C404 223 404 231 405 239 L704 239 L727 267 C727 306 721 330 706 359 C673 420 621 449 547 449 C494 449 443 425 403 382 C365 424 308 448 243 448 C119 448 25 349 25 218 C25 163 42 110 72 70 C113 15 171 -11 250 -11 C309 -11 364 13 403 55 C443 13 497 -11 555 -11 C627 -11 680 11 727 59 L697 92 Z M373 337 C355 302 345 263 345 228 C345 169 351 142 376 93 C332 48 305 36 247 36 C155 36 84 119 84 225 C84 328 147 399 236 399 C298 399 344 378 373 337 L373 337 Z M407 280 C412 304 416 316 423 329 C447 373 495 402 545 402 C617 402 667 355 674 280 L407 280 Z " />
<glyph glyph-name="Scaron" unicode="&#x160;" horiz-adv-x="415" d="M373 612 C329 650 274 670 215 670 C114 670 34 594 34 497 C34 416 69 370 166 325 L226 298 C249 287 269 276 285 263 C314 241 330 207 330 167 C330 88 276 40 188 40 C130 40 75 66 18 119 L2 55 C65 5 118 -14 189 -14 C308 -14 393 64 393 172 C393 211 386 240 369 269 C350 302 321 324 257 354 L237 364 L216 373 L196 383 C175 393 157 403 143 412 C110 433 92 467 94 507 C97 572 145 615 213 615 C258 615 298 598 346 558 L373 612 Z M300 827 L211 716 L123 827 L75 816 L186 679 L231 679 L342 816 L300 827 Z " />
<glyph glyph-name="scaron" unicode="&#x161;" horiz-adv-x="308" d="M276 408 C239 436 204 448 158 448 C80 448 21 385 29 311 C34 263 58 237 125 208 L173 187 C185 182 195 176 204 170 C226 157 237 137 237 112 C237 65 202 36 147 36 C105 36 61 56 31 90 L2 50 C39 10 86 -10 142 -10 C176 -10 205 -3 229 11 C265 32 291 75 291 114 C291 179 265 210 184 245 C138 264 123 272 108 283 C90 295 81 313 81 334 C81 374 118 403 167 400 C195 398 211 392 255 363 L276 408 Z M246 681 L157 570 L69 681 L21 670 L132 533 L177 533 L288 670 L246 681 Z " />
<glyph glyph-name="Ydieresis" unicode="&#x178;" horiz-adv-x="536" d="M272 355 L63 667 L2 649 L238 300 L238 0 L300 0 L300 300 L533 649 L478 667 L272 355 Z M186 787 C165 787 149 771 149 750 C149 729 165 713 186 713 C207 713 223 729 223 750 C223 771 207 787 186 787 L186 787 Z M356 787 C335 787 319 771 319 750 C319 729 335 713 356 713 C377 713 393 729 393 750 C393 771 377 787 356 787 L356 787 Z " />
<glyph glyph-name="Zcaron" unicode="&#x17d;" horiz-adv-x="538" d="M41 656 L41 604 L421 604 L4 24 L15 0 L523 0 L533 54 L97 54 L512 632 L501 656 L41 656 Z M361 827 L272 716 L185 827 L136 816 L248 679 L293 679 L404 816 L361 827 Z " />
<glyph glyph-name="zcaron" unicode="&#x17e;" horiz-adv-x="372" d="M341 437 L25 437 L25 393 L273 393 L4 27 L12 0 L356 0 L366 44 L80 44 L349 411 L341 437 Z M278 681 L189 570 L101 681 L53 670 L164 533 L209 533 L320 670 L278 681 Z " />
<glyph glyph-name="circumflex" unicode="&#x2c6;" d="M-90 534 L-1 645 L87 534 L135 545 L24 682 L-21 682 L-132 545 L-90 534 Z " />
<glyph glyph-name="caron" unicode="&#x2c7;" d="M93 681 L4 570 L-84 681 L-132 670 L-21 533 L24 533 L135 670 L93 681 Z " />
<glyph glyph-name="breve" unicode="&#x2d8;" d="M90 669 C76 612 50 589 0 589 C-46 589 -76 616 -88 669 L-125 665 C-114 587 -71 546 -1 546 C70 546 113 587 124 665 L90 669 Z " />
<glyph glyph-name="ring" unicode="&#x2da;" d="M1 693 C-50 693 -89 655 -89 605 C-89 553 -53 517 -1 517 C49 517 89 556 89 604 C89 656 52 693 1 693 L1 693 Z M0 663 C31 663 56 637 56 605 C56 570 33 547 -1 547 C-31 547 -56 573 -56 605 C-56 640 -34 663 0 663 L0 663 Z " />
<glyph glyph-name="tilde" unicode="&#x2dc;" d="M120 654 C105 616 88 600 65 600 C50 600 37 606 8 627 C-21 649 -39 656 -62 655 C-103 653 -126 629 -150 567 L-121 559 C-104 597 -88 613 -65 613 C-49 613 -34 606 -9 588 C24 564 39 558 62 559 C104 562 132 590 151 647 L120 654 Z " />
<glyph glyph-name="endash" unicode="&#x2013;" horiz-adv-x="499" d="M33 262 L25 215 L465 215 L473 262 L33 262 Z " />
<glyph glyph-name="emdash" unicode="&#x2014;" horiz-adv-x="499" d="M33 262 L25 215 L465 215 L473 262 L33 262 Z " />
<glyph glyph-name="quoteleft" unicode="&#x2018;" horiz-adv-x="191" d="M78 420 C87 497 113 566 170 665 L124 675 C69 592 34 505 25 426 L78 420 Z " />
<glyph glyph-name="quoteright" unicode="&#x2019;" horiz-adv-x="191" d="M112 675 C103 597 77 529 20 431 L66 421 C122 504 156 591 165 669 L112 675 Z " />
<glyph glyph-name="quotedblleft" unicode="&#x201c;" horiz-adv-x="324" d="M212 421 C222 498 248 567 304 665 L258 675 C203 592 168 505 159 427 L212 421 Z M78 421 C87 497 114 567 170 665 L124 675 C69 593 34 506 25 427 L78 421 Z " />
<glyph glyph-name="quotedblright" unicode="&#x201d;" horiz-adv-x="324" d="M112 675 C103 597 77 529 20 431 L66 421 C122 504 156 591 165 669 L112 675 Z M247 675 C237 598 211 529 154 431 L200 421 C255 503 290 591 299 669 L247 675 Z " />
<glyph glyph-name="quotedblbase" unicode="&#x201e;" horiz-adv-x="264" d="M52 107 C43 29 16 -41 -40 -138 L6 -149 C61 -66 96 22 105 101 L52 107 Z M187 107 C177 30 150 -41 94 -138 L141 -149 C197 -61 230 23 239 101 L187 107 Z " />
<glyph glyph-name="dagger" unicode="&#x2020;" horiz-adv-x="460" d="M257 656 L202 656 L202 465 L25 465 L25 414 L202 414 L202 -49 L257 -49 L257 414 L435 414 L435 465 L257 465 L257 656 Z " />
<glyph glyph-name="perthousand" unicode="&#x2030;" horiz-adv-x="1090" d="M174 646 C81 641 18 566 18 462 C18 350 81 273 171 273 C270 273 334 349 334 465 C334 574 266 651 174 646 L174 646 Z M172 602 C202 602 232 587 249 563 C266 539 279 495 279 461 C279 368 243 318 176 318 C114 318 71 378 71 463 C71 551 108 602 172 602 L172 602 Z M477 645 L213 0 L259 0 L523 645 L477 645 Z M557 372 C464 367 401 293 401 188 C401 76 464 -1 554 -1 C653 -1 717 75 717 191 C717 299 649 377 557 372 L557 372 Z M555 328 C585 328 615 313 632 289 C649 265 662 221 662 187 C662 94 626 44 559 44 C497 44 454 104 454 189 C454 277 491 328 555 328 L555 328 Z M910 372 C817 367 754 293 754 188 C754 76 817 -1 907 -1 C1006 -1 1070 75 1070 191 C1070 299 1002 377 910 372 L910 372 Z M908 328 C937 328 968 313 985 289 C1002 265 1015 221 1015 187 C1015 94 979 44 912 44 C850 44 807 104 807 189 C807 277 844 328 908 328 L908 328 Z " />
<glyph glyph-name="guilsinglleft" unicode="&#x2039;" horiz-adv-x="228" d="M183 416 L20 223 L183 29 L202 76 L76 225 L202 376 L183 416 Z " />
<glyph glyph-name="guilsinglright" unicode="&#x203a;" horiz-adv-x="228" d="M45 29 L207 223 L45 416 L25 370 L152 220 L25 70 L45 29 Z " />
<glyph glyph-name="Euro" unicode="&#x20ac;" horiz-adv-x="513" d="M343 -11 C401 -11 457 1 505 40 L477 86 C430 57 404 42 355 42 C243 42 162 128 137 249 L349 249 L370 297 L131 297 C130 307 130 315 130 323 C130 331 130 339 131 349 L392 349 L412 397 L136 397 C158 513 228 597 338 597 C392 597 427 581 474 551 L500 599 C451 632 399 649 343 649 C209 649 104 544 75 397 L28 397 L7 349 L68 349 C67 337 67 326 67 316 C67 310 67 305 67 297 L27 297 L7 249 L72 249 C97 95 205 -11 343 -11 L343 -11 Z " />
<glyph glyph-name="minus" unicode="&#x2212;" horiz-adv-x="513" d="M49 341 L49 294 L467 294 L467 341 L49 341 Z " />
<glyph glyph-name="Adieresis.alt" unicode="&#xe000;" horiz-adv-x="565" d="M510 0 L576 0 L300 673 L263 673 L-12 0 L49 0 L141 230 L418 230 L510 0 Z M398 278 L160 278 L250 501 C263 535 271 558 279 585 C288 556 296 535 309 501 L398 278 Z M153 680 C130 680 113 663 113 640 C113 617 130 600 153 600 C176 600 193 617 193 640 C193 663 176 680 153 680 L153 680 Z M414 680 C391 680 374 663 374 640 C374 617 391 600 414 600 C437 600 454 617 454 640 C454 663 437 680 414 680 L414 680 Z " />
<glyph glyph-name="Aring.alt" unicode="&#xe001;" horiz-adv-x="565" d="M-12 0 L49 0 L141 230 L418 230 L510 0 L576 0 L347 560 C362 576 371 599 371 620 C371 672 334 709 283 709 C232 709 193 671 193 621 C193 594 200 576 216 558 L-12 0 Z M262 534 C270 532 275 532 281 532 C288 532 290 532 297 533 L398 278 L160 278 L262 534 Z M282 677 C312 677 336 652 336 620 C336 586 314 564 281 564 C252 564 228 589 228 620 C228 654 250 677 282 677 L282 677 Z " />
<glyph glyph-name="Odieresis.alt" unicode="&#xe002;" horiz-adv-x="711" d="M350 670 C282 670 204 643 150 601 C71 539 25 441 25 334 C25 131 163 -14 355 -14 C552 -14 687 125 687 327 C687 460 629 569 526 628 C473 659 425 670 350 670 L350 670 Z M349 615 C504 615 621 490 621 325 C621 255 604 194 573 148 C525 77 454 43 355 43 C293 43 224 72 178 118 C124 171 92 252 92 334 C92 501 196 615 349 615 L349 615 Z M119 680 C96 680 79 663 79 640 C79 617 96 600 119 600 C142 600 159 617 159 640 C159 663 142 680 119 680 L119 680 Z M603 680 C580 680 563 663 563 640 C563 617 580 600 603 600 C626 600 643 617 643 640 C643 663 626 680 603 680 L603 680 Z " />
<glyph glyph-name="Udieresis.alt" unicode="&#xe003;" horiz-adv-x="620" d="M50 656 L50 264 C50 195 54 160 64 128 C94 39 183 -14 305 -14 C377 -14 444 6 489 40 C548 86 570 146 570 263 L570 656 L508 656 L508 261 C508 186 499 144 478 113 C445 66 388 41 312 41 C218 41 148 82 124 151 C115 178 112 208 112 274 L112 656 L50 656 Z M209 680 C186 680 169 663 169 640 C169 617 186 600 209 600 C232 600 249 617 249 640 C249 663 232 680 209 680 L209 680 Z M414 680 C391 680 374 663 374 640 C374 617 391 600 414 600 C437 600 454 617 454 640 C454 663 437 680 414 680 L414 680 Z " />
</font>
</svg>
