<?xml version="1.0" encoding="UTF-8"?>
<svg xmlns="http://www.w3.org/2000/svg" xmlns:xlink="http://www.w3.org/1999/xlink" version="1.2" >
<font id="TodaySHOP-Bold">
<font-face  font-family="TodaySHOP-Bold" units-per-em="1000" ascent="688" descent="-224" font-style="normal" font-weight="400" font-stretch="normal" cap-height="668" x-height="473" underline-position="-119" underline-thickness="23" />
<missing-glyph  horiz-adv-x="160" d="" />
<glyph glyph-name="NULL" d="" />
<glyph glyph-name="CR" unicode="&#xd;" horiz-adv-x="250" d="" />
<glyph glyph-name="space" unicode="&#x20;" horiz-adv-x="160" d="" />
<glyph glyph-name="exclam" unicode="&#x21;" horiz-adv-x="239" d="M38 656 L74 213 L190 213 L223 656 L38 656 Z M133 177 C77 177 39 139 39 84 C39 29 78 -10 133 -10 C187 -10 226 29 226 84 C226 139 188 177 133 177 L133 177 Z " />
<glyph glyph-name="quotedbl" unicode="&#x22;" horiz-adv-x="426" d="M108 675 C96 583 61 481 11 392 L115 368 C177 454 220 562 233 664 L108 675 Z M286 675 C274 583 239 481 189 392 L292 368 C354 454 397 562 410 664 L286 675 Z " />
<glyph glyph-name="numbersign" unicode="&#x23;" horiz-adv-x="620" d="M560 267 L455 267 L475 391 L578 391 L591 472 L488 472 L517 656 L425 656 L396 472 L271 472 L301 656 L209 656 L180 472 L75 472 L63 391 L167 391 L148 267 L43 267 L30 186 L135 186 L105 0 L197 0 L226 186 L350 186 L321 0 L413 0 L442 186 L547 186 L560 267 Z M383 391 L363 267 L239 267 L258 391 L383 391 Z " />
<glyph glyph-name="dollar" unicode="&#x24;" horiz-adv-x="456" d="M284 715 L176 715 L176 621 C85 601 30 542 26 460 C22 393 53 339 117 302 C130 294 161 277 203 254 C239 234 255 216 257 192 C259 162 232 136 196 136 C138 136 98 155 20 216 L4 73 C63 33 102 19 176 10 L176 -91 L284 -91 L284 14 C376 31 443 104 443 188 C443 240 429 274 395 309 C369 335 349 348 253 397 C220 414 207 431 208 455 C209 482 233 501 265 501 C300 501 347 483 391 452 L426 572 C383 601 348 614 284 625 L284 715 Z " />
<glyph glyph-name="percent" unicode="&#x25;" horiz-adv-x="896" d="M193 651 C84 641 11 559 11 445 C11 333 93 252 205 252 C316 252 397 340 397 459 C397 575 306 661 193 651 L193 651 Z M194 560 C237 563 269 520 273 455 C277 388 252 345 209 345 C168 345 138 387 133 451 C128 512 153 558 194 560 L194 560 Z M539 651 L262 0 L357 0 L634 651 L539 651 Z M681 399 C571 389 498 307 498 193 C498 81 580 0 692 0 C803 0 885 88 885 207 C885 323 794 409 681 399 L681 399 Z M681 309 C725 312 757 268 761 203 C765 136 740 93 697 93 C656 93 625 136 620 200 C615 261 641 307 681 309 L681 309 Z " />
<glyph glyph-name="ampersand" unicode="&#x26;" horiz-adv-x="862" d="M854 478 L554 478 L554 323 L620 323 C613 275 603 250 582 219 C540 159 484 135 386 135 C332 135 281 155 246 191 L522 383 L522 478 C471 572 392 618 284 618 C136 618 16 485 16 323 C16 237 49 155 109 92 C180 18 267 -14 399 -14 C452 -14 524 3 578 29 C630 54 675 91 711 138 C750 191 769 239 785 323 L854 323 L854 478 Z M188 285 C174 323 170 346 175 378 C183 435 221 474 274 481 C321 487 358 468 388 422 L188 285 Z " />
<glyph glyph-name="quotesingle" unicode="&#x27;" horiz-adv-x="248" d="M108 675 C96 583 61 481 11 392 L115 368 C177 454 220 562 233 664 L108 675 Z " />
<glyph glyph-name="parenleft" unicode="&#x28;" horiz-adv-x="280" d="M160 699 C59 566 16 455 16 328 C16 198 52 95 147 -43 L275 0 C195 108 155 216 155 328 C155 442 194 550 275 656 L160 699 Z " />
<glyph glyph-name="parenright" unicode="&#x29;" horiz-adv-x="280" d="M122 -43 C223 91 266 201 266 328 C266 459 230 561 134 699 L7 656 C88 548 127 440 127 328 C127 215 88 107 7 0 L122 -43 Z " />
<glyph glyph-name="asterisk" unicode="&#x2a;" horiz-adv-x="408" d="M251 701 L156 701 L158 579 L44 622 L13 531 L129 493 L58 398 L134 344 L204 444 L273 344 L349 398 L278 493 L394 531 L363 622 L249 579 L251 701 Z " />
<glyph glyph-name="plus" unicode="&#x2b;" horiz-adv-x="588" d="M47 385 L47 272 L232 272 L232 81 L355 81 L355 272 L541 272 L541 385 L355 385 L355 575 L232 575 L232 385 L47 385 Z " />
<glyph glyph-name="comma" unicode="&#x2c;" horiz-adv-x="207" d="M56 164 C42 50 10 -36 -58 -150 L56 -176 C134 -81 181 33 192 155 L56 164 Z " />
<glyph glyph-name="hyphen" unicode="&#x2d;" horiz-adv-x="294" d="M275 179 L275 311 L18 311 L18 179 L275 179 Z " />
<glyph glyph-name="period" unicode="&#x2e;" horiz-adv-x="214" d="M108 173 C54 173 16 135 16 82 C16 28 54 -10 108 -10 C161 -10 199 28 199 82 C199 135 161 173 108 173 L108 173 Z " />
<glyph glyph-name="slash" unicode="&#x2f;" horiz-adv-x="422" d="M295 688 L9 -31 L126 -31 L412 688 L295 688 Z " />
<glyph glyph-name="zero" unicode="0" horiz-adv-x="568" d="M285 651 C223 651 159 624 111 577 C50 516 18 427 18 313 C18 112 120 -17 279 -17 C450 -17 550 110 550 326 C550 407 527 495 492 544 C444 615 374 651 285 651 L285 651 Z M281 503 C337 500 374 428 374 322 C374 259 370 221 361 193 C346 149 319 127 284 131 C227 137 192 211 192 325 C192 383 197 419 207 445 C224 483 250 504 281 503 L281 503 Z " />
<glyph glyph-name="one" unicode="1" horiz-adv-x="381" d="M346 635 L299 652 L287 646 L275 640 L264 634 C218 611 183 594 163 584 C103 556 68 541 0 519 L36 398 C89 415 122 429 174 458 L174 0 L346 0 L346 635 Z " />
<glyph glyph-name="two" unicode="2" horiz-adv-x="513" d="M510 137 L249 137 C398 262 459 351 459 443 C459 494 442 541 409 578 C366 628 311 651 234 651 C192 651 139 637 97 613 C69 598 53 585 21 555 L65 434 C119 475 147 488 187 488 C243 488 285 450 282 402 C280 372 267 342 245 315 C218 280 184 245 144 208 C94 162 59 131 2 85 L22 0 L487 0 L510 137 Z " />
<glyph glyph-name="three" unicode="3" horiz-adv-x="488" d="M101 379 L101 268 L158 268 C236 268 278 240 278 189 C278 143 235 110 179 113 C125 116 81 134 21 179 L0 53 C61 6 137 -17 233 -17 C367 -17 474 70 474 179 C474 224 462 259 437 289 C417 314 398 326 355 343 C385 358 400 369 413 383 C438 411 451 447 451 488 C451 580 358 651 236 651 C161 651 104 633 23 585 L64 477 C113 506 141 516 178 516 C228 516 263 490 267 452 C270 419 241 379 214 379 L101 379 Z " />
<glyph glyph-name="four" unicode="4" horiz-adv-x="563" d="M454 633 L341 653 L2 265 L27 133 L290 133 L290 0 L454 0 L454 133 L540 133 L562 258 L454 258 L454 633 Z M293 245 L129 245 L293 436 L293 245 Z " />
<glyph glyph-name="five" unicode="5" horiz-adv-x="481" d="M261 496 L461 496 L461 634 L117 635 L65 321 C126 320 150 317 184 309 C236 296 275 256 278 211 C282 157 233 116 169 119 C119 121 77 135 25 167 L0 37 C62 3 139 -17 212 -17 C364 -17 467 73 467 206 C467 322 390 393 245 412 L261 496 Z " />
<glyph glyph-name="six" unicode="6" horiz-adv-x="540" d="M400 668 C318 646 268 623 206 579 C86 493 16 373 16 250 C16 173 34 115 71 70 C115 18 193 -17 267 -17 C342 -17 398 0 442 36 C498 82 529 148 529 224 C529 332 444 416 335 416 C295 416 281 414 248 403 C281 450 303 472 352 501 C397 528 432 544 496 565 L400 668 Z M206 285 C206 286 212 290 221 294 C238 304 257 310 276 311 C331 315 372 276 372 222 C372 162 337 125 280 125 C235 125 201 154 192 202 C187 230 190 251 206 285 L206 285 Z " />
<glyph glyph-name="seven" unicode="7" horiz-adv-x="517" d="M7 635 L7 496 L295 496 L284 475 L272 454 L260 434 C230 380 200 324 168 263 C120 173 90 113 42 13 L231 -16 C305 144 282 94 302 137 C349 238 386 315 431 403 C455 450 473 484 515 564 L485 635 L7 635 Z " />
<glyph glyph-name="eight" unicode="8" horiz-adv-x="554" d="M423 341 C484 371 511 414 511 483 C511 586 417 653 271 653 C214 653 153 636 118 611 C71 578 41 522 41 468 C41 403 67 360 125 328 C104 319 93 313 82 305 C40 275 14 226 14 175 C14 61 122 -18 278 -18 C439 -18 546 68 540 191 C538 238 517 280 483 308 C467 321 454 329 423 341 L423 341 Z M277 405 C239 423 216 450 212 479 C208 514 240 546 280 546 C329 546 363 518 363 478 C363 445 349 423 307 390 L277 405 Z M282 256 C330 234 353 207 355 172 C358 126 321 92 267 92 C218 92 180 128 180 175 C180 213 204 246 251 272 L282 256 Z " />
<glyph glyph-name="nine" unicode="9" horiz-adv-x="543" d="M142 -34 C219 -14 273 9 329 48 C444 126 517 249 525 377 C535 536 425 651 264 651 C207 651 146 631 103 599 C48 558 11 487 11 425 C11 347 36 292 90 253 C127 226 169 214 217 218 C243 220 260 224 290 235 C261 192 238 169 188 137 C142 106 106 89 41 67 L142 -34 Z M333 347 C332 346 327 341 318 336 C304 327 283 321 266 321 C206 321 168 358 168 417 C168 467 207 508 257 508 C308 508 342 474 347 418 C349 393 345 374 333 347 L333 347 Z " />
<glyph glyph-name="colon" unicode="&#x3a;" horiz-adv-x="246" d="M135 183 C81 183 43 145 43 92 C43 38 81 0 135 0 C188 0 226 38 226 92 C226 145 188 183 135 183 L135 183 Z M136 464 C82 464 44 426 44 373 C44 319 82 281 136 281 C189 281 227 319 227 373 C227 426 189 464 136 464 L136 464 Z " />
<glyph glyph-name="semicolon" unicode="&#x3b;" horiz-adv-x="248" d="M76 164 C62 50 30 -36 -38 -150 L76 -176 C154 -81 201 33 212 155 L76 164 Z M135 464 C81 464 43 426 43 373 C43 319 81 281 135 281 C188 281 226 319 226 373 C226 426 188 464 135 464 L135 464 Z " />
<glyph glyph-name="less" unicode="&#x3c;" horiz-adv-x="451" d="M185 461 L11 233 L185 5 L249 92 L142 237 L249 382 L185 461 Z M371 461 L197 233 L371 5 L434 92 L327 237 L434 382 L371 461 Z " />
<glyph glyph-name="equal" unicode="&#x3d;" horiz-adv-x="588" d="M59 480 L59 367 L530 367 L530 480 L59 480 Z M59 289 L59 176 L530 176 L530 289 L59 289 Z " />
<glyph glyph-name="greater" unicode="&#x3e;" horiz-adv-x="451" d="M79 5 L254 233 L79 461 L16 374 L123 229 L16 84 L79 5 Z M265 5 L439 233 L265 461 L202 374 L309 229 L202 84 L265 5 Z " />
<glyph glyph-name="question" unicode="&#x3f;" horiz-adv-x="438" d="M58 474 C100 502 122 510 156 513 C203 517 241 488 246 445 C250 415 239 387 210 350 C170 299 166 294 159 281 C146 258 142 243 140 213 L270 213 C278 248 282 254 348 327 C403 387 422 426 422 481 C422 583 329 668 218 668 C136 668 81 648 16 592 L58 474 Z M202 176 C147 176 109 138 109 83 C109 29 148 -10 202 -10 C256 -10 295 29 295 83 C295 138 257 176 202 176 L202 176 Z " />
<glyph glyph-name="at" unicode="&#x40;" horiz-adv-x="1161" d="M1069 309 C1069 354 1059 401 1042 442 C975 605 824 672 654 672 C449 672 243 590 144 401 C110 337 92 265 92 192 C92 -66 259 -210 512 -210 C588 -210 682 -205 756 -185 L735 -84 C673 -101 599 -105 536 -105 C328 -105 223 4 223 208 C223 262 239 316 266 363 C341 496 486 569 637 569 C820 569 940 478 940 290 C940 202 878 100 781 100 L745 100 L790 433 C740 450 682 459 629 459 C470 459 372 318 372 169 C372 84 396 0 496 0 C549 0 608 31 630 81 L619 1 L755 0 L758 0 C803 0 849 8 890 25 C1013 74 1069 179 1069 309 L1069 309 Z M656 357 L630 183 C630 181 621 166 620 164 C604 136 578 100 542 100 C497 100 491 133 491 171 C491 243 533 362 620 362 C632 362 644 360 656 357 L656 357 Z " />
<glyph glyph-name="A" unicode="A" horiz-adv-x="691" d="M514 0 L703 0 L425 656 L270 656 L-12 0 L156 0 L215 144 L457 144 L514 0 Z M417 252 L256 252 L339 456 L417 252 Z " />
<glyph glyph-name="B" unicode="B" horiz-adv-x="572" d="M32 8 C126 -5 175 -8 251 -8 C315 -8 377 -1 416 11 C507 38 558 101 558 185 C558 267 513 326 431 349 C497 384 524 424 524 487 C524 602 427 665 250 665 C182 665 135 662 32 650 L32 8 Z M202 543 C220 545 241 546 250 546 C314 546 351 516 351 463 C351 429 316 388 287 388 L202 388 L202 543 Z M202 281 L256 281 C334 281 377 249 377 192 C377 142 338 111 273 111 L256 111 C244 111 232 111 221 112 C217 113 210 113 202 114 L202 281 Z " />
<glyph glyph-name="C" unicode="C" horiz-adv-x="590" d="M589 605 C517 654 450 674 361 674 C166 674 16 526 16 334 C16 133 148 -9 344 -18 C434 -22 514 1 591 55 L516 192 C472 159 432 146 377 146 C281 146 206 227 206 331 C206 436 275 510 371 510 C418 510 453 498 498 467 L589 605 Z " />
<glyph glyph-name="D" unicode="D" horiz-adv-x="668" d="M32 5 C111 -3 171 -7 238 -7 C355 -7 447 12 505 48 C594 102 652 208 652 317 C652 470 571 589 435 633 C379 651 306 663 247 663 L189 663 C153 662 114 660 75 656 C66 656 51 654 32 652 L32 5 Z M210 522 L223 522 C291 522 329 514 369 491 C427 457 465 388 465 318 C465 201 392 129 274 129 L257 129 C245 129 235 129 224 131 C221 131 216 132 210 132 L210 522 Z " />
<glyph glyph-name="E" unicode="E" horiz-adv-x="492" d="M205 521 L449 521 L449 656 L32 656 L32 0 L476 0 L492 138 L205 138 L205 275 L424 275 L424 403 L205 403 L205 521 Z " />
<glyph glyph-name="F" unicode="F" horiz-adv-x="449" d="M210 510 L442 510 L442 656 L32 656 L32 0 L210 0 L210 239 L415 239 L415 377 L210 377 L210 510 Z " />
<glyph glyph-name="G" unicode="G" horiz-adv-x="668" d="M628 582 C558 646 480 674 373 674 C172 674 16 524 16 330 C16 233 42 157 97 95 C158 25 260 -18 362 -18 C472 -18 557 7 637 62 L637 369 L368 369 L355 244 L464 244 L464 148 C436 136 416 132 386 133 C284 138 207 220 207 325 C207 439 276 516 378 516 C431 516 476 498 521 457 L628 582 Z " />
<glyph glyph-name="H" unicode="H" horiz-adv-x="663" d="M210 405 L210 656 L32 656 L32 0 L210 0 L210 267 L453 267 L453 0 L631 0 L631 656 L453 656 L453 405 L210 405 Z " />
<glyph glyph-name="I" unicode="I" horiz-adv-x="242" d="M210 656 L32 656 L32 0 L210 0 L210 656 Z " />
<glyph glyph-name="J" unicode="J" horiz-adv-x="403" d="M372 656 L194 656 L194 262 C194 228 192 205 188 191 C178 158 154 142 113 142 C85 142 63 147 22 164 L3 24 C59 -3 104 -13 173 -13 C246 -13 313 20 344 71 C366 107 372 143 372 228 L372 656 Z " />
<glyph glyph-name="K" unicode="K" horiz-adv-x="638" d="M32 656 L32 0 L210 0 L210 181 L264 247 L433 0 L649 0 L391 355 L642 640 L451 668 L210 385 L210 656 L32 656 Z " />
<glyph glyph-name="L" unicode="L" horiz-adv-x="483" d="M210 656 L32 656 L32 0 L462 0 L481 149 L210 149 L210 656 Z " />
<glyph glyph-name="M" unicode="M" horiz-adv-x="837" d="M736 656 L594 656 L420 252 L246 656 L103 656 L4 0 L153 0 L197 349 L349 0 L461 0 L614 351 L657 0 L834 0 L736 656 Z " />
<glyph glyph-name="N" unicode="N" horiz-adv-x="682" d="M32 642 L32 0 L199 0 L196 359 L537 -11 L651 14 L651 656 L484 656 L487 295 L147 668 L32 642 Z " />
<glyph glyph-name="O" unicode="O" horiz-adv-x="732" d="M363 674 C166 674 16 523 16 325 C16 126 162 -18 363 -18 C574 -18 716 124 716 334 C716 420 682 506 625 567 C557 639 473 674 363 674 L363 674 Z M356 519 C452 519 524 434 524 320 C524 204 463 133 366 139 C326 141 289 158 262 188 C230 223 208 283 208 335 C208 448 265 519 356 519 L356 519 Z " />
<glyph glyph-name="P" unicode="P" horiz-adv-x="554" d="M32 0 L210 0 L210 198 C231 197 252 196 259 196 C330 196 386 207 429 230 C501 270 545 344 545 428 C545 500 520 559 471 602 C419 647 351 665 231 665 C208 665 140 661 90 658 C77 657 58 655 32 653 L32 0 Z M210 517 C227 518 246 519 257 519 C329 519 372 483 372 424 C372 366 328 332 254 332 C243 332 227 332 210 333 L210 517 Z " />
<glyph glyph-name="Q" unicode="Q" horiz-adv-x="732" d="M828 -50 C723 -22 662 5 589 56 C675 124 716 214 716 334 C716 420 682 506 625 567 C559 638 471 674 363 674 C166 674 16 523 16 325 C16 238 46 156 100 94 C165 20 253 -17 363 -17 C382 -17 405 -14 430 -9 C446 -24 465 -39 493 -58 C566 -108 624 -136 719 -165 L828 -50 Z M356 519 C453 519 524 434 524 320 C524 205 463 134 366 140 C326 142 289 159 262 189 C230 223 208 283 208 336 C208 449 265 519 356 519 L356 519 Z " />
<glyph glyph-name="R" unicode="R" horiz-adv-x="604" d="M31 0 L209 0 L209 225 L282 225 L409 0 L614 0 L437 281 C509 319 544 374 544 451 C544 592 439 665 236 665 C196 665 129 662 73 657 C64 656 49 654 31 653 L31 0 Z M209 527 C239 529 244 529 262 529 C329 529 371 494 371 438 C371 390 336 346 297 346 L209 346 L209 527 Z " />
<glyph glyph-name="S" unicode="S" horiz-adv-x="504" d="M472 615 C384 661 336 674 255 674 C210 674 154 658 117 636 C60 601 27 543 27 478 C27 397 62 344 144 299 C156 293 181 280 215 262 C266 235 283 217 283 189 C283 147 249 121 201 125 C141 130 83 158 21 212 L2 54 C82 5 157 -18 240 -18 C387 -18 490 68 490 191 C490 243 467 295 430 327 C404 349 363 373 299 406 C240 436 225 452 227 483 C229 513 257 535 292 535 C334 535 372 520 433 480 L472 615 Z " />
<glyph glyph-name="T" unicode="T" horiz-adv-x="565" d="M372 510 L559 510 L559 656 L7 656 L7 510 L194 510 L194 0 L372 0 L372 510 Z " />
<glyph glyph-name="U" unicode="U" horiz-adv-x="666" d="M32 656 L32 272 C32 187 44 130 69 89 C113 20 204 -18 329 -18 C419 -18 507 8 555 49 C610 95 633 158 633 263 L633 656 L455 656 L455 272 C455 228 449 197 438 178 C419 147 383 129 339 129 C299 129 268 139 246 158 C220 181 210 212 210 272 L210 656 L32 656 Z " />
<glyph glyph-name="V" unicode="V" horiz-adv-x="682" d="M347 260 L182 669 L0 641 L271 0 L409 0 L681 641 L514 669 L347 260 Z " />
<glyph glyph-name="W" unicode="W" horiz-adv-x="992" d="M670 259 L513 669 L340 641 L429 417 L356 221 L180 669 L0 641 L257 0 L398 0 L496 258 L598 0 L737 0 L993 641 L825 669 L670 259 Z " />
<glyph glyph-name="X" unicode="X" horiz-adv-x="682" d="M347 471 L202 669 L13 641 L241 334 L0 16 L172 -14 L333 207 L493 -14 L683 16 L437 345 L661 641 L489 669 L347 471 Z " />
<glyph glyph-name="Y" unicode="Y" horiz-adv-x="647" d="M332 438 L183 669 L0 642 L230 285 L230 0 L408 0 L408 285 L647 642 L484 669 L332 438 Z " />
<glyph glyph-name="Z" unicode="Z" horiz-adv-x="595" d="M36 656 L36 510 L324 510 L2 74 L31 0 L575 0 L592 149 L262 149 L585 583 L555 656 L36 656 Z " />
<glyph glyph-name="bracketleft" unicode="&#x5b;" horiz-adv-x="296" d="M32 -31 L277 -31 L289 68 L172 68 L172 588 L277 588 L289 687 L32 688 L32 -31 Z " />
<glyph glyph-name="bracketright" unicode="&#x5d;" horiz-adv-x="296" d="M264 688 L19 687 L7 588 L124 588 L124 68 L19 68 L7 -31 L264 -31 L264 688 Z " />
<glyph glyph-name="asciicircum" unicode="&#x5e;" horiz-adv-x="691" d="M201 496 L-12 0 L156 0 L215 144 L457 144 L514 0 L703 0 L493 496 L487 496 C424 499 386 537 386 595 C386 618 393 639 406 656 L285 656 C298 639 305 617 305 595 C305 572 299 552 286 534 C269 510 250 502 204 496 L201 496 Z M417 252 L256 252 L339 456 L417 252 Z M203 685 C151 685 114 648 114 597 C114 545 151 508 203 508 C255 508 291 544 291 597 C291 648 254 685 203 685 L203 685 Z M487 685 C435 685 398 648 398 597 C398 545 435 508 487 508 C539 508 575 544 575 597 C575 648 538 685 487 685 L487 685 Z " />
<glyph glyph-name="underscore" unicode="&#x5f;" horiz-adv-x="397" d="M0 -118 L0 -141 L397 -141 L397 -118 L0 -118 Z " />
<glyph glyph-name="grave" unicode="&#x60;" d="M-61 660 L-180 615 L16 503 L103 539 L-61 660 Z " />
<glyph glyph-name="a" unicode="a" horiz-adv-x="501" d="M42 318 C97 346 137 357 184 361 C248 366 278 343 280 290 C217 286 201 285 178 281 C67 264 9 211 9 125 C9 43 65 -15 145 -15 C202 -15 238 -1 298 45 C314 7 343 -11 392 -14 C420 -16 439 -14 481 -4 L501 93 C450 93 443 103 443 179 L443 289 C443 350 432 391 408 419 C373 458 315 479 240 479 C175 479 103 461 42 430 L42 318 Z M281 113 C252 95 238 89 216 87 C183 84 157 109 160 142 C163 184 196 204 281 216 L281 113 Z " />
<glyph glyph-name="b" unicode="b" horiz-adv-x="543" d="M32 688 L32 38 C64 23 89 13 105 7 C148 -7 197 -15 243 -15 C313 -15 374 0 418 29 C483 73 525 153 525 234 C525 300 510 349 476 392 C430 450 370 477 287 477 C260 477 235 470 199 454 L199 688 L32 688 Z M199 325 C220 334 231 337 251 337 C313 337 357 290 357 225 C357 158 317 114 256 114 C236 114 222 117 199 128 L199 325 Z " />
<glyph glyph-name="c" unicode="c" horiz-adv-x="433" d="M431 433 C380 467 323 483 260 480 C123 474 16 367 16 235 C16 86 114 -15 257 -15 C324 -15 382 3 433 41 L382 155 C345 136 324 130 288 130 C231 130 190 177 190 241 C190 297 231 341 284 341 C316 341 339 334 375 312 L431 433 Z " />
<glyph glyph-name="d" unicode="d" horiz-adv-x="568" d="M343 688 L343 462 C305 476 282 479 246 477 C110 468 16 365 16 224 C16 86 94 -8 213 -14 C275 -17 324 1 366 43 C384 6 412 -11 459 -14 C487 -16 506 -13 548 -4 L568 93 C517 93 510 103 510 179 L510 688 L343 688 Z M343 145 C322 130 310 126 286 126 C224 126 184 170 184 239 C184 306 223 347 285 347 C307 347 323 342 343 328 L343 145 Z " />
<glyph glyph-name="e" unicode="e" horiz-adv-x="492" d="M432 207 L480 273 C479 398 393 481 264 481 C126 481 16 372 16 235 C16 87 117 -16 262 -16 C353 -16 427 11 482 66 L447 157 C392 123 354 111 297 111 C239 111 187 154 181 207 L432 207 Z M176 291 C183 343 216 375 263 375 C312 375 344 343 347 291 L176 291 Z " />
<glyph glyph-name="f" unicode="f" horiz-adv-x="378" d="M372 463 L252 463 L252 491 C253 545 282 575 338 579 C356 580 369 579 393 574 L416 687 C369 699 341 703 303 701 C176 694 92 612 92 496 L92 463 L7 463 L7 344 L92 344 L92 0 L259 0 L259 344 L372 344 L372 463 Z " />
<glyph glyph-name="g" unicode="g" horiz-adv-x="499" d="M499 463 L313 463 C271 477 261 479 212 479 C169 479 115 461 82 436 C37 402 13 353 13 294 C13 220 61 160 139 137 C103 115 88 93 90 62 C90 55 92 50 96 41 C31 25 -14 -29 -14 -92 C-14 -190 86 -258 230 -258 C372 -258 477 -181 477 -77 C477 -37 467 -10 442 15 C417 40 387 52 295 75 C240 88 228 93 226 104 C225 110 228 116 236 124 C295 124 327 131 365 153 C413 182 441 232 441 293 C441 324 435 343 414 372 L499 369 L499 463 Z M229 389 C273 389 302 350 302 292 C302 242 277 212 237 212 C193 212 163 252 163 310 C163 357 189 389 229 389 L229 389 Z M231 -41 C299 -59 317 -72 317 -102 C317 -140 282 -166 229 -166 C172 -166 131 -135 131 -92 C131 -67 143 -48 174 -26 L231 -41 Z " />
<glyph glyph-name="h" unicode="h" horiz-adv-x="543" d="M32 688 L32 0 L199 0 L199 296 C226 326 250 339 278 339 C324 339 343 314 343 255 L343 0 L510 0 L510 304 C510 415 451 480 350 480 C294 480 243 457 199 411 L199 688 L32 688 Z " />
<glyph glyph-name="i" unicode="i" horiz-adv-x="233" d="M200 463 L33 463 L33 0 L200 0 L200 463 Z M116 671 C64 671 27 634 27 583 C27 531 64 494 116 494 C168 494 204 530 204 583 C204 634 167 671 116 671 L116 671 Z " />
<glyph glyph-name="j" unicode="j" horiz-adv-x="232" d="M200 463 L33 463 L33 5 C33 -28 31 -47 27 -58 C17 -86 -6 -102 -37 -102 C-45 -102 -54 -101 -64 -100 L-85 -215 C-47 -223 -24 -225 9 -223 C81 -219 136 -192 167 -144 C192 -106 200 -69 200 7 L200 463 Z M116 671 C64 671 27 634 27 583 C27 531 64 494 116 494 C168 494 204 530 204 583 C204 634 167 671 116 671 L116 671 Z " />
<glyph glyph-name="k" unicode="k" horiz-adv-x="533" d="M32 688 L32 0 L197 0 L197 120 L233 165 L349 0 L544 0 L350 258 L524 448 L343 471 L199 310 L199 688 L32 688 Z " />
<glyph glyph-name="l" unicode="l" horiz-adv-x="230" d="M32 688 L32 0 L199 0 L199 688 L32 688 Z " />
<glyph glyph-name="m" unicode="m" horiz-adv-x="843" d="M812 0 L812 306 C812 362 806 392 790 417 C765 457 713 480 648 480 C614 480 576 468 546 448 C527 436 514 424 490 397 C463 454 421 480 352 480 C285 480 234 454 192 397 C190 435 177 460 147 480 L5 445 C32 408 35 390 35 283 L35 0 L202 0 L202 296 C232 327 249 336 277 338 C321 341 340 318 340 261 L340 0 L507 0 L507 296 C537 328 555 338 582 338 C628 338 645 318 645 263 L645 0 L812 0 Z " />
<glyph glyph-name="n" unicode="n" horiz-adv-x="545" d="M5 445 C32 408 35 390 35 283 L35 0 L202 0 L202 296 C229 326 254 339 281 339 C327 339 347 314 347 255 L347 0 L514 0 L514 304 C514 415 455 480 354 480 C289 480 231 451 192 399 C188 438 175 460 147 480 L5 445 Z " />
<glyph glyph-name="o" unicode="o" horiz-adv-x="556" d="M271 480 C118 472 16 370 16 225 C16 164 39 103 78 61 C125 11 193 -15 279 -15 C435 -15 548 100 539 250 C531 391 418 488 271 480 L271 480 Z M271 349 C326 349 371 295 371 228 C371 154 340 113 284 113 C227 113 183 169 183 240 C183 304 220 349 271 349 L271 349 Z " />
<glyph glyph-name="p" unicode="p" horiz-adv-x="545" d="M202 -224 L202 0 C238 -10 254 -12 292 -12 C346 -12 403 7 443 39 C495 81 529 156 529 228 C529 381 447 478 317 478 C271 478 226 461 186 430 C179 451 167 466 147 480 L5 445 C32 408 35 390 35 283 L35 -224 L202 -224 Z M202 325 C227 333 242 336 260 336 C320 336 361 291 361 225 C361 158 323 114 264 114 C237 114 227 116 202 129 L202 325 Z " />
<glyph glyph-name="q" unicode="q" horiz-adv-x="540" d="M509 443 C407 473 368 480 294 480 C134 480 23 381 16 233 C9 89 105 -11 251 -11 C285 -11 310 -5 342 12 L342 -224 L509 -224 L509 443 Z M342 142 C316 129 301 125 278 127 C220 131 183 177 183 244 C183 303 223 347 280 351 C302 353 321 349 342 339 L342 142 Z " />
<glyph glyph-name="r" unicode="r" horiz-adv-x="406" d="M404 458 C368 476 353 480 323 480 C272 480 224 439 194 371 C191 431 179 457 146 480 L4 445 C31 408 34 390 34 283 L34 0 L201 0 L201 245 C237 300 268 323 308 320 C323 319 333 316 368 304 L404 458 Z " />
<glyph glyph-name="s" unicode="s" horiz-adv-x="401" d="M386 438 C308 473 272 481 207 481 C108 481 28 417 28 339 C28 290 45 253 79 229 C95 217 127 201 164 185 C204 168 215 157 214 136 C213 114 189 98 161 100 C124 102 87 118 41 151 L0 42 C72 -1 122 -16 197 -16 C238 -16 287 -4 319 14 C369 41 394 83 394 139 C394 175 379 210 353 231 C333 249 324 253 251 286 C213 302 202 313 203 330 C204 348 225 362 248 362 C284 362 292 359 355 327 L386 438 Z " />
<glyph glyph-name="t" unicode="t" horiz-adv-x="413" d="M387 463 L251 463 L254 605 L172 605 C147 497 102 456 0 447 L0 344 L89 344 L89 170 C89 111 93 88 107 59 C129 14 181 -12 249 -12 C318 -12 370 1 424 31 L398 137 C359 125 340 121 318 121 C267 121 251 142 251 207 L251 344 L387 344 L387 463 Z " />
<glyph glyph-name="u" unicode="u" horiz-adv-x="558" d="M502 463 L335 463 L335 165 C307 137 290 128 264 127 C221 125 199 152 199 208 L199 463 L32 463 L32 183 C32 119 37 85 52 58 C75 17 126 -12 184 -15 C251 -19 303 5 350 61 C370 9 396 -11 451 -14 C479 -16 499 -13 540 -4 L560 93 C509 93 502 103 502 179 L502 463 Z " />
<glyph glyph-name="v" unicode="v" horiz-adv-x="527" d="M266 212 L167 473 L0 449 L189 0 L333 0 L527 448 L369 473 L266 212 Z " />
<glyph glyph-name="w" unicode="w" horiz-adv-x="789" d="M531 205 L429 473 L283 449 L334 323 L279 182 L161 473 L0 449 L183 0 L322 0 L393 181 L465 0 L602 0 L789 449 L638 473 L531 205 Z " />
<glyph glyph-name="x" unicode="x" horiz-adv-x="524" d="M269 346 L184 473 L8 448 L163 235 L0 15 L156 -10 L252 125 L345 -8 L525 15 L359 240 L514 448 L355 473 L269 346 Z " />
<glyph glyph-name="y" unicode="y" horiz-adv-x="529" d="M266 214 L169 473 L0 449 L184 26 L160 -27 C135 -82 102 -107 60 -102 C53 -101 44 -100 35 -98 L10 -213 C26 -218 41 -221 54 -223 C160 -242 242 -194 292 -84 L529 449 L364 473 L266 214 Z " />
<glyph glyph-name="z" unicode="z" horiz-adv-x="458" d="M420 463 L24 463 L24 344 L213 344 L2 60 L20 0 L435 0 L457 122 L234 122 L441 405 L420 463 Z " />
<glyph glyph-name="braceleft" unicode="&#x7b;" horiz-adv-x="732" d="M72 521 C35 463 16 397 16 325 C16 126 162 -18 363 -18 C574 -18 716 124 716 334 C716 396 695 465 661 521 C643 505 618 496 590 496 C531 496 489 537 489 595 C489 616 493 631 504 649 C457 667 417 674 363 674 C324 674 276 665 229 648 C238 633 243 613 243 595 C243 537 202 496 142 496 C115 496 91 505 72 521 L72 521 Z M356 519 C452 519 524 434 524 320 C524 204 463 133 366 139 C326 141 289 158 262 188 C230 223 208 283 208 335 C208 448 265 519 356 519 L356 519 Z M142 685 C90 685 53 648 53 597 C53 545 90 508 142 508 C194 508 230 544 230 597 C230 648 193 685 142 685 L142 685 Z M589 685 C537 685 500 648 500 597 C500 545 537 508 589 508 C641 508 677 544 677 597 C677 648 640 685 589 685 L589 685 Z " />
<glyph glyph-name="braceright" unicode="&#x7d;" horiz-adv-x="666" d="M210 496 C153 500 116 539 116 595 C116 618 123 638 136 656 L32 656 L32 272 C32 187 44 130 69 89 C113 20 204 -18 329 -18 C419 -18 507 8 555 49 C610 95 633 158 633 263 L633 656 L529 656 C542 639 549 617 549 595 C549 539 511 499 455 496 L455 272 C455 228 449 197 438 178 C419 147 383 129 339 129 C299 129 268 139 246 158 C220 181 210 212 210 272 L210 496 Z M217 685 C165 685 128 648 128 597 C128 545 165 508 217 508 C269 508 305 544 305 597 C305 648 268 685 217 685 L217 685 Z M447 685 C395 685 358 648 358 597 C358 545 395 508 447 508 C499 508 535 544 535 597 C535 648 498 685 447 685 L447 685 Z " />
<glyph glyph-name="asciitilde" unicode="&#x7e;" horiz-adv-x="691" d="M-12 0 L156 0 L215 144 L457 144 L514 0 L703 0 L467 556 C444 518 398 496 345 496 C294 496 249 518 225 552 L-12 0 Z M417 252 L256 252 L339 456 L417 252 Z M345 709 C273 709 220 666 220 608 C220 550 274 507 345 507 C417 507 470 550 470 608 C470 666 417 709 345 709 L345 709 Z M345 652 C374 652 394 634 394 608 C394 582 374 564 345 564 C315 564 295 582 295 608 C295 634 315 652 345 652 L345 652 Z " />
<glyph glyph-name="exclamdown" unicode="&#xa1;" horiz-adv-x="242" d="M203 0 L167 443 L51 443 L18 0 L203 0 Z M107 667 C53 667 14 628 14 573 C14 518 52 480 107 480 C163 480 201 518 201 573 C201 628 163 667 107 667 L107 667 Z " />
<glyph glyph-name="cent" unicode="&#xa2;" horiz-adv-x="433" d="M315 654 L207 654 L207 557 C97 533 16 432 16 319 C16 189 92 92 207 73 L207 -27 L315 -27 L315 74 C357 81 396 98 433 125 L382 239 C351 222 334 216 308 215 C239 211 190 257 190 324 C190 387 241 430 306 423 C330 420 346 414 375 396 L431 518 C395 542 359 556 315 562 L315 654 Z " />
<glyph glyph-name="sterling" unicode="&#xa3;" horiz-adv-x="529" d="M488 640 C470 641 450 642 445 642 C297 642 216 578 173 425 L154 358 L25 358 L25 252 L123 252 L105 193 C85 126 63 103 7 90 L7 0 L506 0 L524 132 L249 132 C264 150 266 155 278 195 L296 252 L453 252 L453 358 L326 358 L335 391 C358 480 385 506 457 512 C477 514 490 513 514 509 L488 640 Z " />
<glyph glyph-name="currency" unicode="&#xa4;" horiz-adv-x="588" d="M45 162 L129 79 L166 115 C179 129 186 136 200 154 C234 136 262 129 295 129 C327 129 356 136 389 154 C403 136 410 129 424 115 L460 79 L544 162 L507 199 C501 206 495 211 468 232 C486 265 493 294 493 328 C493 363 486 391 468 424 C495 445 501 451 507 457 L544 494 L460 578 L424 541 C410 527 403 520 389 503 C356 520 327 527 295 527 C262 527 233 520 200 503 C186 520 179 527 166 541 L129 578 L45 494 L82 457 C89 451 94 445 121 424 C103 391 96 363 96 328 C96 294 103 265 121 232 C95 211 89 206 82 199 L45 162 Z M295 423 C347 423 389 381 389 328 C389 275 347 233 295 233 C242 233 200 275 200 328 C200 381 242 423 295 423 L295 423 Z " />
<glyph glyph-name="section" unicode="&#xa7;" horiz-adv-x="527" d="M457 664 C396 692 355 701 283 701 C178 701 89 629 89 544 C89 501 98 478 132 436 C54 399 16 345 16 271 C16 217 28 182 58 146 C79 120 107 97 176 46 C231 5 245 -11 245 -37 C245 -69 219 -90 180 -90 C156 -90 134 -85 92 -69 L67 -187 C129 -214 172 -223 233 -223 C353 -223 445 -144 438 -46 C435 -7 423 17 389 54 C474 101 513 160 510 235 C507 293 479 338 414 388 L392 404 L371 421 L349 437 C340 444 329 454 316 467 C295 486 289 498 289 514 C289 541 315 562 347 562 C371 562 388 558 430 543 L457 664 Z M287 312 C325 280 344 252 344 224 C344 186 328 153 297 127 L227 184 C198 208 180 243 180 277 C180 308 193 333 224 364 L287 312 Z " />
<glyph glyph-name="dieresis" unicode="&#xa8;" d="M-113 663 C-160 663 -194 629 -194 582 C-194 536 -160 502 -113 502 C-67 502 -33 536 -33 582 C-33 629 -67 663 -113 663 L-113 663 Z M111 663 C65 663 31 629 31 582 C31 536 65 502 111 502 C158 502 192 536 192 582 C192 629 158 663 111 663 L111 663 Z " />
<glyph glyph-name="guillemotleft" unicode="&#xab;" horiz-adv-x="451" d="M185 461 L11 233 L185 5 L249 92 L142 237 L249 382 L185 461 Z M371 461 L197 233 L371 5 L434 92 L327 237 L434 382 L371 461 Z " />
<glyph glyph-name="macron" unicode="&#xaf;" d="M-144 624 L-144 540 L145 540 L145 624 L-144 624 Z " />
<glyph glyph-name="acute" unicode="&#xb4;" d="M72 660 L-91 539 L-4 503 L192 615 L72 660 Z " />
<glyph glyph-name="paragraph" unicode="&#xb6;" horiz-adv-x="524" d="M243 -197 L266 -197 L266 632 L362 632 L362 -197 L385 -197 L385 632 L506 632 L506 656 L248 656 C190 656 160 651 128 636 C74 610 41 557 41 498 C41 443 71 393 120 365 C152 348 181 342 243 343 L243 -197 Z " />
<glyph glyph-name="cedilla" unicode="&#xb8;" d="M-16 -41 C-29 -95 -58 -159 -91 -210 L-2 -234 C45 -175 74 -116 90 -48 L-16 -41 Z " />
<glyph glyph-name="guillemotright" unicode="&#xbb;" horiz-adv-x="451" d="M79 5 L254 233 L79 461 L16 374 L123 229 L16 84 L79 5 Z M265 5 L439 233 L265 461 L202 374 L309 229 L202 84 L265 5 Z " />
<glyph glyph-name="questiondown" unicode="&#xbf;" horiz-adv-x="438" d="M380 184 C338 156 316 148 282 145 C235 141 197 170 192 213 C188 243 199 271 228 308 C268 359 272 364 279 377 C292 400 296 415 298 445 L168 445 C160 410 156 404 90 331 C35 271 16 232 16 177 C16 75 109 -10 220 -10 C302 -10 357 10 422 66 L380 184 Z M236 482 C291 482 329 520 329 575 C329 629 290 668 236 668 C182 668 143 629 143 575 C143 520 181 482 236 482 L236 482 Z " />
<glyph glyph-name="Agrave" unicode="&#xc0;" horiz-adv-x="691" d="M514 0 L703 0 L425 656 L270 656 L-12 0 L156 0 L215 144 L457 144 L514 0 Z M417 252 L256 252 L339 456 L417 252 Z M286 826 L167 781 L363 670 L450 705 L286 826 Z " />
<glyph glyph-name="Aacute" unicode="&#xc1;" horiz-adv-x="691" d="M514 0 L703 0 L425 656 L270 656 L-12 0 L156 0 L215 144 L457 144 L514 0 Z M417 252 L256 252 L339 456 L417 252 Z M419 826 L256 705 L343 670 L539 781 L419 826 Z " />
<glyph glyph-name="Acircumflex" unicode="&#xc2;" horiz-adv-x="691" d="M514 0 L703 0 L425 656 L270 656 L-12 0 L156 0 L215 144 L457 144 L514 0 Z M417 252 L256 252 L339 456 L417 252 Z M280 669 L349 750 L418 667 L523 676 L394 830 L312 830 L183 676 L280 669 Z " />
<glyph glyph-name="Atilde" unicode="&#xc3;" horiz-adv-x="691" d="M514 0 L703 0 L425 656 L270 656 L-12 0 L156 0 L215 144 L457 144 L514 0 Z M417 252 L256 252 L339 456 L417 252 Z M478 805 C456 782 443 775 419 775 C400 775 390 778 351 792 C318 804 296 808 274 807 C231 805 196 783 174 746 L215 690 C232 711 249 721 271 723 C287 724 310 720 339 710 L352 706 L365 701 L378 697 C394 692 410 690 426 691 C460 694 487 710 520 747 L478 805 Z " />
<glyph glyph-name="Adieresis" unicode="&#xc4;" horiz-adv-x="691" d="M514 0 L703 0 L425 656 L270 656 L-12 0 L156 0 L215 144 L457 144 L514 0 Z M417 252 L256 252 L339 456 L417 252 Z M234 830 C187 830 153 796 153 749 C153 703 187 669 234 669 C280 669 314 703 314 749 C314 796 280 830 234 830 L234 830 Z M458 830 C412 830 378 796 378 749 C378 703 412 669 458 669 C505 669 539 703 539 749 C539 796 505 830 458 830 L458 830 Z " />
<glyph glyph-name="Aring" unicode="&#xc5;" horiz-adv-x="691" d="M270 656 L-12 0 L156 0 L215 144 L457 144 L514 0 L703 0 L425 656 L415 656 C452 676 470 703 470 739 C470 795 418 837 348 837 C278 837 226 795 226 739 C226 703 244 676 282 656 L270 656 Z M417 252 L256 252 L339 456 L417 252 Z M347 783 C376 783 396 765 396 740 C396 714 376 696 347 696 C318 696 298 714 298 740 C298 765 318 783 347 783 L347 783 Z " />
<glyph glyph-name="AE" unicode="&#xc6;" horiz-adv-x="935" d="M474 163 L474 0 L915 0 L931 138 L645 138 L645 275 L863 275 L863 403 L645 403 L645 521 L889 521 L889 656 L370 656 L-12 0 L173 0 L267 163 L474 163 Z M474 279 L324 279 L474 543 L474 279 Z " />
<glyph glyph-name="Ccedilla" unicode="&#xc7;" horiz-adv-x="590" d="M589 605 C517 654 450 674 361 674 C166 674 16 526 16 334 C16 133 148 -9 344 -18 C434 -22 514 1 591 55 L516 192 C472 159 432 146 377 146 C281 146 206 227 206 331 C206 436 275 510 371 510 C418 510 453 498 498 467 L589 605 Z M280 -41 C266 -95 238 -159 204 -210 L293 -234 C341 -175 370 -116 385 -48 L280 -41 Z " />
<glyph glyph-name="Egrave" unicode="&#xc8;" horiz-adv-x="492" d="M205 521 L449 521 L449 656 L32 656 L32 0 L476 0 L492 138 L205 138 L205 275 L424 275 L424 403 L205 403 L205 521 Z M186 826 L67 781 L262 670 L349 705 L186 826 Z " />
<glyph glyph-name="Eacute" unicode="&#xc9;" horiz-adv-x="492" d="M205 521 L449 521 L449 656 L32 656 L32 0 L476 0 L492 138 L205 138 L205 275 L424 275 L424 403 L205 403 L205 521 Z M319 826 L155 705 L242 670 L438 781 L319 826 Z " />
<glyph glyph-name="Ecircumflex" unicode="&#xca;" horiz-adv-x="492" d="M205 521 L449 521 L449 656 L32 656 L32 0 L476 0 L492 138 L205 138 L205 275 L424 275 L424 403 L205 403 L205 521 Z M180 669 L249 750 L318 667 L422 676 L293 830 L212 830 L82 676 L180 669 Z " />
<glyph glyph-name="Edieresis" unicode="&#xcb;" horiz-adv-x="492" d="M205 521 L449 521 L449 656 L32 656 L32 0 L476 0 L492 138 L205 138 L205 275 L424 275 L424 403 L205 403 L205 521 Z M134 830 C87 830 53 796 53 749 C53 703 87 669 134 669 C180 669 214 703 214 749 C214 796 180 830 134 830 L134 830 Z M358 830 C312 830 278 796 278 749 C278 703 312 669 358 669 C405 669 439 703 439 749 C439 796 405 830 358 830 L358 830 Z " />
<glyph glyph-name="Igrave" unicode="&#xcc;" horiz-adv-x="242" d="M210 656 L32 656 L32 0 L210 0 L210 656 Z M60 826 L-59 781 L137 670 L224 705 L60 826 Z " />
<glyph glyph-name="Iacute" unicode="&#xcd;" horiz-adv-x="242" d="M210 656 L32 656 L32 0 L210 0 L210 656 Z M193 826 L30 705 L117 670 L313 781 L193 826 Z " />
<glyph glyph-name="Icircumflex" unicode="&#xce;" horiz-adv-x="242" d="M210 656 L32 656 L32 0 L210 0 L210 656 Z M54 669 L123 750 L192 667 L297 676 L168 830 L86 830 L-43 676 L54 669 Z " />
<glyph glyph-name="Idieresis" unicode="&#xcf;" horiz-adv-x="242" d="M210 656 L32 656 L32 0 L210 0 L210 656 Z M8 830 C-39 830 -73 796 -73 749 C-73 703 -39 669 8 669 C54 669 88 703 88 749 C88 796 54 830 8 830 L8 830 Z M232 830 C186 830 152 796 152 749 C152 703 186 669 232 669 C279 669 313 703 313 749 C313 796 279 830 232 830 L232 830 Z " />
<glyph glyph-name="Ntilde" unicode="&#xd1;" horiz-adv-x="682" d="M32 642 L32 0 L199 0 L196 359 L537 -11 L651 14 L651 656 L484 656 L487 295 L147 668 L32 642 Z M472 805 C449 782 436 775 413 775 C394 775 383 778 344 792 C312 804 290 808 268 807 C225 805 190 783 168 746 L208 690 C226 711 243 721 265 723 C281 724 304 720 333 710 L346 706 L359 701 L372 697 C387 692 404 690 419 691 C453 694 481 710 513 747 L472 805 Z " />
<glyph glyph-name="Ograve" unicode="&#xd2;" horiz-adv-x="732" d="M375 674 L363 674 C165 674 16 524 16 325 C16 126 162 -18 363 -18 C574 -18 716 124 716 334 C716 464 642 584 528 639 C487 659 444 669 390 673 L469 705 L305 826 L186 781 L375 674 Z M356 519 C452 519 524 434 524 320 C524 204 463 133 366 139 C326 141 289 158 262 188 C230 223 208 283 208 335 C208 448 265 519 356 519 L356 519 Z " />
<glyph glyph-name="Oacute" unicode="&#xd3;" horiz-adv-x="732" d="M558 782 L438 826 L275 706 L352 674 C156 666 16 520 16 325 C16 126 162 -18 363 -18 C574 -18 716 124 716 334 C716 465 642 584 528 639 C481 662 430 673 369 674 L558 782 Z M356 520 C452 520 524 435 524 320 C524 204 463 133 366 139 C326 141 289 158 262 188 C230 223 208 283 208 336 C208 449 265 520 356 520 L356 520 Z " />
<glyph glyph-name="Ocircumflex" unicode="&#xd4;" horiz-adv-x="732" d="M363 674 C166 674 16 523 16 325 C16 126 162 -18 363 -18 C574 -18 716 124 716 334 C716 420 682 506 625 567 C557 639 473 674 363 674 L363 674 Z M356 519 C452 519 524 434 524 320 C524 204 463 133 366 139 C326 141 289 158 262 188 C230 223 208 283 208 335 C208 448 265 519 356 519 L356 519 Z M299 669 L368 750 L437 667 L542 676 L413 830 L331 830 L202 676 L299 669 Z " />
<glyph glyph-name="Otilde" unicode="&#xd5;" horiz-adv-x="732" d="M363 674 C166 674 16 523 16 325 C16 126 162 -18 363 -18 C574 -18 716 124 716 334 C716 420 682 506 625 567 C557 639 473 674 363 674 L363 674 Z M356 519 C452 519 524 434 524 320 C524 204 463 133 366 139 C326 141 289 158 262 188 C230 223 208 283 208 335 C208 448 265 519 356 519 L356 519 Z M497 805 C475 782 462 775 438 775 C419 775 409 778 370 792 C337 804 315 808 293 807 C250 805 215 783 193 746 L234 690 C251 711 268 721 290 723 C306 724 329 720 358 710 L371 706 L384 701 L397 697 C413 692 429 690 445 691 C479 694 506 710 539 747 L497 805 Z " />
<glyph glyph-name="Odieresis" unicode="&#xd6;" horiz-adv-x="732" d="M363 674 C166 674 16 523 16 325 C16 126 162 -18 363 -18 C574 -18 716 124 716 334 C716 420 682 506 625 567 C557 639 473 674 363 674 L363 674 Z M356 519 C452 519 524 434 524 320 C524 204 463 133 366 139 C326 141 289 158 262 188 C230 223 208 283 208 335 C208 448 265 519 356 519 L356 519 Z M253 830 C206 830 172 796 172 749 C172 703 206 669 253 669 C299 669 333 703 333 749 C333 796 299 830 253 830 L253 830 Z M477 830 C431 830 397 796 397 749 C397 703 431 669 477 669 C524 669 558 703 558 749 C558 796 524 830 477 830 L477 830 Z " />
<glyph glyph-name="multiply" unicode="&#xd7;" horiz-adv-x="588" d="M148 558 L64 475 L210 328 L64 182 L148 98 L294 244 L441 98 L524 182 L378 328 L524 475 L441 558 L294 412 L148 558 Z " />
<glyph glyph-name="Oslash" unicode="&#xd8;" horiz-adv-x="732" d="M544 631 C486 660 429 674 363 674 C166 674 16 524 16 325 C16 232 50 145 110 83 L39 -7 L149 -24 L187 24 C240 -3 300 -18 363 -18 C574 -18 716 124 716 334 C716 420 680 510 621 572 L693 663 L583 680 L544 631 Z M233 230 C218 263 208 304 208 336 C208 449 265 519 356 519 C388 519 415 511 442 494 L233 230 Z M499 426 C515 391 524 353 524 320 C524 204 462 132 366 139 C339 141 316 148 291 164 L499 426 Z " />
<glyph glyph-name="Ugrave" unicode="&#xd9;" horiz-adv-x="666" d="M32 656 L32 272 C32 187 44 130 69 89 C113 20 204 -18 329 -18 C419 -18 507 8 555 49 C610 95 633 158 633 263 L633 656 L455 656 L455 272 C455 228 449 197 438 178 C419 147 383 129 339 129 C299 129 268 139 246 158 C220 181 210 212 210 272 L210 656 L32 656 Z M272 826 L153 781 L349 670 L436 705 L272 826 Z " />
<glyph glyph-name="Uacute" unicode="&#xda;" horiz-adv-x="666" d="M32 656 L32 272 C32 187 44 130 69 89 C113 20 204 -18 329 -18 C419 -18 507 8 555 49 C610 95 633 158 633 263 L633 656 L455 656 L455 272 C455 228 449 197 438 178 C419 147 383 129 339 129 C299 129 268 139 246 158 C220 181 210 212 210 272 L210 656 L32 656 Z M405 826 L242 705 L329 670 L524 781 L405 826 Z " />
<glyph glyph-name="Ucircumflex" unicode="&#xdb;" horiz-adv-x="666" d="M32 656 L32 272 C32 187 44 130 69 89 C113 20 204 -18 329 -18 C419 -18 507 8 555 49 C610 95 633 158 633 263 L633 656 L455 656 L455 272 C455 228 449 197 438 178 C419 147 383 129 339 129 C299 129 268 139 246 158 C220 181 210 212 210 272 L210 656 L32 656 Z M266 669 L335 750 L404 667 L509 676 L379 830 L298 830 L169 676 L266 669 Z " />
<glyph glyph-name="Udieresis" unicode="&#xdc;" horiz-adv-x="666" d="M32 656 L32 272 C32 187 44 130 69 89 C113 20 204 -18 329 -18 C419 -18 507 8 555 49 C610 95 633 158 633 263 L633 656 L455 656 L455 272 C455 228 449 197 438 178 C419 147 383 129 339 129 C299 129 268 139 246 158 C220 181 210 212 210 272 L210 656 L32 656 Z M220 830 C173 830 139 796 139 749 C139 703 173 669 220 669 C266 669 300 703 300 749 C300 796 266 830 220 830 L220 830 Z M444 830 C398 830 364 796 364 749 C364 703 398 669 444 669 C491 669 525 703 525 749 C525 796 491 830 444 830 L444 830 Z " />
<glyph glyph-name="Yacute" unicode="&#xdd;" horiz-adv-x="647" d="M332 438 L183 669 L0 642 L230 285 L230 0 L408 0 L408 285 L647 642 L484 669 L332 438 Z M396 826 L233 705 L319 670 L515 781 L396 826 Z " />
<glyph glyph-name="germandbls" unicode="&#xdf;" horiz-adv-x="568" d="M32 0 L200 0 L200 427 C200 467 202 485 206 499 C216 533 241 553 273 555 C307 557 336 532 336 500 C336 481 331 465 317 446 C310 436 308 434 283 405 C259 377 251 361 250 338 C248 304 262 285 313 249 C324 241 335 234 346 226 C361 215 366 211 371 207 C388 192 394 177 393 160 C391 130 367 110 334 110 C311 110 285 118 258 135 L227 28 C262 4 314 -12 359 -12 C418 -12 461 1 499 32 C534 60 558 110 558 155 C558 223 530 268 455 318 C427 337 417 348 417 362 C417 372 420 377 450 414 C483 457 496 485 496 518 C496 554 479 588 447 616 C404 654 353 670 273 670 C206 670 130 637 89 590 C49 544 32 491 32 412 L32 0 Z " />
<glyph glyph-name="agrave" unicode="&#xe0;" horiz-adv-x="501" d="M42 318 C97 346 137 357 184 361 C248 366 278 343 280 290 C217 286 201 285 178 281 C67 264 9 211 9 125 C9 43 65 -15 145 -15 C202 -15 238 -1 298 45 C314 7 343 -11 392 -14 C420 -16 439 -14 481 -4 L501 93 C450 93 443 103 443 179 L443 289 C443 350 432 391 408 419 C373 458 315 479 240 479 C175 479 103 461 42 430 L42 318 Z M281 113 C252 95 238 89 216 87 C183 84 157 109 160 142 C163 184 196 204 281 216 L281 113 Z M190 660 L71 615 L267 503 L354 539 L190 660 Z " />
<glyph glyph-name="aacute" unicode="&#xe1;" horiz-adv-x="501" d="M42 318 C97 346 137 357 184 361 C248 366 278 343 280 290 C217 286 201 285 178 281 C67 264 9 211 9 125 C9 43 65 -15 145 -15 C202 -15 238 -1 298 45 C314 7 343 -11 392 -14 C420 -16 439 -14 481 -4 L501 93 C450 93 443 103 443 179 L443 289 C443 350 432 391 408 419 C373 458 315 479 240 479 C175 479 103 461 42 430 L42 318 Z M281 113 C252 95 238 89 216 87 C183 84 157 109 160 142 C163 184 196 204 281 216 L281 113 Z M323 660 L160 539 L247 503 L443 615 L323 660 Z " />
<glyph glyph-name="acircumflex" unicode="&#xe2;" horiz-adv-x="501" d="M42 318 C97 346 137 357 184 361 C248 366 278 343 280 290 C217 286 201 285 178 281 C67 264 9 211 9 125 C9 43 65 -15 145 -15 C202 -15 238 -1 298 45 C314 7 343 -11 392 -14 C420 -16 439 -14 481 -4 L501 93 C450 93 443 103 443 179 L443 289 C443 350 432 391 408 419 C373 458 315 479 240 479 C175 479 103 461 42 430 L42 318 Z M281 113 C252 95 238 89 216 87 C183 84 157 109 160 142 C163 184 196 204 281 216 L281 113 Z M184 502 L253 583 L322 501 L427 510 L298 664 L216 664 L87 510 L184 502 Z " />
<glyph glyph-name="atilde" unicode="&#xe3;" horiz-adv-x="501" d="M42 318 C97 346 137 357 184 361 C248 366 278 343 280 290 C217 286 201 285 178 281 C67 264 9 211 9 125 C9 43 65 -15 145 -15 C202 -15 238 -1 298 45 C314 7 343 -11 392 -14 C420 -16 439 -14 481 -4 L501 93 C450 93 443 103 443 179 L443 289 C443 350 432 391 408 419 C373 458 315 479 240 479 C175 479 103 461 42 430 L42 318 Z M281 113 C252 95 238 89 216 87 C183 84 157 109 160 142 C163 184 196 204 281 216 L281 113 Z M382 639 C360 615 347 608 323 608 C304 608 294 611 255 625 C222 637 201 641 178 640 C135 638 100 616 78 579 L119 523 C136 544 154 554 175 556 C191 557 215 553 243 543 L256 539 L269 534 L282 530 C298 525 314 523 330 524 C364 527 391 543 424 580 L382 639 Z " />
<glyph glyph-name="adieresis" unicode="&#xe4;" horiz-adv-x="501" d="M42 318 C97 346 137 357 184 361 C248 366 278 343 280 290 C217 286 201 285 178 281 C67 264 9 211 9 125 C9 43 65 -15 145 -15 C202 -15 238 -1 298 45 C314 7 343 -11 392 -14 C420 -16 439 -14 481 -4 L501 93 C450 93 443 103 443 179 L443 289 C443 350 432 391 408 419 C373 458 315 479 240 479 C175 479 103 461 42 430 L42 318 Z M281 113 C252 95 238 89 216 87 C183 84 157 109 160 142 C163 184 196 204 281 216 L281 113 Z M138 663 C91 663 57 629 57 582 C57 536 91 502 138 502 C184 502 218 536 218 582 C218 629 184 663 138 663 L138 663 Z M362 663 C316 663 282 629 282 582 C282 536 316 502 362 502 C409 502 443 536 443 582 C443 629 409 663 362 663 L362 663 Z " />
<glyph glyph-name="aring" unicode="&#xe5;" horiz-adv-x="501" d="M42 318 C98 345 137 356 184 360 C248 365 278 342 280 290 C217 286 201 285 178 281 C67 264 9 211 9 125 C9 43 65 -15 145 -15 C202 -15 238 -1 298 45 C314 7 343 -11 392 -14 C420 -16 439 -14 481 -4 L501 93 C450 93 443 103 443 179 L443 288 C443 408 394 463 276 477 C339 488 374 523 374 573 C374 629 322 671 252 671 C182 671 130 629 130 573 C130 524 163 490 224 478 C155 474 100 459 42 429 L42 318 Z M281 113 C252 95 238 89 216 87 C183 84 157 109 160 142 C163 184 196 204 281 216 L281 113 Z M251 617 C280 617 300 599 300 573 C300 547 280 529 251 529 C222 529 202 547 202 573 C202 599 222 617 251 617 L251 617 Z " />
<glyph glyph-name="ae" unicode="&#xe6;" horiz-adv-x="759" d="M748 271 C747 322 739 354 717 388 C681 446 614 480 538 480 C480 480 433 462 383 422 C347 465 295 484 222 480 C165 477 118 464 46 430 L46 319 C105 348 158 363 203 363 C261 363 288 340 288 291 C231 290 198 287 168 281 C68 262 13 211 9 134 C4 47 69 -15 165 -15 C235 -15 292 8 353 62 C406 10 463 -14 532 -14 C621 -14 696 15 747 69 L714 156 C656 121 613 109 562 111 C502 114 459 149 447 207 L698 207 L748 271 Z M442 291 C448 343 483 376 531 376 C578 376 607 346 614 291 L442 291 Z M287 215 C288 175 291 161 306 127 C272 99 253 91 225 89 C188 87 163 108 163 142 C163 164 181 187 207 197 C228 206 243 209 287 215 L287 215 Z " />
<glyph glyph-name="ccedilla" unicode="&#xe7;" horiz-adv-x="433" d="M431 433 C380 467 323 483 260 480 C123 474 16 367 16 235 C16 86 114 -15 257 -15 C324 -15 382 3 433 41 L382 155 C345 136 324 130 288 130 C231 130 190 177 190 241 C190 297 231 341 284 341 C316 341 339 334 375 312 L431 433 Z M201 -41 C187 -95 159 -159 126 -210 L214 -234 C262 -175 291 -116 307 -48 L201 -41 Z " />
<glyph glyph-name="egrave" unicode="&#xe8;" horiz-adv-x="492" d="M432 207 L480 273 C479 398 393 481 264 481 C126 481 16 372 16 235 C16 87 117 -16 262 -16 C353 -16 427 11 482 66 L447 157 C392 123 354 111 297 111 C239 111 187 154 181 207 L432 207 Z M176 291 C183 343 216 375 263 375 C312 375 344 343 347 291 L176 291 Z M185 660 L66 615 L262 503 L349 539 L185 660 Z " />
<glyph glyph-name="eacute" unicode="&#xe9;" horiz-adv-x="492" d="M432 207 L480 273 C479 398 393 481 264 481 C126 481 16 372 16 235 C16 87 117 -16 262 -16 C353 -16 427 11 482 66 L447 157 C392 123 354 111 297 111 C239 111 187 154 181 207 L432 207 Z M176 291 C183 343 216 375 263 375 C312 375 344 343 347 291 L176 291 Z M318 660 L155 539 L242 503 L438 615 L318 660 Z " />
<glyph glyph-name="ecircumflex" unicode="&#xea;" horiz-adv-x="492" d="M432 207 L480 273 C479 398 393 481 264 481 C126 481 16 372 16 235 C16 87 117 -16 262 -16 C353 -16 427 11 482 66 L447 157 C392 123 354 111 297 111 C239 111 187 154 181 207 L432 207 Z M176 291 C183 343 216 375 263 375 C312 375 344 343 347 291 L176 291 Z M179 502 L248 583 L317 501 L422 510 L293 664 L211 664 L82 510 L179 502 Z " />
<glyph glyph-name="edieresis" unicode="&#xeb;" horiz-adv-x="492" d="M432 207 L480 273 C479 398 393 481 264 481 C126 481 16 372 16 235 C16 87 117 -16 262 -16 C353 -16 427 11 482 66 L447 157 C392 123 354 111 297 111 C239 111 187 154 181 207 L432 207 Z M176 291 C183 343 216 375 263 375 C312 375 344 343 347 291 L176 291 Z M134 663 C87 663 53 629 53 582 C53 536 87 502 134 502 C180 502 214 536 214 582 C214 629 180 663 134 663 L134 663 Z M358 663 C312 663 278 629 278 582 C278 536 312 502 358 502 C405 502 439 536 439 582 C439 629 405 663 358 663 L358 663 Z " />
<glyph glyph-name="igrave" unicode="&#xec;" horiz-adv-x="230" d="M199 463 L32 463 L32 0 L199 0 L199 463 Z M54 660 L-65 615 L131 503 L218 539 L54 660 Z " />
<glyph glyph-name="iacute" unicode="&#xed;" horiz-adv-x="230" d="M199 463 L32 463 L32 0 L199 0 L199 463 Z M187 660 L24 539 L111 503 L307 615 L187 660 Z " />
<glyph glyph-name="icircumflex" unicode="&#xee;" horiz-adv-x="230" d="M199 463 L32 463 L32 0 L199 0 L199 463 Z M48 502 L117 583 L186 501 L291 510 L162 664 L80 664 L-49 510 L48 502 Z " />
<glyph glyph-name="idieresis" unicode="&#xef;" horiz-adv-x="230" d="M198 463 L31 463 L31 0 L198 0 L198 463 Z M2 663 C-45 663 -79 629 -79 582 C-79 536 -45 502 2 502 C48 502 82 536 82 582 C82 629 48 663 2 663 L2 663 Z M226 663 C180 663 146 629 146 582 C146 536 180 502 226 502 C273 502 307 536 307 582 C307 629 273 663 226 663 L226 663 Z " />
<glyph glyph-name="ntilde" unicode="&#xf1;" horiz-adv-x="545" d="M5 445 C32 408 35 390 35 283 L35 0 L202 0 L202 296 C229 326 254 339 281 339 C327 339 347 314 347 255 L347 0 L514 0 L514 304 C514 415 455 480 354 480 C289 480 231 451 192 399 C188 438 175 460 147 480 L5 445 Z M404 639 C382 615 369 608 345 608 C326 608 316 611 277 625 C244 637 223 641 200 640 C157 638 122 616 100 579 L141 523 C158 544 176 554 197 556 C213 557 237 553 265 543 L278 539 L291 534 L304 530 C320 525 336 523 352 524 C386 527 413 543 446 580 L404 639 Z " />
<glyph glyph-name="ograve" unicode="&#xf2;" horiz-adv-x="556" d="M271 480 C118 472 16 370 16 225 C16 164 39 103 78 61 C125 11 193 -15 279 -15 C435 -15 548 100 539 250 C531 391 418 488 271 480 L271 480 Z M271 349 C326 349 371 295 371 228 C371 154 340 113 284 113 C227 113 183 169 183 240 C183 304 220 349 271 349 L271 349 Z M217 660 L98 615 L294 503 L381 539 L217 660 Z " />
<glyph glyph-name="oacute" unicode="&#xf3;" horiz-adv-x="556" d="M271 480 C118 472 16 370 16 225 C16 164 39 103 78 61 C125 11 193 -15 279 -15 C435 -15 548 100 539 250 C531 391 418 488 271 480 L271 480 Z M271 349 C326 349 371 295 371 228 C371 154 340 113 284 113 C227 113 183 169 183 240 C183 304 220 349 271 349 L271 349 Z M350 660 L187 539 L274 503 L470 615 L350 660 Z " />
<glyph glyph-name="ocircumflex" unicode="&#xf4;" horiz-adv-x="556" d="M271 480 C118 472 16 370 16 225 C16 164 39 103 78 61 C125 11 193 -15 279 -15 C435 -15 548 100 539 250 C531 391 418 488 271 480 L271 480 Z M271 349 C326 349 371 295 371 228 C371 154 340 113 284 113 C227 113 183 169 183 240 C183 304 220 349 271 349 L271 349 Z M211 502 L280 583 L349 501 L454 510 L325 664 L243 664 L114 510 L211 502 Z " />
<glyph glyph-name="otilde" unicode="&#xf5;" horiz-adv-x="556" d="M271 480 C118 472 16 370 16 225 C16 164 39 103 78 61 C125 11 193 -15 279 -15 C435 -15 548 100 539 250 C531 391 418 488 271 480 L271 480 Z M271 349 C326 349 371 295 371 228 C371 154 340 113 284 113 C227 113 183 169 183 240 C183 304 220 349 271 349 L271 349 Z M409 639 C387 615 374 608 350 608 C331 608 321 611 282 625 C249 637 228 641 205 640 C162 638 127 616 105 579 L146 523 C163 544 181 554 202 556 C218 557 242 553 270 543 L283 539 L296 534 L309 530 C325 525 341 523 357 524 C391 527 418 543 451 580 L409 639 Z " />
<glyph glyph-name="odieresis" unicode="&#xf6;" horiz-adv-x="556" d="M271 480 C118 472 16 370 16 225 C16 164 39 103 78 61 C125 11 193 -15 279 -15 C435 -15 548 100 539 250 C531 391 418 488 271 480 L271 480 Z M271 349 C326 349 371 295 371 228 C371 154 340 113 284 113 C227 113 183 169 183 240 C183 304 220 349 271 349 L271 349 Z M165 663 C118 663 84 629 84 582 C84 536 118 502 165 502 C211 502 245 536 245 582 C245 629 211 663 165 663 L165 663 Z M389 663 C343 663 309 629 309 582 C309 536 343 502 389 502 C436 502 470 536 470 582 C470 629 436 663 389 663 L389 663 Z " />
<glyph glyph-name="divide" unicode="&#xf7;" horiz-adv-x="588" d="M294 588 C254 588 221 555 221 515 C221 475 254 442 294 442 C334 442 367 475 367 515 C367 555 334 588 294 588 L294 588 Z M294 214 C254 214 221 181 221 141 C221 101 254 68 294 68 C334 68 367 101 367 141 C367 182 335 214 294 214 L294 214 Z M59 385 L59 272 L530 272 L530 385 L59 385 Z " />
<glyph glyph-name="oslash" unicode="&#xf8;" horiz-adv-x="554" d="M399 456 C354 474 324 480 270 480 C127 480 16 369 16 225 C16 166 40 104 79 62 L22 -8 L118 -36 L154 8 C195 -9 230 -15 278 -15 C434 -15 547 101 538 250 C534 310 514 359 475 403 L532 473 L435 501 L399 456 Z M190 190 C184 208 182 222 182 240 C182 304 219 349 270 349 C285 349 297 346 311 340 L190 190 Z M363 274 C368 256 370 245 371 229 C375 161 338 113 283 113 C267 113 256 116 241 123 L363 274 Z " />
<glyph glyph-name="ugrave" unicode="&#xf9;" horiz-adv-x="558" d="M502 463 L335 463 L335 165 C307 137 290 128 264 127 C221 125 199 152 199 208 L199 463 L32 463 L32 183 C32 119 37 85 52 58 C75 17 126 -12 184 -15 C251 -19 303 5 350 61 C370 9 396 -11 451 -14 C479 -16 499 -13 540 -4 L560 93 C509 93 502 103 502 179 L502 463 Z M219 660 L100 615 L296 503 L383 539 L219 660 Z " />
<glyph glyph-name="uacute" unicode="&#xfa;" horiz-adv-x="558" d="M502 463 L335 463 L335 165 C307 137 290 128 264 127 C221 125 199 152 199 208 L199 463 L32 463 L32 183 C32 119 37 85 52 58 C75 17 126 -12 184 -15 C251 -19 303 5 350 61 C370 9 396 -11 451 -14 C479 -16 499 -13 540 -4 L560 93 C509 93 502 103 502 179 L502 463 Z M351 660 L188 539 L275 503 L471 615 L351 660 Z " />
<glyph glyph-name="ucircumflex" unicode="&#xfb;" horiz-adv-x="558" d="M502 463 L335 463 L335 165 C307 137 290 128 264 127 C221 125 199 152 199 208 L199 463 L32 463 L32 183 C32 119 37 85 52 58 C75 17 126 -12 184 -15 C251 -19 303 5 350 61 C370 9 396 -11 451 -14 C479 -16 499 -13 540 -4 L560 93 C509 93 502 103 502 179 L502 463 Z M213 502 L282 583 L351 501 L456 510 L327 664 L245 664 L116 510 L213 502 Z " />
<glyph glyph-name="udieresis" unicode="&#xfc;" horiz-adv-x="558" d="M502 463 L335 463 L335 165 C307 137 290 128 264 127 C221 125 199 152 199 208 L199 463 L32 463 L32 183 C32 119 37 85 52 58 C75 17 126 -12 184 -15 C251 -19 303 5 350 61 C370 9 396 -11 451 -14 C479 -16 499 -13 540 -4 L560 93 C509 93 502 103 502 179 L502 463 Z M167 663 C120 663 86 629 86 582 C86 536 120 502 167 502 C213 502 247 536 247 582 C247 629 213 663 167 663 L167 663 Z M391 663 C345 663 311 629 311 582 C311 536 345 502 391 502 C438 502 472 536 472 582 C472 629 438 663 391 663 L391 663 Z " />
<glyph glyph-name="yacute" unicode="&#xfd;" horiz-adv-x="529" d="M266 214 L169 473 L0 449 L184 26 L160 -27 C135 -82 102 -107 60 -102 C53 -101 44 -100 35 -98 L10 -213 C26 -218 41 -221 54 -223 C160 -242 242 -194 292 -84 L529 449 L364 473 L266 214 Z M337 660 L173 539 L260 503 L456 615 L337 660 Z " />
<glyph glyph-name="ydieresis" unicode="&#xff;" horiz-adv-x="529" d="M266 214 L169 473 L0 449 L184 26 L160 -27 C135 -82 102 -107 60 -102 C53 -101 44 -100 35 -98 L10 -213 C26 -218 41 -221 54 -223 C160 -242 242 -194 292 -84 L529 449 L364 473 L266 214 Z M152 663 C105 663 71 629 71 582 C71 536 105 502 152 502 C198 502 232 536 232 582 C232 629 198 663 152 663 L152 663 Z M376 663 C330 663 296 629 296 582 C296 536 330 502 376 502 C423 502 457 536 457 582 C457 629 423 663 376 663 L376 663 Z " />
<glyph glyph-name="dotlessi" unicode="&#x131;" horiz-adv-x="230" d="M199 463 L32 463 L32 0 L199 0 L199 463 Z " />
<glyph glyph-name="OE" unicode="&#x152;" horiz-adv-x="982" d="M546 600 C494 643 424 670 362 670 C277 670 218 653 157 609 C66 545 15 443 15 325 C15 239 45 156 99 94 C164 19 245 -14 362 -14 C403 -14 461 0 498 19 C517 28 528 35 546 52 L546 0 L963 0 L979 138 L693 138 L693 275 L911 275 L911 403 L693 403 L693 521 L937 521 L937 656 L546 656 L546 600 Z M355 520 C451 520 522 435 522 321 C522 204 461 134 365 140 C324 142 288 159 261 189 C229 224 207 284 207 336 C207 447 266 520 355 520 L355 520 Z " />
<glyph glyph-name="oe" unicode="&#x153;" horiz-adv-x="843" d="M799 157 C743 122 706 111 649 111 C588 111 540 151 533 208 L781 208 L832 273 C831 398 745 481 616 481 C558 481 507 463 455 424 C405 463 348 480 270 480 C214 480 152 458 108 423 C48 375 16 306 16 225 C16 82 122 -15 279 -15 C338 -15 401 5 450 41 C492 7 557 -16 614 -16 C705 -16 778 11 834 66 L799 157 Z M271 349 C328 349 372 296 372 229 C372 154 341 113 284 113 C227 113 183 169 183 240 C183 304 220 349 271 349 L271 349 Z M528 291 C534 343 567 375 614 375 C663 375 696 342 699 291 L528 291 Z " />
<glyph glyph-name="Scaron" unicode="&#x160;" horiz-adv-x="504" d="M208 669 C94 647 27 576 27 478 C27 397 62 344 144 300 C157 293 182 279 215 262 C266 235 283 217 283 189 C283 147 249 121 201 125 C141 130 83 158 21 212 L2 54 C81 5 157 -18 240 -18 C387 -18 490 68 490 191 C490 243 467 295 430 327 C404 349 363 373 299 406 C240 436 225 452 227 483 C229 513 257 535 292 535 C334 535 372 520 433 481 L472 616 C399 654 357 667 296 673 L420 821 L323 829 L254 748 L185 830 L81 821 L208 669 Z " />
<glyph glyph-name="scaron" unicode="&#x161;" horiz-adv-x="401" d="M386 438 C308 473 272 481 207 481 C108 481 28 417 28 339 C28 290 45 253 79 229 C95 217 127 201 164 185 C204 168 215 157 214 136 C213 114 189 98 161 100 C124 102 87 118 41 151 L0 42 C72 -1 122 -16 197 -16 C238 -16 287 -4 319 14 C369 41 394 83 394 139 C394 175 379 210 353 231 C333 249 324 253 251 286 C213 302 202 313 203 330 C204 348 225 362 248 362 C284 362 292 359 355 327 L386 438 Z M273 662 L204 581 L135 663 L30 655 L159 501 L240 501 L370 655 L273 662 Z " />
<glyph glyph-name="Ydieresis" unicode="&#x178;" horiz-adv-x="647" d="M332 438 L183 669 L0 642 L230 285 L230 0 L408 0 L408 285 L647 642 L484 669 L332 438 Z M211 830 C164 830 130 796 130 749 C130 703 164 669 211 669 C257 669 291 703 291 749 C291 796 257 830 211 830 L211 830 Z M435 830 C389 830 355 796 355 749 C355 703 389 669 435 669 C482 669 516 703 516 749 C516 796 482 830 435 830 L435 830 Z " />
<glyph glyph-name="Zcaron" unicode="&#x17d;" horiz-adv-x="595" d="M36 656 L36 510 L324 510 L2 74 L31 0 L575 0 L592 149 L262 149 L585 583 L555 656 L36 656 Z M369 829 L300 748 L231 831 L126 822 L256 668 L337 668 L466 822 L369 829 Z " />
<glyph glyph-name="zcaron" unicode="&#x17e;" horiz-adv-x="458" d="M420 463 L24 463 L24 344 L213 344 L2 60 L20 0 L435 0 L457 122 L234 122 L441 405 L420 463 Z M301 662 L232 581 L163 663 L58 655 L187 501 L268 501 L398 655 L301 662 Z " />
<glyph glyph-name="circumflex" unicode="&#x2c6;" d="M-67 502 L2 583 L71 501 L176 510 L47 664 L-35 664 L-164 510 L-67 502 Z " />
<glyph glyph-name="caron" unicode="&#x2c7;" d="M72 662 L3 581 L-66 663 L-171 655 L-42 501 L39 501 L169 655 L72 662 Z " />
<glyph glyph-name="breve" unicode="&#x2d8;" d="M78 653 C64 613 37 591 0 591 C-39 591 -64 612 -75 653 L-146 645 C-136 559 -82 507 0 507 C82 507 140 561 148 645 L78 653 Z " />
<glyph glyph-name="ring" unicode="&#x2da;" d="M1 671 C-69 671 -121 629 -121 573 C-121 517 -69 475 1 475 C71 475 123 517 123 573 C123 629 71 671 1 671 L1 671 Z M0 617 C29 617 49 599 49 573 C49 547 29 529 0 529 C-29 529 -49 547 -49 573 C-49 599 -29 617 0 617 L0 617 Z " />
<glyph glyph-name="tilde" unicode="&#x2dc;" d="M131 639 C109 615 96 608 72 608 C53 608 43 611 4 625 C-29 637 -50 641 -73 640 C-116 638 -151 616 -173 579 L-132 523 C-115 544 -97 554 -76 556 C-60 557 -36 553 -8 543 L5 539 L18 534 L31 530 C47 525 63 523 79 524 C113 527 140 543 173 580 L131 639 Z " />
<glyph glyph-name="endash" unicode="&#x2013;" horiz-adv-x="554" d="M535 183 L535 306 L18 306 L18 183 L535 183 Z " />
<glyph glyph-name="emdash" unicode="&#x2014;" horiz-adv-x="554" d="M535 183 L535 306 L18 306 L18 183 L535 183 Z " />
<glyph glyph-name="quoteleft" unicode="&#x2018;" horiz-adv-x="248" d="M141 368 C153 460 188 562 238 651 L134 675 C72 588 29 480 16 379 L141 368 Z " />
<glyph glyph-name="quoteright" unicode="&#x2019;" horiz-adv-x="248" d="M108 675 C96 583 61 481 11 392 L115 368 C177 454 220 562 233 664 L108 675 Z " />
<glyph glyph-name="quotedblleft" unicode="&#x201c;" horiz-adv-x="426" d="M141 368 C153 460 188 562 238 651 L134 675 C72 589 29 481 16 379 L141 368 Z M318 368 C330 460 365 562 415 651 L312 675 C249 588 206 479 194 379 L318 368 Z " />
<glyph glyph-name="quotedblright" unicode="&#x201d;" horiz-adv-x="426" d="M108 675 C96 583 61 481 11 392 L115 368 C177 454 220 562 233 664 L108 675 Z M286 675 C274 583 239 481 189 392 L292 368 C354 454 397 562 410 664 L286 675 Z " />
<glyph glyph-name="quotedblbase" unicode="&#x201e;" horiz-adv-x="376" d="M57 165 C45 73 10 -29 -40 -117 L64 -142 C126 -55 169 52 182 155 L57 165 Z M235 165 C223 73 188 -28 138 -117 L241 -142 C304 -55 346 52 359 155 L235 165 Z " />
<glyph glyph-name="dagger" unicode="&#x2020;" horiz-adv-x="501" d="M332 656 L170 656 L170 495 L16 495 L16 365 L170 365 L170 0 L332 0 L332 365 L484 365 L484 495 L332 495 L332 656 Z " />
<glyph glyph-name="perthousand" unicode="&#x2030;" horiz-adv-x="1304" d="M193 651 C84 641 11 559 11 445 C11 333 93 252 205 252 C316 252 397 340 397 459 C397 575 306 661 193 651 L193 651 Z M194 560 C237 563 269 520 273 455 C277 388 252 345 209 345 C168 345 138 387 133 451 C128 512 153 558 194 560 L194 560 Z M539 651 L262 0 L357 0 L634 651 L539 651 Z M681 399 C571 389 498 307 498 193 C498 81 580 0 692 0 C803 0 885 88 885 207 C885 323 794 409 681 399 L681 399 Z M681 309 C725 312 757 268 761 203 C765 136 740 93 697 93 C656 93 625 136 620 200 C615 261 641 307 681 309 L681 309 Z M1089 399 C980 389 907 307 907 193 C907 81 989 0 1101 0 C1212 0 1293 88 1293 207 C1293 323 1202 409 1089 399 L1089 399 Z M1090 309 C1133 312 1165 268 1169 203 C1173 136 1148 93 1105 93 C1064 93 1034 136 1029 200 C1024 261 1050 307 1090 309 L1090 309 Z " />
<glyph glyph-name="guilsinglleft" unicode="&#x2039;" horiz-adv-x="264" d="M185 461 L11 233 L185 5 L249 92 L142 237 L249 382 L185 461 Z " />
<glyph glyph-name="guilsinglright" unicode="&#x203a;" horiz-adv-x="264" d="M79 5 L254 233 L79 461 L16 374 L123 229 L16 84 L79 5 Z " />
<glyph glyph-name="Euro" unicode="&#x20ac;" horiz-adv-x="588" d="M388 230 L418 300 L250 300 C250 307 249 314 249 321 C249 327 249 334 250 340 L435 340 L464 410 L266 410 C287 461 327 505 381 505 C421 505 450 480 483 453 L556 587 C500 631 445 654 378 654 C243 654 138 557 107 410 L61 410 L32 340 L98 340 C97 332 97 324 97 316 C97 311 97 305 97 300 L58 300 L28 230 L106 230 C135 83 240 -17 374 -17 C442 -17 501 6 557 53 L497 186 C465 157 430 133 390 133 C335 133 291 178 268 230 L388 230 Z " />
<glyph glyph-name="minus" unicode="&#x2212;" horiz-adv-x="588" d="M59 385 L59 272 L530 272 L530 385 L59 385 Z " />
<glyph glyph-name="Adieresis.alt" unicode="&#xe000;" horiz-adv-x="691" d="M201 496 L-12 0 L156 0 L215 144 L457 144 L514 0 L703 0 L493 496 L487 496 C424 499 386 537 386 595 C386 618 393 639 406 656 L285 656 C298 639 305 617 305 595 C305 572 299 552 286 534 C269 510 250 502 204 496 L201 496 Z M417 252 L256 252 L339 456 L417 252 Z M203 685 C151 685 114 648 114 597 C114 545 151 508 203 508 C255 508 291 544 291 597 C291 648 254 685 203 685 L203 685 Z M487 685 C435 685 398 648 398 597 C398 545 435 508 487 508 C539 508 575 544 575 597 C575 648 538 685 487 685 L487 685 Z " />
<glyph glyph-name="Aring.alt" unicode="&#xe001;" horiz-adv-x="691" d="M-12 0 L156 0 L215 144 L457 144 L514 0 L703 0 L467 556 C444 518 398 496 345 496 C294 496 249 518 225 552 L-12 0 Z M417 252 L256 252 L339 456 L417 252 Z M345 709 C273 709 220 666 220 608 C220 550 274 507 345 507 C417 507 470 550 470 608 C470 666 417 709 345 709 L345 709 Z M345 652 C374 652 394 634 394 608 C394 582 374 564 345 564 C315 564 295 582 295 608 C295 634 315 652 345 652 L345 652 Z " />
<glyph glyph-name="Odieresis.alt" unicode="&#xe002;" horiz-adv-x="732" d="M72 521 C35 463 16 397 16 325 C16 126 162 -18 363 -18 C574 -18 716 124 716 334 C716 396 695 465 661 521 C643 505 618 496 590 496 C531 496 489 537 489 595 C489 616 493 631 504 649 C457 667 417 674 363 674 C324 674 276 665 229 648 C238 633 243 613 243 595 C243 537 202 496 142 496 C115 496 91 505 72 521 L72 521 Z M356 519 C452 519 524 434 524 320 C524 204 463 133 366 139 C326 141 289 158 262 188 C230 223 208 283 208 335 C208 448 265 519 356 519 L356 519 Z M142 685 C90 685 53 648 53 597 C53 545 90 508 142 508 C194 508 230 544 230 597 C230 648 193 685 142 685 L142 685 Z M589 685 C537 685 500 648 500 597 C500 545 537 508 589 508 C641 508 677 544 677 597 C677 648 640 685 589 685 L589 685 Z " />
<glyph glyph-name="Udieresis.alt" unicode="&#xe003;" horiz-adv-x="666" d="M210 496 C153 500 116 539 116 595 C116 618 123 638 136 656 L32 656 L32 272 C32 187 44 130 69 89 C113 20 204 -18 329 -18 C419 -18 507 8 555 49 C610 95 633 158 633 263 L633 656 L529 656 C542 639 549 617 549 595 C549 539 511 499 455 496 L455 272 C455 228 449 197 438 178 C419 147 383 129 339 129 C299 129 268 139 246 158 C220 181 210 212 210 272 L210 496 Z M217 685 C165 685 128 648 128 597 C128 545 165 508 217 508 C269 508 305 544 305 597 C305 648 268 685 217 685 L217 685 Z M447 685 C395 685 358 648 358 597 C358 545 395 508 447 508 C499 508 535 544 535 597 C535 648 498 685 447 685 L447 685 Z " />
</font>
</svg>
